<?xml version="1.0" standalone="no"?>
<!DOCTYPE svg PUBLIC "-//W3C//DTD SVG 1.1//EN" "http://www.w3.org/Graphics/SVG/1.1/DTD/svg11.dtd" >
<svg xmlns="http://www.w3.org/2000/svg">
<metadata></metadata>
<defs>
<font id="db_helvethaicamon_x76_bdit" horiz-adv-x="0" >
<font-face units-per-em="2048" ascent="1638" descent="-410" />
<missing-glyph horiz-adv-x="348" />
<glyph unicode="&#x2b;&#x2d;" horiz-adv-x="833" d="M47 43q-4 15 1 37q4 22 15 37.5t25 25t32 13.5t38 4h586q19 0 34.5 -4t26.5 -13.5t15 -25t-1 -37.5t-15.5 -37t-25 -25t-32.5 -14t-36 -4h-586q-20 0 -36 4t-26.5 14t-14.5 25zM153 571q8 37 38.5 58t74.5 21h208l44 210q4 21 14 38.5t23 30.5t29.5 20t35.5 7t32.5 -7 t21.5 -20t10 -30t-3 -39l-45 -210h208q44 0 65.5 -21t13.5 -58t-38.5 -58t-73.5 -21h-208l-45 -211q-4 -21 -13.5 -38t-23 -30t-29.5 -20t-36 -7q-19 0 -32.5 7t-21.5 20t-10 30t3 38l45 211h-208q-22 0 -38 6.5t-26 17.5t-14 25.5t-1 29.5z" />
<glyph unicode="&#x2e;&#x2e;&#x2e;" horiz-adv-x="1388" d="M147.5 64q-4.5 20 0.5 44t18 44t31.5 36t40.5 24q22 9 46 9t43 -8.5t31 -24.5t16 -36t0 -44q-5 -24 -18.5 -44t-32 -36t-41 -24.5t-46.5 -8.5t-42 8.5t-30 24.5t-16.5 36zM600.5 64q-4.5 20 0.5 44t18 44t32 36t41 24.5t46 8.5t42.5 -8.5t30.5 -24.5t16.5 -36t-0.5 -44 t-18 -44t-32 -36t-41 -24.5t-46 -8.5t-42.5 8.5t-30.5 24.5t-16.5 36zM1057.5 64q-4.5 20 0.5 44t18.5 44t31.5 36t41 24.5t46 8.5q24 0 42.5 -8.5t30.5 -24.5t16.5 -36t-0.5 -44t-18.5 -44t-31.5 -36t-41 -24.5t-46 -8.5q-24 0 -42.5 8.5t-30.5 24.5t-16.5 36z" />
<glyph unicode="&#x3c;&#x3d;" horiz-adv-x="897" d="M77 43q-4 15 1 37q4 22 15 37.5t25 25t32 13.5t38 4h568q19 0 34.5 -4t26.5 -13.5t15 -25t-1 -37.5t-15.5 -37t-25 -25t-32.5 -14t-36 -4h-568q-20 0 -36 4t-26.5 14t-14.5 25zM188 591q6 26 24 46.5t42 30.5l608 254q24 10 47.5 16.5t43 4t32.5 -14.5t15 -38 q4 -34 -16 -62t-66 -46l-479 -191l392 -189q20 -9 32.5 -21.5t17.5 -27.5t2 -31.5t-15 -33.5q-15 -22 -31.5 -33.5t-35.5 -14t-39 2.5t-42 16l-499 255q-20 10 -29.5 31t-3.5 46z" />
<glyph unicode="&#x3e;&#x3d;" horiz-adv-x="897" d="M99.5 43q-4.5 15 0.5 37q4 22 15 37.5t25.5 25t32 13.5t37.5 4h568q20 0 35 -4t26 -13.5t15 -25t-1 -37.5t-15.5 -37t-25 -25t-32.5 -14q-16 -4 -36 -4h-568q-19 0 -35.5 4t-26.5 14t-14.5 25zM150 288q-4 17 0 33.5t15.5 31.5t29.5 28q17 13 41 21l472 189l-397 191 q-39 18 -47.5 46t10.5 62q14 26 32 38t38 14.5t42 -3.5q21 -7 41 -17l499 -254q19 -10 29 -31t5 -46q-3 -13 -9.5 -25t-15.5 -22t-19 -18t-22 -12l-608 -255q-26 -12 -48.5 -16.5t-40 -2t-29.5 14t-18 33.5z" />
<glyph unicode="&#xe4f;&#x22;" horiz-adv-x="1014" d="M144.5 300.5q-3.5 56.5 9.5 117.5t40.5 117.5t67 105t89 89t104.5 68.5t115 44t122 16q60 0 113 -16t95.5 -44t74 -68.5t49.5 -89t22 -105t-10 -117.5q-13 -61 -40.5 -117.5t-66.5 -105.5t-87 -89t-103 -68.5t-114 -44t-120 -15.5q-62 0 -115.5 15.5t-96.5 44t-75 68.5 t-51 89t-22.5 105.5zM292.5 304q12.5 -56 45 -97t82.5 -66t114 -25q41 0 81.5 11t78.5 31.5t72 48.5t61 62t46 72.5t27 80.5t6 80t-15 72t-34.5 61t-51 47t-65.5 30.5t-76 10.5q-42 0 -84 -10.5t-80 -30.5t-71.5 -47t-60.5 -61t-46.5 -72t-27.5 -80q-14 -62 -1.5 -118z M363.5 331q-9.5 43 0.5 91q10 47 37.5 89t66 73.5t85.5 50.5t95 19q47 0 85 -19t62.5 -50.5t34 -73.5t-0.5 -89q-10 -48 -37.5 -91t-65.5 -74.5t-83.5 -50t-92.5 -18.5q-48 0 -87 18.5t-64.5 50t-35 74.5zM488 378.5q4 -20.5 16 -35.5t30 -23t42 -8q22 0 43 8t38 23 t29.5 35.5t17.5 43.5q4 22 0 41t-15 33.5t-28 23t-39 8.5q-24 0 -46 -8.5t-40 -23t-30.5 -33.5t-16.5 -41q-5 -23 -1 -43.5zM554 1012l30 138q4 16 11 29.5t18.5 23t26 15.5t30.5 6q32 0 46 -21t8 -53l-30 -138q-4 -16 -11 -29t-18.5 -23t-25.5 -15.5t-30 -5.5 q-32 0 -46.5 20.5t-8.5 52.5zM760 1012l28 138q4 16 12 29.5t19 23t25 15.5t30 6q32 0 46.5 -21t7.5 -53l-29 -138q-4 -16 -11.5 -29t-18.5 -23t-25 -15.5t-30 -5.5q-32 0 -47 20.5t-7 52.5z" />
<glyph unicode="&#xe0e;&#xe3a;" horiz-adv-x="936" d="M46 49.5q-2 14.5 1 31.5q4 16 12.5 31t20.5 26t28 17.5t32 6.5h19l62 290q4 18 3 38q-2 20 -13 38q-10 17 -16 28.5t-6.5 22.5t5.5 23q4 12 16 30q29 44 70.5 85t94.5 72.5t120 50t148 18.5q76 0 131.5 -14t94.5 -38t62.5 -58t34 -73t9.5 -83t-11 -90l-144 -677 q-6 -26 -20 -48.5t-35 -39.5t-46 -27t-51 -10q-28 0 -49 11t-35 29q-9 12 -21.5 23.5t-29.5 20t-40 13.5t-52 5q-32 0 -60.5 -7t-55 -18.5t-52.5 -28t-54 -36.5q-14 -10 -29 -14t-29.5 -3t-26.5 8q-10 7 -18 19t-9 26t3.5 28t14 27.5t22.5 24.5q35 30 74.5 54.5t81.5 42.5 t85.5 28t87.5 10q54 0 91.5 -11.5t63.5 -25.5l125 590q6 29 3 57.5t-19.5 51.5t-49 37.5t-85.5 15.5q-40 0 -73.5 -7.5t-58.5 -20t-41 -27.5q-18 -15 -26 -29q10 -12 17.5 -25t10 -29.5t1.5 -38t-7 -51.5l-79 -369q-4 -16 -12.5 -31t-21 -26t-28 -17.5t-31.5 -6.5h-150 q-16 0 -29 6.5t-21 17.5t-10 25.5zM517.5 -531q-5.5 23 0.5 49q6 27 21 51.5t37 42t48 28t53 10.5q26 0 47.5 -10.5t35 -28t19 -41.5t-0.5 -52q-6 -26 -21 -49t-36.5 -41t-47 -28t-51.5 -10q-27 0 -48.5 10t-36 28t-20 41z" />
<glyph unicode="&#xe0f;&#xe3a;" horiz-adv-x="936" d="M25 -249q-3 17 2 35.5t16 36.5q22 34 48.5 58.5t56.5 40.5t62 24q32 7 66 7q24 0 44.5 -5.5t37 -14.5t29.5 -22t22 -27q14 14 30.5 25.5t35.5 20.5t38.5 14t38.5 5q28 0 47 -9.5t31 -21.5l126 598q6 29 3 57.5t-19.5 51.5t-49 37.5t-85.5 15.5q-40 0 -73.5 -7.5 t-58.5 -20t-41 -27.5q-18 -15 -26 -29q10 -12 17.5 -25t10 -29.5t1.5 -38t-7 -51.5l-79 -369q-4 -16 -12.5 -31t-21 -26t-28 -17.5t-31.5 -6.5h-150q-16 0 -29 6.5t-21 17.5t-10 25.5t1 31.5q4 16 12.5 31t20.5 26t28 17.5t32 6.5h19l62 290q4 18 3 38q-2 20 -13 38 q-10 17 -16 28.5t-6.5 22.5t5.5 23q4 12 16 30q29 44 70.5 85t94.5 72.5t120 50t148 18.5q76 0 131.5 -14t94.5 -38t62.5 -58t34 -73t9.5 -83t-11 -90l-146 -691q-6 -26 -20 -47.5t-34.5 -37t-45 -24.5t-49.5 -9q-27 0 -48 10t-29 32q-4 12 -8 23t-10 19.5t-14 13t-18 4.5 q-18 0 -33.5 -12.5t-26.5 -30.5q-8 -13 -19 -23.5t-24.5 -18.5t-28 -12.5t-29.5 -4.5q-30 0 -50.5 17.5t-24.5 43.5q-3 18 -12.5 30.5t-27.5 12.5q-20 0 -38 -13.5t-30 -31.5q-13 -20 -29.5 -34t-34.5 -20t-36 -6t-35 8q-16 8 -25.5 21t-12.5 30zM517.5 -531q-5.5 23 0.5 49 q6 27 21 51.5t37 42t48 28t53 10.5q26 0 47.5 -10.5t35 -28t19 -41.5t-0.5 -52q-6 -26 -21 -49t-36.5 -41t-47 -28t-51.5 -10q-27 0 -48.5 10t-36 28t-20 41z" />
<glyph unicode="&#xe0e;&#xe38;" horiz-adv-x="936" d="M46 49.5q-2 14.5 1 31.5q4 16 12.5 31t20.5 26t28 17.5t32 6.5h19l62 290q4 18 3 38q-2 20 -13 38q-10 17 -16 28.5t-6.5 22.5t5.5 23q4 12 16 30q29 44 70.5 85t94.5 72.5t120 50t148 18.5q76 0 131.5 -14t94.5 -38t62.5 -58t34 -73t9.5 -83t-11 -90l-144 -677 q-6 -26 -20 -48.5t-35 -39.5t-46 -27t-51 -10q-28 0 -49 11t-35 29q-9 12 -21.5 23.5t-29.5 20t-40 13.5t-52 5q-32 0 -60.5 -7t-55 -18.5t-52.5 -28t-54 -36.5q-14 -10 -29 -14t-29.5 -3t-26.5 8q-10 7 -18 19t-9 26t3.5 28t14 27.5t22.5 24.5q35 30 74.5 54.5t81.5 42.5 t85.5 28t87.5 10q54 0 91.5 -11.5t63.5 -25.5l125 590q6 29 3 57.5t-19.5 51.5t-49 37.5t-85.5 15.5q-40 0 -73.5 -7.5t-58.5 -20t-41 -27.5q-18 -15 -26 -29q10 -12 17.5 -25t10 -29.5t1.5 -38t-7 -51.5l-79 -369q-4 -16 -12.5 -31t-21 -26t-28 -17.5t-31.5 -6.5h-150 q-16 0 -29 6.5t-21 17.5t-10 25.5zM464 -466q-2 14 2 29q3 16 10.5 29.5t19.5 23.5t26 16t29 6h159q16 0 27.5 -6t19 -16t9.5 -24t-1 -29l-44 -207q-4 -20 -15 -36t-26.5 -28t-34.5 -19t-39 -7t-35.5 7t-26 19t-14.5 28t0 36l28 132h-38q-16 0 -27.5 6t-19 16t-9.5 24z" />
<glyph unicode="&#xe0f;&#xe38;" horiz-adv-x="936" d="M25 -249q-3 17 2 35.5t16 36.5q22 34 48.5 58.5t56.5 40.5t62 24q32 7 66 7q24 0 44.5 -5.5t37 -14.5t29.5 -22t22 -27q14 14 30.5 25.5t35.5 20.5t38.5 14t38.5 5q28 0 47 -9.5t31 -21.5l126 598q6 29 3 57.5t-19.5 51.5t-49 37.5t-85.5 15.5q-40 0 -73.5 -7.5 t-58.5 -20t-41 -27.5q-18 -15 -26 -29q10 -12 17.5 -25t10 -29.5t1.5 -38t-7 -51.5l-79 -369q-4 -16 -12.5 -31t-21 -26t-28 -17.5t-31.5 -6.5h-150q-16 0 -29 6.5t-21 17.5t-10 25.5t1 31.5q4 16 12.5 31t20.5 26t28 17.5t32 6.5h19l62 290q4 18 3 38q-2 20 -13 38 q-10 17 -16 28.5t-6.5 22.5t5.5 23q4 12 16 30q29 44 70.5 85t94.5 72.5t120 50t148 18.5q76 0 131.5 -14t94.5 -38t62.5 -58t34 -73t9.5 -83t-11 -90l-146 -691q-6 -26 -20 -47.5t-34.5 -37t-45 -24.5t-49.5 -9q-27 0 -48 10t-29 32q-4 12 -8 23t-10 19.5t-14 13t-18 4.5 q-18 0 -33.5 -12.5t-26.5 -30.5q-8 -13 -19 -23.5t-24.5 -18.5t-28 -12.5t-29.5 -4.5q-30 0 -50.5 17.5t-24.5 43.5q-3 18 -12.5 30.5t-27.5 12.5q-20 0 -38 -13.5t-30 -31.5q-13 -20 -29.5 -34t-34.5 -20t-36 -6t-35 8q-16 8 -25.5 21t-12.5 30zM464 -466q-2 14 2 29 q3 16 10.5 29.5t19.5 23.5t26 16t29 6h159q16 0 27.5 -6t19 -16t9.5 -24t-1 -29l-44 -207q-4 -20 -15 -36t-26.5 -28t-34.5 -19t-39 -7t-35.5 7t-26 19t-14.5 28t0 36l28 132h-38q-16 0 -27.5 6t-19 16t-9.5 24z" />
<glyph unicode="&#xe0e;&#xe39;" horiz-adv-x="936" d="M46 49.5q-2 14.5 1 31.5q4 16 12.5 31t20.5 26t28 17.5t32 6.5h19l62 290q4 18 3 38q-2 20 -13 38q-10 17 -16 28.5t-6.5 22.5t5.5 23q4 12 16 30q29 44 70.5 85t94.5 72.5t120 50t148 18.5q76 0 131.5 -14t94.5 -38t62.5 -58t34 -73t9.5 -83t-11 -90l-144 -677 q-6 -26 -20 -48.5t-35 -39.5t-46 -27t-51 -10q-28 0 -49 11t-35 29q-9 12 -21.5 23.5t-29.5 20t-40 13.5t-52 5q-32 0 -60.5 -7t-55 -18.5t-52.5 -28t-54 -36.5q-14 -10 -29 -14t-29.5 -3t-26.5 8q-10 7 -18 19t-9 26t3.5 28t14 27.5t22.5 24.5q35 30 74.5 54.5t81.5 42.5 t85.5 28t87.5 10q54 0 91.5 -11.5t63.5 -25.5l125 590q6 29 3 57.5t-19.5 51.5t-49 37.5t-85.5 15.5q-40 0 -73.5 -7.5t-58.5 -20t-41 -27.5q-18 -15 -26 -29q10 -12 17.5 -25t10 -29.5t1.5 -38t-7 -51.5l-79 -369q-4 -16 -12.5 -31t-21 -26t-28 -17.5t-31.5 -6.5h-150 q-16 0 -29 6.5t-21 17.5t-10 25.5zM184.5 -474.5q-2.5 14.5 1.5 31.5q4 16 12 31t20.5 26t28 17.5t31.5 6.5h130q16 0 29 -6.5t20.5 -17.5t10 -25.5t-1.5 -31.5l-10 -51q-7 -32 2.5 -48.5t37.5 -16.5q52 -1 66 65l10 47q4 20 15.5 37.5t27 30t34.5 20t39 7.5t35.5 -7.5 t26 -20t14.5 -30.5q2 -18 -2 -37l-9 -47q-10 -47 -31.5 -88.5t-57 -72.5t-86 -49.5t-118.5 -18.5q-61 0 -101.5 14.5t-64.5 41t-32 63t-2 80.5h-16q-16 0 -29 6.5t-20.5 17.5t-10 25.5z" />
<glyph unicode="&#xe0f;&#xe39;" horiz-adv-x="936" d="M25 -249q-3 17 2 35.5t16 36.5q22 34 48.5 58.5t56.5 40.5t62 24q32 7 66 7q24 0 44.5 -5.5t37 -14.5t29.5 -22t22 -27q14 14 30.5 25.5t35.5 20.5t38.5 14t38.5 5q28 0 47 -9.5t31 -21.5l126 598q6 29 3 57.5t-19.5 51.5t-49 37.5t-85.5 15.5q-40 0 -73.5 -7.5 t-58.5 -20t-41 -27.5q-18 -15 -26 -29q10 -12 17.5 -25t10 -29.5t1.5 -38t-7 -51.5l-79 -369q-4 -16 -12.5 -31t-21 -26t-28 -17.5t-31.5 -6.5h-150q-16 0 -29 6.5t-21 17.5t-10 25.5t1 31.5q4 16 12.5 31t20.5 26t28 17.5t32 6.5h19l62 290q4 18 3 38q-2 20 -13 38 q-10 17 -16 28.5t-6.5 22.5t5.5 23q4 12 16 30q29 44 70.5 85t94.5 72.5t120 50t148 18.5q76 0 131.5 -14t94.5 -38t62.5 -58t34 -73t9.5 -83t-11 -90l-146 -691q-6 -26 -20 -47.5t-34.5 -37t-45 -24.5t-49.5 -9q-27 0 -48 10t-29 32q-4 12 -8 23t-10 19.5t-14 13t-18 4.5 q-18 0 -33.5 -12.5t-26.5 -30.5q-8 -13 -19 -23.5t-24.5 -18.5t-28 -12.5t-29.5 -4.5q-30 0 -50.5 17.5t-24.5 43.5q-3 18 -12.5 30.5t-27.5 12.5q-20 0 -38 -13.5t-30 -31.5q-13 -20 -29.5 -34t-34.5 -20t-36 -6t-35 8q-16 8 -25.5 21t-12.5 30zM184.5 -474.5 q-2.5 14.5 1.5 31.5q4 16 12 31t20.5 26t28 17.5t31.5 6.5h130q16 0 29 -6.5t20.5 -17.5t10 -25.5t-1.5 -31.5l-10 -51q-7 -32 2.5 -48.5t37.5 -16.5q52 -1 66 65l10 47q4 20 15.5 37.5t27 30t34.5 20t39 7.5t35.5 -7.5t26 -20t14.5 -30.5q2 -18 -2 -37l-9 -47 q-10 -47 -31.5 -88.5t-57 -72.5t-86 -49.5t-118.5 -18.5q-61 0 -101.5 14.5t-64.5 41t-32 63t-2 80.5h-16q-16 0 -29 6.5t-20.5 17.5t-10 25.5z" />
<glyph unicode="&#xd;" horiz-adv-x="395" />
<glyph unicode=" "  horiz-adv-x="348" />
<glyph unicode="&#x09;" horiz-adv-x="348" />
<glyph unicode="&#xa0;" horiz-adv-x="348" />
<glyph unicode="!" horiz-adv-x="563" d="M191.5 58.5q-4.5 20.5 0.5 43.5t17.5 43.5t31 35.5t41 24t44.5 9q23 0 41.5 -9t30.5 -24t17 -35.5t-1 -43.5q-5 -23 -18 -43.5t-31.5 -35.5t-40.5 -24t-45 -9t-41.5 9t-30 24t-16 35.5zM286 327l38 377l42 198q11 52 44.5 78.5t85.5 26.5t74 -26.5t10 -78.5l-42 -198 l-122 -377q-5 -14 -12.5 -24t-17.5 -15.5t-21.5 -8t-24.5 -2.5q-14 0 -24 2.5t-17 8t-10.5 15t-2.5 24.5z" />
<glyph unicode="&#x22;" horiz-adv-x="633" d="M264.5 680q-2.5 16 1.5 36l46 214q4 19 13 34.5t22.5 27.5t30 18.5t35.5 6.5q18 0 32.5 -6.5t22.5 -18.5t10.5 -28t-1.5 -34l-45 -214q-4 -19 -13.5 -35.5t-23 -27.5t-29.5 -18q-18 -7 -36 -7q-19 0 -32.5 7t-22 18t-11 27zM506 680q-2 16 2 36l45 214q4 19 13.5 34.5 t22.5 27.5t29.5 18.5t35.5 6.5q18 0 32 -6.5t22.5 -18.5t11 -28t-1.5 -34l-46 -214q-4 -19 -13 -35.5t-22 -27.5t-30 -18t-35 -7q-19 0 -33 7t-22.5 18t-10.5 27z" />
<glyph unicode="#" horiz-adv-x="854" d="M131.5 316q-1.5 12 1.5 25q2 12 8.5 23.5t17 21t25 15t32.5 5.5h75l58 165h-54q-19 0 -31 5.5t-18.5 15t-8 21t1.5 23.5q2 12 8.5 24t17 21.5t25 15t33.5 5.5h75l74 212q6 15 13.5 27.5t19 22.5t26.5 15.5t37 5.5q14 0 25 -4t18.5 -11.5t11 -17.5t-0.5 -24 q-1 -6 -4.5 -17t-9.5 -30l-64 -179h127l75 212q6 15 13 27.5t18.5 22.5t27 15.5t37.5 5.5q14 0 25 -4t18 -11.5t10.5 -17.5t0.5 -24q-1 -6 -4.5 -17t-9.5 -30l-64 -179h55q18 0 30 -5.5t18.5 -15t7.5 -21.5t-1 -24t-9 -23.5t-17 -21t-24 -15t-33 -5.5h-75l-58 -165h54 q19 0 31 -5.5t18.5 -15t7.5 -21t-1 -23.5t-9 -24.5t-17 -21.5t-24.5 -14.5t-33.5 -5.5h-74l-76 -211q-6 -15 -13 -28.5t-18 -22.5t-27 -15t-38 -6q-28 0 -44 15t-10 41q2 6 5 17.5t9 30.5l64 179h-126l-75 -211q-6 -15 -13.5 -28.5t-18.5 -22.5t-27 -15t-37 -6q-14 0 -25 4 t-18.5 11.5t-10.5 18t-1 22.5q2 6 5.5 17.5t9.5 30.5l64 179h-55q-18 0 -30 5.5t-18.5 14.5t-8 21zM438 406h126l59 165h-127z" />
<glyph unicode="$" horiz-adv-x="901" d="M115 187.5q-3 29.5 3 57.5q9 43 36.5 66t67.5 23q28 0 43.5 -8.5t22.5 -22t9 -31.5t4.5 -37t7.5 -37t19 -33t39 -24t67 -11l63 295q-72 14 -126.5 38.5t-88 60.5t-45 82.5t0.5 105.5q16 72 53.5 126.5t89 91.5t113.5 56.5t127 21.5l17 82q2 10 8 19t14 15.5t17 10.5t18 4 q8 0 15.5 -4t12.5 -10.5t7 -15.5t0 -19l-17 -82q26 -1 59 -7t66 -18t63.5 -29.5t52.5 -40.5t32 -52t2 -63q-4 -20 -14.5 -37t-25 -28t-30.5 -17t-34 -6q-22 0 -35.5 11t-23 28t-19.5 37t-24.5 37t-38 29t-61.5 12l-56 -268q43 -10 82.5 -22t73 -28.5t60 -39t41.5 -54t19 -73 t-8 -95.5q-15 -71 -50.5 -125t-86.5 -91t-117 -58q-66 -20 -144 -24l-19 -88q-2 -9 -7.5 -17.5t-13.5 -15.5t-17 -11t-18 -4q-8 0 -15.5 4t-12.5 11t-7.5 15.5t-0.5 17.5l19 88q-58 2 -103 13.5t-79 31t-56 45t-35 54t-16 58zM418 744q-12 -53 16 -85q28 -31 102 -47l54 252 q-35 -1 -64.5 -11.5t-51.5 -26.5t-37 -37.5t-19 -44.5zM526 130q31 2 62.5 10.5t58 25t45.5 42.5q20 24 27 60q8 36 -2.5 60t-30.5 40t-47 26t-53 16z" />
<glyph unicode="%" horiz-adv-x="1388" d="M240.5 599q-1.5 53 11.5 113q8 38 21 75t31 70t42 60t55 47t68 31t81 11q69 0 110.5 -23.5t60.5 -63t19 -92.5t-12 -112q-8 -38 -21.5 -74t-32.5 -68.5t-44 -59.5t-56 -47t-67.5 -31t-80.5 -11q-64 0 -104 22t-60 61t-21.5 92zM390 31q2 12 9 25q7 14 19 28l666 898 q6 8 13 16t16.5 14.5t20.5 11t23 4.5q14 0 24.5 -5.5t18 -14t10 -18.5t0.5 -22t-9 -24q-7 -14 -19 -28l-666 -899q-6 -8 -13 -15.5t-16.5 -14.5t-20 -11t-23.5 -4q-14 0 -24.5 5t-18 13.5t-10 19t-0.5 21.5zM391.5 640.5q-0.5 -18.5 2 -35.5t8.5 -30t18 -21t30 -8 q29 0 50.5 16.5t36.5 41.5t25 54q8 30 14 57q4 17 7 36t4 37.5t-1 36t-9 30.5t-20 20.5t-33 7.5q-26 0 -47 -16.5t-35.5 -42t-24 -54.5t-15.5 -55q-4 -18 -7 -37t-3.5 -37.5zM858 167q-2 52 10 111q12 58 36 112t61 94.5t88 65t120 24.5q46 0 78.5 -11t54.5 -30t34.5 -46 t17 -59t1.5 -69t-12 -77q-12 -57 -36.5 -109.5t-61.5 -92.5t-87 -64t-112 -24q-66 0 -107.5 22.5t-62 61.5t-22.5 91zM1011 208.5q-1 -18.5 1.5 -35.5t9 -30t18.5 -21t32 -8q28 0 49 16t35 41t24 55q10 28 16 56q6 26 9 55.5t-1 55t-17 42t-40 16.5q-20 0 -35.5 -7.5 t-28.5 -21t-23 -30.5t-17.5 -36t-13 -38.5t-9.5 -37.5q-4 -16 -6 -34.5t-3 -37z" />
<glyph unicode="&#x26;" horiz-adv-x="905" d="M83 190q-1 33 6 66q12 56 38.5 101.5t63 83t82 66.5t94.5 51q-14 21 -26.5 43.5t-20.5 46t-10 50t4 57.5q12 60 44.5 105.5t76.5 76.5t96.5 47t107.5 16q54 0 93.5 -10.5t66.5 -28.5t44 -41.5t24.5 -50.5t7.5 -55q1 -28 -5 -53q-8 -41 -29 -78t-51 -69t-66 -57t-77 -43 l101 -162q18 26 38 53t36 47q18 20 39 31t42 11q16 0 30.5 -6t24.5 -17t15 -25t1 -30q-4 -18 -18 -43t-33.5 -50t-42.5 -49q-24 -24 -46 -42l61 -100q14 -23 7 -55q-4 -16 -14 -31.5t-26 -27.5t-36 -20t-44 -8q-12 0 -20.5 3t-15 8.5t-12.5 12.5q-4 7 -10 15l-48 73 q-40 -32 -81 -55t-83 -37t-86 -21t-90 -7q-54 0 -95 11t-70.5 31t-49 46t-28.5 56.5t-10 63.5zM277 274q-6 -30 1.5 -54.5t25.5 -41t44 -25.5t55 -9q54 0 99 20q44 20 84 60l-143 224q-30 -16 -57 -33.5t-49 -38t-37.5 -45.5t-22.5 -57zM495 726q3 -20 12 -37t22 -32t29 -31 q19 10 41.5 23t42.5 30t36 39t22 51q4 18 -0.5 34.5t-15.5 29.5t-28 20t-39 7t-41.5 -7t-35.5 -19t-27 -28t-15 -34q-6 -26 -3 -46z" />
<glyph unicode="'" horiz-adv-x="385" d="M259.5 680q-2.5 16 1.5 36l45 214q4 19 13.5 34.5t23 27.5t30 18.5t35.5 6.5q18 0 32 -6.5t22.5 -18.5t11 -28t-1.5 -34l-46 -214q-4 -19 -13 -35.5t-22 -27.5t-30 -18t-35 -7q-19 0 -33 7t-22.5 18t-11 27z" />
<glyph unicode="(" horiz-adv-x="461" d="M121.5 142q-1.5 120 22.5 234t77 233t128 239q32 50 56.5 86.5t43.5 61t34 39.5t28 23t24.5 10t24.5 2q17 0 30 -5t21.5 -14.5t11.5 -22t0 -26.5q-4 -18 -21 -49t-41.5 -74t-53.5 -97t-58 -117.5t-55 -136t-43 -152.5t-22 -153t-3 -136.5t8 -117t12.5 -96.5t9.5 -75 q4 -32 0 -50q-3 -14 -11.5 -26t-20.5 -21t-27 -15t-33 -6q-13 0 -23.5 3t-19.5 10.5t-18 22t-17.5 39.5t-18 61t-19.5 86q-25 120 -26.5 240z" />
<glyph unicode=")" horiz-adv-x="461" d="M-2 -252q4 18 21 50t41 75t53.5 96.5t58 117t54.5 135.5q26 74 43 154t22 152.5t3 136t-8 117.5t-12.5 97t-10 74t0.5 49q3 14 11.5 26.5t20.5 22t27.5 14.5t32.5 5q13 0 23.5 -2t19.5 -10t18 -23t17.5 -39.5t17.5 -61t20 -86.5q25 -120 26.5 -239t-22.5 -233t-77 -234 t-128 -240q-32 -50 -56.5 -86t-43.5 -61t-34 -39.5t-28 -22t-24 -10.5t-25 -3q-17 0 -29.5 6t-21 15t-11.5 21t0 26z" />
<glyph unicode="*" horiz-adv-x="569" d="M208 850q4 16 13 28t19.5 20t21.5 12q10 4 18 4q7 0 17.5 -3t17.5 -6l95 -37l24 118q7 31 26.5 47.5t47.5 16.5t40 -17t6 -47l-26 -118l111 37q9 4 20 6.5t19 2.5t17 -4t16 -12t11 -20t0 -28q-10 -40 -62 -56q-31 -8 -61.5 -17t-60.5 -17l57 -104q4 -9 7.5 -18.5 t0.5 -21.5q-4 -18 -14 -30t-21.5 -18.5t-23 -9t-17.5 -2.5q-15 0 -27 6t-16 17q-13 28 -26.5 56.5t-25.5 56.5q-25 -28 -49.5 -56t-50.5 -57q-10 -11 -24 -17t-28 -6q-6 0 -17 2.5t-20 9t-14 18.5t-1 30q2 12 9.5 22t16.5 18l102 104l-110 34q-48 16 -38 56z" />
<glyph unicode="+" horiz-adv-x="833" d="M116 366q-4 14 0 30q8 37 38 58q30 22 74 22h208l45 210q4 21 13.5 38.5t23 30t30 19.5t35.5 7t32.5 -7t21.5 -19.5t9.5 -30.5t-2.5 -38l-44 -210h208q22 0 38 -5.5t26 -16t14 -25.5t0 -33q-8 -37 -38 -58q-30 -22 -74 -22h-208l-45 -210q-4 -21 -13.5 -38.5t-23 -30 t-30 -19.5t-35.5 -7t-32.5 7t-21.5 19.5t-9.5 30t2.5 38.5l44 210h-208q-22 0 -38 7t-26 18t-14 25z" />
<glyph unicode="," horiz-adv-x="426" d="M54 -178q3 14 14.5 24t27.5 20t36 21t39.5 27t37 39t29.5 57q-22 -12 -50 -12q-24 0 -40 8.5t-25 23t-11.5 33.5t1.5 39q5 23 18 43.5t31.5 35.5t40.5 24t45 9q33 0 55.5 -11t35 -31t15 -49t-5.5 -63q-8 -36 -20 -66t-27 -55t-33 -46q-16 -21 -36 -38 q-13 -12 -30.5 -24.5t-37 -23.5t-38.5 -18q-18 -7 -34 -7q-22 0 -32 12t-6 28z" />
<glyph unicode="-" horiz-adv-x="669" d="M124 359q-4 15 0 37t15 37.5t25.5 25t32 13.5t37.5 4h402q19 0 35.5 -4t26.5 -13.5t14 -25t0 -37.5t-15 -37t-25.5 -25t-32 -14t-37.5 -4h-402q-20 0 -36 4t-26 14t-14 25z" />
<glyph unicode="." horiz-adv-x="426" d="M121.5 64q-4.5 20 0.5 44t18.5 44t31.5 36t41 24.5t46 8.5q24 0 42.5 -8.5t30.5 -24.5t16.5 -36t-0.5 -44t-18.5 -44t-31.5 -36t-41 -24.5t-46 -8.5q-24 0 -42.5 8.5t-30.5 24.5t-16.5 36z" />
<glyph unicode="/" horiz-adv-x="557" d="M28 48q2 12 8.5 24t13.5 23l538 885q5 8 12.5 19t18.5 19.5t26 14t37 5.5q13 0 25.5 -5t22 -14t14 -22t0.5 -31q-2 -12 -8 -23t-14 -23l-538 -886q-6 -8 -13 -18t-18 -19t-26 -14.5t-37 -5.5q-13 0 -25.5 4.5t-21.5 14t-14 23t-1 29.5z" />
<glyph unicode="0" horiz-adv-x="813" d="M120 231q-2 41 1.5 85t11 88t16.5 86q12 53 27.5 111t39.5 114t58 106.5t82 88.5t112 61t148 23q64 0 110.5 -13t79 -36t52.5 -55t30 -69t12 -78.5t-1.5 -84.5t-11 -85.5t-15.5 -82.5q-12 -56 -28 -115.5t-40 -115.5t-58 -106.5t-82.5 -87.5t-113 -59t-148.5 -22 q-63 0 -109.5 12t-78.5 35t-52 54t-30 68t-12 78zM332 281.5q2 -33.5 13 -59.5t34 -42t61 -16t68 16t53 42t39.5 59.5t29 70t20.5 72.5t15 66q6 30 12.5 65t9.5 71t1 69t-14 59t-35 41.5t-61 15.5t-67 -15.5t-52 -41.5t-39 -59t-28.5 -69t-21 -71t-14.5 -65t-13 -66 t-10 -72.5t-1 -70z" />
<glyph unicode="1" horiz-adv-x="813" d="M252 706q4 18 12 32t21.5 23t33.5 16q19 7 47 11l53 12q40 8 66.5 24.5t46.5 37t35 41.5t31 39t36 29t48 11q16 0 30 -4t22.5 -14.5t11.5 -28.5q2 -17 -4 -45l-166 -783q-6 -26 -16 -48.5t-25.5 -38t-37 -24t-49.5 -8.5t-46 8.5t-26.5 24t-9 37.5t5.5 49l120 565 q-30 -11 -58 -19t-52 -12.5t-44 -6.5t-34 -2q-34 0 -48 16t-4 58z" />
<glyph unicode="2" horiz-adv-x="813" d="M67 66.5q-3 18.5 1 36.5q16 74 97 155q81 80 226 164q54 30 95.5 54.5t74.5 45t56.5 38.5t40 38t27 42t16.5 51q8 34 1.5 59t-23 41.5t-40.5 24.5q-23 8 -51 8q-32 0 -61 -7.5t-55 -25t-48.5 -45.5t-42.5 -70q-9 -20 -18.5 -34t-21 -24t-26.5 -15t-36 -5q-20 0 -37.5 5 t-28.5 16t-15 28.5t2 43.5q9 42 30.5 81t52 72.5t69 60.5t83 46t93 29.5t98.5 10.5q81 0 139.5 -24t94.5 -64.5t48.5 -92.5t0.5 -110q-14 -67 -39.5 -114.5t-62 -83.5t-85 -66t-108.5 -61q-64 -34 -116 -61.5t-91 -51.5t-64 -45t-36 -41h407q19 0 34 -5t24.5 -16t13.5 -27 t-2 -40q-10 -47 -41 -67.5t-77 -20.5h-508q-30 0 -49 9t-29 24t-13 33.5z" />
<glyph unicode="3" horiz-adv-x="813" d="M98 176.5q-2 24.5 2 44.5q4 22 15.5 39.5t27 30.5t34.5 20t41 7q23 0 36 -7t21 -19t12.5 -26.5t9.5 -30t13 -30.5t22 -26.5t36.5 -18.5t57.5 -7q38 0 69 10.5t53.5 29.5t37.5 45.5t22 58.5q5 24 4.5 45.5t-10.5 37.5t-30 27t-55 15q-14 2 -32.5 4t-34.5 10t-25.5 22 t-4.5 38q6 27 17 43.5t28 26.5t40 15t53 6q52 3 81.5 31t39.5 76q6 31 0.5 53.5t-20.5 36.5t-37 20.5t-50 6.5q-40 0 -68 -11.5t-48 -28.5t-36 -36.5t-32.5 -36.5t-35.5 -28.5t-46 -11.5q-18 0 -33 4.5t-26 14t-15 25.5t1 40q9 42 31 76t52 60.5t67 46t76 32.5t79 19t75 6 q58 0 102.5 -11t76.5 -30t52 -44t30 -55t11 -62t-7 -66q-14 -66 -53 -114t-103 -80q36 -11 59 -31.5t35 -48.5t13 -62t-7 -73q-18 -82 -60 -142.5t-100.5 -100.5t-129.5 -60q-70 -20 -146 -20q-64 0 -111 12.5t-80 33t-54 45.5t-31 52t-12 51.5z" />
<glyph unicode="4" horiz-adv-x="813" d="M84 285q-2 19 2 35q6 27 16 45.5t26 35.5l535 543q20 21 43.5 30t53.5 9q28 0 45 -7.5t27 -20.5t12 -31q0 -18 -4 -40l-106 -502h68q17 0 29.5 -7t20.5 -18t10 -26t-2 -33q-4 -17 -12 -32t-21 -26.5t-28 -18t-33 -6.5h-68l-28 -131q-4 -22 -13 -40t-23.5 -30t-35 -19 t-46.5 -7t-43 7t-26 19t-11 30t3 40l28 131h-337q-26 0 -43 10.5t-27 25.5t-12 34zM308 382h230l64 301h-2z" />
<glyph unicode="5" horiz-adv-x="813" d="M83.5 142q-3.5 22 0.5 40q4 21 15.5 39t28 30.5t36.5 20t42 7.5t35 -10t23.5 -25.5t21 -33t26 -33t39 -25.5t61.5 -10q40 0 76.5 15.5t65.5 41t49 57.5q19 32 27 66q10 45 2 77t-29.5 52.5t-54 29.5t-72.5 9q-42 0 -73 -11t-57 -23.5t-50 -23.5q-24 -10 -50 -10 q-38 0 -55.5 14t-21 38t3.5 54t19 61l114 299q6 18 18 34t26 28t31 19.5t35 7.5h421q20 0 35.5 -5t26 -15.5t14 -27.5t-2.5 -41q-5 -24 -15.5 -40.5t-24.5 -27t-32 -15.5t-36 -5h-358l-84 -211l4 -3q45 33 99.5 49t108.5 16q66 0 122 -19.5t94 -58.5t52 -99t-2 -142 q-18 -85 -61 -150t-104 -109.5t-137 -67.5t-160 -23q-61 0 -107.5 10t-80 26t-55.5 37t-34 43t-15.5 44z" />
<glyph unicode="6" horiz-adv-x="813" d="M120 323q4 55 16 110q33 154 84 261t118.5 173.5t149.5 95.5t178 29q60 0 107 -16t77.5 -42t43.5 -58q12 -32 6 -64q-4 -19 -14 -35.5t-24 -28.5t-31.5 -19t-35.5 -7q-22 0 -36.5 9t-25.5 22t-20 28.5t-21.5 29t-30.5 22.5q-17 9 -45 9q-53 0 -95.5 -24t-73.5 -63 t-52 -87t-31 -96l-5 -24q27 22 54 38t55 27.5t59 17t65 5.5q76 0 130 -24t85.5 -66t40 -98t-4.5 -120q-18 -86 -59.5 -150.5t-98.5 -107.5t-126 -64.5t-143 -21.5q-72 0 -125 18t-88 49.5t-54 74t-26 92.5t-3 105zM318 243q4 -32 20 -54.5t43 -34.5t65 -12q37 0 68.5 12 t56.5 34.5t43 54.5t26 72q10 44 5 76.5t-22 53.5t-44 31t-61 10q-33 0 -64.5 -11t-57.5 -33t-45.5 -54t-28.5 -73q-8 -40 -4 -72z" />
<glyph unicode="7" horiz-adv-x="813" d="M214.5 46q-0.5 20 5.5 42q6 26 21 64t39 83t54 96t65.5 103.5t74 105t79 100t81 89t79.5 71.5h-428q-18 0 -32.5 5t-24.5 16t-13 27t2 40t15 41t24.5 27.5t32 15.5t37.5 5h550q20 0 36 -4.5t26 -16.5t13 -31t-3 -49q-4 -21 -18 -40t-36 -41t-52 -49.5t-65.5 -66.5 t-76.5 -91t-86.5 -123t-94.5 -163t-100 -210q-13 -31 -25 -51.5t-26 -33.5t-31 -19t-41 -6q-30 0 -47 8t-25.5 22t-9 34z" />
<glyph unicode="8" horiz-adv-x="813" d="M100.5 190q-5.5 46 6.5 105q8 40 25.5 76t43 65.5t59 51.5t73.5 34q-26 14 -44.5 36t-29 48.5t-13 57.5t4.5 64q12 58 45.5 106.5t84 84t117 55.5t144.5 20t135.5 -20t93.5 -55.5t48.5 -84t0.5 -106.5q-7 -33 -22 -64t-37 -57.5t-50 -48.5t-60 -36q36 -12 59.5 -34 t36.5 -51.5t15 -64.5q1 -36 -7 -77q-12 -59 -37 -105t-59 -81t-74 -59t-83.5 -39t-88 -22t-86.5 -7t-83 7t-78 22t-67.5 39t-49 59t-24 81zM302 229.5q6 -28.5 24 -48t46 -29.5t64 -10t68 10t58 29.5t44 48t26 64.5q5 22 2.5 49.5t-16.5 52t-42 40.5t-74 16t-81 -16 t-59 -40.5t-38.5 -52t-19.5 -49.5q-8 -36 -2 -64.5zM411.5 657q6.5 -24 22.5 -39.5t41 -23.5t55 -8t58.5 8t51.5 23.5t39.5 39.5t22.5 57q6 31 0.5 55t-21.5 40.5t-40.5 24.5t-55.5 8q-30 0 -58.5 -8t-51.5 -24.5t-40 -40.5t-23 -55q-7 -33 -0.5 -57z" />
<glyph unicode="9" horiz-adv-x="813" d="M124 164q4 18 14 34.5t24 29t31.5 19.5t35.5 7q22 0 36.5 -9t25.5 -22t20 -29t21.5 -29t30 -22t45.5 -9q53 0 95.5 24t73.5 62.5t52 86.5t31 96l5 25q-26 -22 -53 -38.5t-55.5 -28t-58.5 -17.5q-32 -5 -66 -5q-76 0 -130 24.5t-85 66.5t-40 98t5 119q18 86 59 150.5 t98 107.5t126 65t143 22q72 0 125 -18t88 -50t54 -74.5t26 -92.5t3 -104.5t-16 -110.5q-33 -154 -84 -261t-118.5 -173t-150 -95t-177.5 -29q-60 0 -107 16t-77 42t-43.5 58t-6.5 64zM379 584q5 -32 22 -53t44 -31.5t61 -10.5q33 0 64.5 11.5t57.5 33.5t46 53t28 73 q8 40 4 72t-20 54.5t-43 34.5t-64 12t-69 -12t-57 -34.5t-43 -54.5t-26 -72q-10 -44 -5 -76z" />
<glyph unicode=":" horiz-adv-x="426" d="M121.5 64q-4.5 20 0.5 44t18.5 44t31.5 36t41 24.5t46 8.5q24 0 42.5 -8.5t30.5 -24.5t16.5 -36t-0.5 -44t-18.5 -44t-31.5 -36t-41 -24.5t-46 -8.5q-24 0 -42.5 8.5t-30.5 24.5t-16.5 36zM230.5 575.5q-4.5 20.5 0.5 44.5t18 44t32 35.5t41 24t46 8.5t42.5 -8.5 t30.5 -24t17 -35.5q4 -20 -1 -44t-18 -44.5t-32 -36t-41 -24.5t-46 -9t-42.5 9t-30.5 24.5t-16.5 36z" />
<glyph unicode=";" horiz-adv-x="426" d="M54 -178q3 14 14.5 24t27.5 20t36 21t39.5 27t37 39t29.5 57q-22 -12 -50 -12q-24 0 -40 8.5t-25 23t-11.5 33.5t1.5 39q5 23 18 43.5t31.5 35.5t40.5 24t45 9q33 0 55.5 -11t35 -31t15 -49t-5.5 -63q-8 -36 -20 -66t-27 -55t-33 -46q-16 -21 -36 -38 q-13 -12 -30.5 -24.5t-37 -23.5t-38.5 -18q-18 -7 -34 -7q-22 0 -32 12t-6 28zM230.5 575.5q-4.5 20.5 0.5 44.5t18 44t32 35.5t41 24t46 8.5t42.5 -8.5t30.5 -24t17 -35.5q4 -20 -1 -44t-18 -44.5t-32 -36t-41 -24.5t-46 -9t-42.5 9t-30.5 24.5t-16.5 36z" />
<glyph unicode="&#x3c;" horiz-adv-x="897" d="M149 410q6 26 24.5 47t42.5 31l607 254q28 12 46.5 16t32.5 4q16 0 29 -5.5t20.5 -15t10 -23.5t-0.5 -30q-2 -12 -6.5 -23.5t-13.5 -22t-24 -21t-38 -19.5l-479 -192l398 -192q20 -9 30 -19t14 -20.5t4 -22.5t-3 -23q-4 -16 -12 -29.5t-20 -23.5t-26.5 -15t-31.5 -5 q-14 0 -31 3t-40 15l-500 255q-19 10 -28 31q-10 20 -5 46z" />
<glyph unicode="=" horiz-adv-x="833" d="M86 226q-4 14 0 30q4 18 14 33t24.5 26t33.5 17q18 6 40 6h580q22 0 38 -6t26 -17t14 -26t0 -33t-14 -33t-25 -26t-34 -17t-40 -6h-579q-22 0 -38 7t-26 19t-14 26zM145 534q4 18 13.5 33t24.5 26t34 17t41 6h578q44 0 65 -22.5t14 -59.5q-4 -18 -14 -33t-24.5 -26 t-33.5 -17t-41 -6h-579q-22 0 -38 7t-26 19t-13.5 26t-0.5 30z" />
<glyph unicode="&#x3e;" horiz-adv-x="897" d="M109 103q-3 13 1 30q2 12 6.5 23.5t13.5 22t23.5 21t38.5 18.5l478 192l-397 192q-20 9 -30 19.5t-14.5 21t-3.5 22t3 23.5q4 16 12 30t20 23.5t27 15t31 5.5q14 0 31 -4t40 -16l499 -254q19 -10 29.5 -31t4.5 -47t-24 -46.5t-42 -30.5l-608 -255q-28 -12 -46.5 -15 t-32.5 -3q-16 0 -28.5 5t-20.5 15t-11 23z" />
<glyph unicode="?" horiz-adv-x="828" d="M249.5 728q-3.5 16 0.5 37q7 34 26 66.5t46.5 61t62 52.5t73 41.5t80.5 27t83 9.5q44 0 84.5 -7t75.5 -21.5t63 -37.5t45 -54t22 -70.5t-5 -88.5q-10 -46 -33 -82t-53 -66t-64 -54t-65 -44t-57 -37t-40 -34q-11 -12 -19.5 -25.5t-16 -26.5t-16 -25t-20 -21t-27 -14 t-37.5 -5t-37 8t-22.5 22t-8.5 30q-2 18 1 34q9 42 33 73t56 58t68 50t67 47t54 51t31 61q12 57 -15.5 88.5t-88.5 31.5q-32 0 -56 -8t-42 -21t-31 -29.5t-25 -34t-23 -33.5t-25 -29t-32 -21t-42 -8q-18 0 -33 5.5t-24.5 16t-13 26.5zM307.5 60.5q-4.5 20.5 0.5 44.5 t18.5 44.5t31.5 36.5t40.5 25t45.5 9q22 0 40.5 -9t30.5 -25t16.5 -37t-1.5 -44q-5 -24 -18 -44.5t-31.5 -36.5t-40.5 -25t-45 -9t-41 9t-30 25t-16.5 36.5z" />
<glyph unicode="@" horiz-adv-x="1192" d="M183.5 361q-5.5 67 10.5 142q16 74 49 140.5t80 123.5t105 103.5t123 79t136 50.5t145 18q65 0 123 -12.5t106 -37t84.5 -62t57.5 -88t25 -114.5q4 -62 -13 -140q-14 -69 -44 -122.5t-68.5 -93.5t-81.5 -68t-85 -44.5t-79.5 -24t-63.5 -7.5q-79 0 -67 70h-2 q-31 -28 -72 -44q-40 -16 -82 -16q-41 0 -73.5 18.5t-53 51t-27.5 76.5q-6 44 4 94q15 70 49 128t78.5 99.5t96.5 64t102 22.5q31 0 54.5 -5t41.5 -15.5t31 -26t23 -37.5l12 24q7 16 16 26t19 15t20.5 7t19.5 2q25 0 39 -15t8 -44q-2 -6 -5 -15.5t-9 -23.5l-92 -237 q-2 -4 -5 -11t-5.5 -14t-5 -13.5t-2.5 -10.5q-2 -12 2 -20q4 -7 18 -7q18 0 42 13.5t47.5 40.5t44 66t30.5 89q18 82 4.5 146t-52.5 106.5t-100.5 64.5t-139.5 22q-52 0 -104 -14t-99 -39.5t-89 -61.5t-76 -79t-58 -93.5t-35 -104.5q-20 -91 -5 -163t56.5 -122t107.5 -77 t148 -27q51 0 90.5 7t70.5 17t54 21.5t40 21t31 16.5t25 7q10 0 18.5 -4t14 -11.5t8 -17t0.5 -20.5q-4 -18 -24 -37t-51 -36.5t-69 -33.5t-79 -27t-81 -18t-74 -7q-74 0 -138.5 17t-117 49t-92.5 77.5t-62.5 102t-28 123.5zM569 420.5q3 -22.5 14 -38t29 -23.5t42 -8 q29 0 56 11.5t48.5 32.5t37.5 49t23 60q6 26 3.5 48t-12.5 37t-28 24q-16 9 -42 9q-30 0 -58 -12t-50 -33t-38 -48t-22 -57q-6 -29 -3 -51.5z" />
<glyph unicode="A" horiz-adv-x="987" d="M66 49q-1 7 -1 15q0 13 3 26q2 9 6.5 20t10 22.5t12 22.5t11.5 19l452 759q22 38 52 52.5t72 14.5h52q19 0 36.5 -3t31.5 -11.5t23 -24t13 -41.5l113 -746q2 -8 3.5 -19t2 -22.5t0.5 -23t-2 -19.5q-4 -20 -16.5 -38t-29.5 -31.5t-38 -21t-43 -7.5q-37 0 -59.5 14 t-28.5 47l-22 162h-362l-94 -162q-18 -33 -45 -47t-68 -14q-23 0 -41 7t-29 19.5t-15 30.5zM440 370h263l-45 390h-2z" />
<glyph unicode="B" horiz-adv-x="973" d="M119 79q-2 12 -2.5 24t2.5 25l157 738q6 28 21.5 52t37 42t48.5 29t54 11h234q33 0 72 -1t77 -5t71.5 -12t55.5 -24q24 -16 43.5 -38t32.5 -50t17 -62q1 -11 2 -23q0 -24 -6 -50q-7 -34 -21.5 -63.5t-34 -55t-44 -46t-50.5 -36.5q30 -16 53 -39.5t36 -53t17 -64.5 q1 -12 1 -24q0 -24 -5 -48q-8 -38 -26 -75.5t-45 -71.5t-62 -63t-78 -50t-93 -33q-48 -12 -104 -12h-360q-26 0 -47.5 10t-35 28t-18.5 41zM346 174h252q36 0 65 10t51 28t37 43t21 54q7 33 -3.5 56.5t-31.5 38t-50 21.5t-61 7h-226zM434 592h187q46 0 79.5 8.5t57.5 24 t38 37.5t20 48q4 17 4 31q0 16 -5 28q-9 23 -29.5 35t-50.5 17q-31 5 -65 5h-186z" />
<glyph unicode="C" horiz-adv-x="1002" d="M146 274q-4 32 -5 67q0 73 19 160q15 70 43.5 136.5t68 124.5t91 106.5t113 83t133 53.5t151.5 19q65 0 118 -12t93.5 -32t69 -47t45.5 -56q16 -29 22 -58q3 -17 4 -33q0 -11 -2 -22q-4 -24 -15 -43t-27 -32.5t-37 -20.5t-44 -7q-25 0 -41 7.5t-27 20.5t-19 29t-17 33 t-21 33t-30 29t-45 20.5t-65 7.5q-54 0 -107 -22.5t-99 -66t-81 -107t-53 -144.5q-12 -60 -12 -114v-15q2 -62 25 -108.5t69.5 -74t120.5 -27.5q45 0 79.5 14t62 34t50.5 45t45 46t44 35t47 16q22 2 40 -4t29.5 -18t16.5 -28t3 -36q-4 -36 -23 -71t-52 -67t-75.5 -59.5 t-92 -47.5t-104 -31.5t-109.5 -11.5q-117 0 -202.5 33.5t-134.5 99t-63 163.5z" />
<glyph unicode="D" horiz-adv-x="999" d="M116 70q-1 8 -1 18q0 20 5 45l155 733q8 38 22.5 63t35.5 41t46 22t54 6h271q60 0 116.5 -9.5t103 -32.5t82 -60.5t55 -93t21.5 -130.5v-13q0 -69 -19 -159q-26 -119 -77 -212t-124.5 -157t-167.5 -97.5t-206 -33.5h-267q-29 0 -51.5 6.5t-36 22t-17.5 41.5zM344 175h194 q44 0 81.5 13.5t69 36.5t56.5 54.5t44 67.5t33 75q14 40 22 78q14 66 14 120v14q-2 60 -22.5 101.5t-61 64t-100.5 22.5h-192z" />
<glyph unicode="E" horiz-adv-x="868" d="M119 79q-2 12 -2.5 24t2.5 25l157 738q6 28 21.5 52t37 42t48.5 29t54 11h521q18 0 33 -7t25 -20t14 -29q2 -8 2 -17t-2 -18q-4 -19 -15 -35t-26 -28.5t-33 -19.5t-36 -7h-439l-47 -219h405q18 0 32.5 -7t24 -19t13 -28t-0.5 -34t-14 -34t-25 -28t-32 -19t-35 -7h-405 l-53 -246h443q18 0 33 -7t24.5 -19t13 -28t-0.5 -35q-4 -18 -14.5 -34.5t-25 -28.5t-32 -19t-35.5 -7h-530q-26 0 -47.5 10t-35 28t-18.5 41z" />
<glyph unicode="F" horiz-adv-x="817" d="M112 51q-2 10 -2 20t2 21l164 774q6 28 21.5 52t37 42t48.5 29t54 11h488q18 0 33.5 -7t25.5 -20q8 -13 12 -29q2 -7 2 -16t-2 -19q-4 -19 -14 -35t-25 -28.5t-33 -19.5t-37 -7h-406l-47 -219h346q18 0 32.5 -7t24 -19t13 -28t-0.5 -34t-14.5 -34t-24.5 -28t-32 -19 t-36 -7h-345l-71 -332q-4 -22 -16.5 -41t-30 -32t-38.5 -21t-44 -8q-22 0 -40 8t-29.5 21t-15.5 32z" />
<glyph unicode="G" horiz-adv-x="1075" d="M135 366q3 65 17 135q27 126 84.5 223.5t138.5 163.5t181 100.5t212 34.5q61 0 110.5 -11.5t86.5 -30.5t64 -44t42 -52t21 -53q2 -13 2 -25t-2 -23q-6 -30 -19.5 -49t-31 -30t-36.5 -16t-37 -5q-20 0 -33 7t-22 18t-16 25t-15 28.5t-20 28.5t-30.5 25t-46 17.5t-67.5 6.5 q-57 0 -111.5 -20t-100 -62.5t-80.5 -109.5q-36 -68 -56 -162q-12 -56 -12 -105q0 -15 1 -29q5 -60 30 -103t72 -66.5t114 -23.5q50 0 95.5 15.5t81.5 44t61.5 68.5t37.5 89h-144q-18 0 -34.5 4t-28.5 14t-18 27t0 43q8 42 35.5 65t69.5 23h272q48 0 64 -24q10 -15 10 -38 q0 -15 -4 -33l-84 -395q-4 -16 -12.5 -30t-20.5 -24t-27 -16t-31 -6q-24 0 -38 7.5t-21 23t-8.5 40t0.5 57.5q-30 -30 -64.5 -55t-73.5 -42.5t-83 -27t-96 -9.5q-86 0 -150 19t-109 54t-72 83t-39 106q-10 46 -10 98q0 12 1 26z" />
<glyph unicode="H" horiz-adv-x="1024" d="M112 51q-2 10 -2 20t2 21l172 815q4 22 17 41t30.5 32.5t39 21.5t43.5 8t40 -8t30 -21.5t16 -32t0 -41.5l-66 -305h410l66 305q4 22 16.5 41t30 32.5t38.5 21.5t44 8q22 0 40 -8t29.5 -21.5t15.5 -32.5q2 -9 2 -19.5t-2 -21.5l-172 -815q-4 -22 -17 -41t-30.5 -32 t-39 -21t-43.5 -8t-40 8t-30 21t-16 32t0 41l70 330h-410l-70 -330q-4 -22 -16.5 -41t-30 -32t-38.5 -21t-44 -8q-22 0 -40 8t-29.5 21t-15.5 32z" />
<glyph unicode="I" horiz-adv-x="426" d="M124 51q-2 9 -2 19q0 11 3 22l173 815q4 22 17 41t30 32.5t39 21.5t44 8t40 -8t30 -22t16 -32q2 -9 1 -18q0 -11 -2 -23l-173 -815q-4 -22 -17 -41t-30 -32t-39 -21t-44 -8t-40 8t-30 21t-16 32z" />
<glyph unicode="J" horiz-adv-x="764" d="M64 254q6 30 18.5 55.5t29 43t38.5 27t46 9.5q30 0 47 -10.5t24.5 -28.5t7 -41t-6.5 -48q-3 -14 -3 -26q0 -29 17 -47q24 -26 84 -26q27 0 51 8.5t43.5 26.5t34.5 46.5t24 67.5l125 587q6 24 17.5 45t29 35.5t39.5 22.5t46 8q25 0 44 -8t30.5 -22.5t14.5 -34.5 q1 -8 1 -17q0 -14 -3 -29l-125 -590q-16 -76 -52 -136.5t-88 -102.5t-120 -64.5t-149 -22.5q-66 0 -112.5 13.5t-77.5 36t-49 51t-25 59.5q-7 28 -7 55q0 30 6 57z" />
<glyph unicode="K" horiz-adv-x="946" d="M110 56q-2 8 -2 17q0 13 4 28l170 798q5 24 17.5 44.5t30.5 35.5t40 23t47 8q26 0 44.5 -8t29.5 -23t14.5 -35t-1.5 -45l-71 -333l449 399q19 17 40.5 29t42.5 16q9 2 19 3q11 1 22 -3q20 -6 36 -25q14 -16 17 -34q1 -7 1 -14q0 -11 -3 -23q-5 -18 -17.5 -36t-30.5 -32 l-292 -252l185 -416q10 -22 16 -44t3 -44t-16 -42t-41 -38t-54 -22q-10 -2 -20 -2q-14 0 -27 4q-21 6 -38 22t-27 40l-170 390l-147 -121l-47 -220q-6 -25 -18 -45t-29 -35t-39 -23t-48 -8t-44.5 8t-30 23t-15.5 35z" />
<glyph unicode="L" horiz-adv-x="792" d="M116 68q-1 8 -1 17q0 19 5 45l163 769q5 24 17 44.5t29 35.5t39 23t48 8t44 -8t29 -23t14 -35t-3 -45l-151 -713h369q24 0 43.5 -6t32.5 -18q12 -10 18 -28q3 -8 3 -18q0 -11 -3 -23q-5 -22 -17.5 -39.5t-30.5 -29.5t-40 -18t-46 -6h-456q-30 0 -52.5 6.5t-36 22 t-17.5 39.5z" />
<glyph unicode="M" horiz-adv-x="1241" d="M110 58q-1 6 -1 11q0 14 4 29l168 791q8 34 23.5 55.5t35.5 33.5t44 16.5t47 4.5h49q28 0 47 -5.5t32 -17.5t20 -31t10 -47l91 -626h3l354 626q15 28 30 47t33 31t40 17.5t49 5.5h45q24 0 46 -4.5t37 -16.5t21 -34q4 -11 4 -24.5t-4 -30.5l-168 -791q-4 -21 -14 -40.5 t-26 -34.5t-38 -24t-50 -9t-45.5 9t-27 24t-10.5 34.5t3 40.5l106 502l32 112l-44 -101l-324 -557q-19 -34 -48 -49t-66 -15q-36 0 -59 15t-27 49l-86 558l-2 102l-17 -115l-107 -501q-4 -21 -14 -40.5t-25 -34.5t-37 -24t-50 -9t-46 9t-27 24t-11 35z" />
<glyph unicode="N" horiz-adv-x="1030" d="M112 98l166 778q14 70 54 101t110 31q34 0 59 -14.5t37 -45.5l254 -630h5l124 582q12 54 44.5 81t82.5 27q48 0 70 -27q15 -18 15 -48q0 -15 -4 -33l-163 -770q-7 -33 -20 -59.5t-32.5 -44t-45.5 -27t-60 -9.5q-26 0 -44 3t-29.5 10t-19 19t-14.5 28l-257 614h-4 l-120 -566q-12 -54 -45 -81t-81 -27q-49 0 -72 26q-14 18 -14 47q0 16 4 35z" />
<glyph unicode="O" horiz-adv-x="1077" d="M147 500q14 68 41.5 133t67.5 123t92 107t114 84t135 55t157 20t149 -20t113 -55t79 -84t46.5 -107t15.5 -123q-1 -65 -15 -133t-42 -133t-67.5 -122.5t-91.5 -106t-114.5 -83.5t-136.5 -54t-158 -19q-83 0 -147.5 19t-112.5 54t-79 83t-46 106q-15 56 -15 119 q0 66 15 137zM354 418q0 -8 -1 -15q-1 -32 5 -62q6 -37 22 -68.5t42 -55t63 -36.5t87 -13t94 13t80 36.5t65 55t52 68.5t38 77t24 82t11 82q1 11 0 21q0 29 -5 56q-7 37 -22.5 69t-42 55.5t-64.5 37t-88 13.5t-93 -13.5t-79 -37t-65 -55.5t-51 -69t-38 -77.5t-24 -81.5 q-8 -42 -10 -82z" />
<glyph unicode="P" horiz-adv-x="921" d="M112 51q-2 10 -2 20t2 21l170 806q4 22 17 41t30.5 32t39 21t43.5 8h345q84 0 142.5 -21t91.5 -61q33 -42 42 -100q3 -21 3 -44q0 -41 -10 -88q-16 -74 -49 -131t-83 -95t-117 -58q-64 -19 -143 -19h-8h-238l-62 -291q-4 -22 -16.5 -41t-30 -32t-38.5 -21t-44 -8 q-22 0 -40 8t-29.5 21t-15.5 32zM424 555h196h8q37 0 67 8q33 9 56.5 26.5t38 42t21.5 54.5q3 17 3 32q0 12 -2 22q-4 24 -20 42t-45 27.5t-71 9.5h-195z" />
<glyph unicode="Q" horiz-adv-x="1077" d="M132 363q0 65 14 133t42 133.5t68 123.5t91 106.5t114 83.5t136 55t155 20q84 0 149 -20t113.5 -55t80 -83.5t46.5 -106.5t15 -123.5t-14 -133.5q-10 -49 -28 -97.5t-42 -93.5t-55 -86t-67 -75l51 -52q12 -12 16.5 -27.5t2.5 -32.5t-11.5 -34.5t-24.5 -31.5 q-15 -15 -32.5 -24.5t-34.5 -11.5q-6 -1 -11 -1q-11 0 -22 3q-18 4 -30 16l-83 76q-56 -23 -115.5 -34.5t-123.5 -11.5q-83 0 -148 19t-112.5 54t-78.5 83t-46 106t-15 123zM353 414v-18q0 -31 5 -59q6 -37 21.5 -68.5t41.5 -55t63.5 -36.5t86.5 -13q12 0 24.5 1t20.5 1 l-18 17q-12 12 -16.5 27.5t-2 32.5t11.5 34.5t25 32.5q15 15 32.5 24.5t34.5 11.5t33 -2t29 -16l67 -62q46 48 72 106t40 124q8 41 10 82v20q0 29 -4 57q-6 37 -22 69t-42.5 55.5t-64.5 36.5q-39 14 -89 14t-92 -13.5t-78 -37t-65 -55.5t-51.5 -69t-38 -78t-24.5 -81 q-8 -41 -10 -82z" />
<glyph unicode="R" horiz-adv-x="973" d="M114 57l-2 16q0 14 4 29l162 766q8 38 22.5 63t34.5 40t45 22t54 7h365q65 0 112.5 -12t80 -32t51.5 -46.5t27 -57t8 -63.5t-8 -65q-8 -40 -27.5 -79t-47.5 -71t-63.5 -55t-77.5 -33v-3q40 -6 63 -26.5t31 -51.5q6 -22 7 -48q1 -11 -1 -23q-4 -40 -14 -83q-8 -32 -9 -57 t-0.5 -45.5t1 -37.5t-1.5 -33q-4 -20 -17 -36t-30 -27.5t-37 -18t-38 -6.5q-30 0 -49.5 9t-31 23.5t-16 32.5t-5 35.5t1.5 33.5t4 26q14 64 17 110q1 10 1 20q0 32 -8 56q-10 30 -37 43.5t-72 13.5h-217l-62 -291q-6 -25 -18 -45.5t-29 -35.5t-39 -23t-46 -8q-25 0 -43.5 8 t-29.5 23t-15 36zM430 559h221q31 0 62 5.5t57 19.5t46 40t30 68q5 23 5 41q0 14 -3 25q-6 26 -24 41t-46 21t-64 6h-227z" />
<glyph unicode="S" horiz-adv-x="921" d="M112 173q-2 12 -1 25q0 16 3 32q4 20 15 37t26 30t33 20q20 7 40 7q22 0 37 -8t25 -21t18.5 -29t18 -33t22.5 -33t34 -29t50 -20.5t72 -7.5t79 11.5t62.5 29.5t43.5 42q16 24 22 50q3 15 2.5 30.5t-8.5 29.5t-24 26t-42 19l-238 65q-72 20 -112.5 50t-59 66t-18.5 76 t8 80q12 56 37 100t60 78t78 58t89.5 39.5t95 23t96.5 7.5q44 0 87 -8.5t83 -24t73 -36.5t55 -47t30 -56q4 -15 4 -30.5t-4 -31.5q-6 -21 -17.5 -37.5t-27.5 -28.5t-35.5 -18t-39.5 -6t-32.5 6.5t-22.5 17t-18 23.5t-18 27t-23.5 27.5t-32.5 24t-47 16.5t-67 6 q-38 0 -70 -8.5t-55.5 -24t-38.5 -37.5t-21 -48t4 -43.5t29.5 -30t45 -20.5t50.5 -14l177 -43q72 -18 115.5 -48.5t64.5 -68.5q20 -38 22 -82v-15q0 -36 -8 -73q-14 -68 -51 -126t-96 -100t-140 -66t-181 -24q-70 0 -126 11.5t-97 30.5t-69.5 44.5t-45 53.5t-20.5 57z" />
<glyph unicode="T" horiz-adv-x="820" d="M198 867q-1 6 -1 12q0 12 3 25q4 20 14 37t25 30t33 21t38 8h624q20 0 35 -8t24 -21t12 -30q1 -7 1 -15q0 -10 -2 -22q-4 -20 -14 -37t-25 -30t-33 -20.5t-38 -7.5h-206l-152 -715q-4 -22 -17 -41.5t-31 -33t-39 -21.5t-44 -8q-22 0 -40.5 8t-30 21.5t-16.5 32.5 q-4 20 0 42l152 715h-201q-20 0 -34.5 7.5t-24 20.5t-12.5 30z" />
<glyph unicode="U" horiz-adv-x="1036" d="M165 199q-5 27 -5 59q0 53 14 117l112 531q5 22 17.5 41t29.5 33t39 22q22 7 44 7t40 -7.5t29.5 -21.5t16 -33t-0.5 -41l-113 -531q-7 -34 -8 -63q0 -58 30 -94q44 -54 151 -54q100 0 161.5 53.5t83.5 157.5l113 531q5 22 17 41t30 33t39 21.5t43 7.5t40.5 -7.5t30 -21.5 t15.5 -33q2 -9 3 -19q0 -11 -3 -22l-112 -531q-21 -98 -64.5 -171.5t-107.5 -122.5t-146 -73t-182 -24q-103 0 -178.5 22.5t-120.5 70.5t-58 122z" />
<glyph unicode="V" horiz-adv-x="891" d="M213 845q-2 15 -2 29q1 16 3 32q4 30 20.5 52t44 36t67.5 14q45 0 66 -23t26 -73l56 -676h3l351 676q26 50 56 73t68 23t60 -13t30 -35q4 -12 4 -26q0 -12 -4 -26q-6 -30 -26 -63l-446 -780q-14 -24 -29.5 -39t-34 -23.5t-40.5 -11.5t-48 -3t-46 3t-35 11.5t-24 23.5 t-13 39z" />
<glyph unicode="W" horiz-adv-x="1268" d="M210 880q0 14 4 28q5 26 18.5 45t31.5 31t38 18t40 6q42 0 63 -20.5t22 -69.5l-6 -642h3l282 636q9 20 21.5 38t29 31t38.5 20q21 7 51 7t50 -6.5t31.5 -19t16.5 -30.5q6 -18 6 -40l14 -636h2l270 642q20 49 49 69.5t69 20.5q19 0 37 -6t30.5 -18t18.5 -31q3 -10 2 -22 q0 -11 -2 -23q-4 -16 -11 -32t-13 -31l-350 -751q-14 -28 -29 -48t-33 -32.5t-41 -18t-53 -5.5q-32 0 -52.5 6.5t-33 20t-17.5 34t-6 48.5l-19 595h-2l-270 -595q-13 -28 -27.5 -48.5t-32.5 -34t-42 -20.5q-22 -6 -54 -6q-30 0 -51 5.5t-34 18t-19 32.5t-8 48l-30 751 q-2 25 -2 35z" />
<glyph unicode="X" horiz-adv-x="810" d="M40 46q-2 10 -2 20q0 12 2 22q4 22 16 43t30 41l300 342l-162 326q-8 18 -9 38t4.5 39t17 36t28 30t37.5 21q22 7 46 7q20 0 33.5 -5.5t23 -13.5t15 -17t8.5 -18l120 -285l241 283q12 14 22.5 24t22 16.5t25.5 10t32 3.5q33 0 55 -14.5t30 -37.5q4 -12 4 -26 q0 -12 -3 -25q-7 -28 -33 -56l-306 -336l161 -346q10 -24 13 -46t-3.5 -42t-21.5 -38t-41 -32t-50 -18q-12 -2 -23 -2t-21 2q-20 4 -35 17t-23 35l-120 300l-238 -290q-20 -24 -44 -40q-22 -14 -46 -20q-14 -3 -27 -4q-10 0 -19 2q-22 4 -39 19t-21 35z" />
<glyph unicode="Y" horiz-adv-x="864" d="M220 924q6 18 18 33.5t29 27t37 18.5t44 7q20 0 34 -4t23.5 -12t16 -20.5t12.5 -28.5l127 -355l277 355q14 18 26.5 30.5t25 20t27 11t31.5 3.5q32 0 54 -14t30 -37q5 -13 5 -28q0 -11 -3 -23q-6 -29 -30 -58l-376 -450l-64 -302q-6 -25 -18 -45.5t-30 -34.5t-40 -22 t-47 -8q-26 0 -44.5 8t-29.5 22t-15 34.5t2 45.5l64 302l-186 450q-8 17 -8 35q0 20 8 39z" />
<glyph unicode="Z" horiz-adv-x="902" d="M50 57q-2 8 -2 19q0 15 4 34q6 26 21 46t34 38l643 618h-397q-24 0 -43.5 6t-32.5 18t-18 29.5t-1 40.5q4 22 17 40t31 29.5t40 17.5t46 6h584q21 0 38.5 -5t29.5 -16.5t16 -31.5q1 -7 1 -16q0 -14 -4 -32q-4 -21 -16.5 -41.5t-31.5 -38.5l-653 -632h442q24 0 43.5 -6 t33 -17.5t18.5 -29t0 -40.5q-5 -22 -18 -39.5t-31 -29.5t-40 -18t-46 -6h-600q-30 0 -53 5.5t-37 18t-18 33.5z" />
<glyph unicode="[" horiz-adv-x="446" d="M49 -252q-5 22 3 60l242 1136q8 38 23 61.5t34 37t41 18.5t45 5h151q20 0 35.5 -4t25 -14t13.5 -24q2 -14 -2 -36t-14 -37t-23.5 -24t-31 -13.5t-36.5 -4.5h-77l-226 -1065h76q20 0 35.5 -4.5t25 -14t13.5 -24.5t-1 -36q-4 -22 -14 -36.5t-24 -24t-31.5 -14t-36.5 -4.5 h-151q-22 0 -43 5t-34 19t-18 38z" />
<glyph unicode="\" horiz-adv-x="557" d="M222 944q0 12 2 23q4 17 13.5 30t23 22.5t27.5 14t28 4.5q22 0 34.5 -5.5t20 -14t10.5 -18.5t5 -19l161 -885q2 -12 3.5 -24t-1.5 -23q-4 -17 -13.5 -30t-23 -22.5t-28 -14.5t-28.5 -5q-22 0 -34.5 5.5t-20 14.5t-10.5 19t-4 19l-161 885z" />
<glyph unicode="]" horiz-adv-x="446" d="M-57 -271q-3 15 1 36t14 36t24 24.5t31 14t37 4.5h76l227 1065h-77q-20 0 -35 4.5t-25 13.5t-14 24q-2 15 2 37q10 42 38 60t68 18h151q22 0 42.5 -5t34 -18.5t18 -37t-3.5 -61.5l-241 -1136q-8 -38 -23 -61t-34.5 -37t-41.5 -19t-44 -5h-152q-20 0 -35 4.5t-25 14 t-13 24.5z" />
<glyph unicode="^" horiz-adv-x="925" d="M205 431q-1 9 1 17q4 15 11 30t21 33l332 436q14 18 27.5 30.5t26.5 19t26 9t27 2.5t26 -2.5t22 -9t18.5 -18.5t14.5 -31l146 -437q6 -18 7 -32.5t-1 -29.5q-2 -8 -7 -17t-15 -16.5t-25 -12.5t-37 -5q-16 0 -29 2.5t-24 8.5t-19 17t-14 29l-110 333l-253 -333 q-14 -18 -26.5 -29t-25.5 -17t-27 -8t-31 -2q-22 0 -35.5 5t-19.5 12t-7 16z" />
<glyph unicode="_" horiz-adv-x="702" d="M-29.5 -161q-1.5 13 1.5 27t10.5 26.5t17.5 22t22 14.5q14 5 28 5h575q14 0 24.5 -5t17 -14.5t8.5 -22t-1 -26.5t-10.5 -27t-17.5 -22t-23 -14.5t-27 -5.5h-576q-14 0 -24.5 5.5t-17 14.5t-8 22z" />
<glyph unicode="`" horiz-adv-x="502" d="M322.5 978q1.5 16 10.5 32t30 31q21 16 40 19.5t35 -2.5t29 -21t24 -34l61 -111q12 -22 10 -46.5t-14.5 -43t-34 -28.5t-47.5 -4q-4 2 -9 4t-11 6t-12.5 11t-14.5 18l-76 109q-10 14 -16 29t-4.5 31z" />
<glyph unicode="a" horiz-adv-x="778" d="M76 189q14 63 44 105t73 68t95 40t110 20l122 14q18 2 34 6t29.5 12t23 21.5t14.5 35.5q4 22 -2.5 37.5t-21.5 26t-36 15t-46 4.5q-36 0 -63.5 -8t-48.5 -20t-38 -27t-32.5 -27t-31.5 -20q-15 -8 -35 -8q-18 0 -32.5 6t-23 17t-11.5 25t0 29q6 30 33.5 62.5t72.5 59.5 t107 44q60 17 136 17q70 0 126 -12t92 -37q38 -25 52 -65q8 -23 8 -50q0 -21 -5 -44l-75 -354q-4 -22 -4 -36t3 -24t8 -17t9 -13.5t7 -14t1 -17.5q-2 -19 -12 -33.5t-24.5 -24t-31.5 -14.5q-18 -6 -36 -6h-8q-32 0 -54 7q-26 8 -40.5 23.5t-19 37.5t1.5 50q-36 -32 -72 -55 t-72 -37t-74 -20t-76 -6q-42 0 -78 14.5t-61 41t-36 64.5q-6 20 -6 43q0 21 5 44zM274 166q4 -14 16 -26t31 -18t43 -6q40 0 75 12t61.5 33t44 47t23.5 54l17 80q-10 -8 -22 -13.5t-24.5 -9t-24.5 -5.5t-20 -4l-74 -12q-32 -4 -57 -12t-43 -19.5t-30 -28t-16 -39.5 q-2 -9 -2 -17.5t2 -15.5z" />
<glyph unicode="b" horiz-adv-x="850" d="M88 78l178 836q11 50 42.5 76t79.5 26t69 -26q14 -18 14 -46q0 -14 -3 -30l-58 -274h3q20 24 46.5 43.5t56.5 32.5t63.5 19.5t68.5 6.5q56 0 98 -14t72.5 -40t49.5 -61q20 -35 28 -77q8 -37 7 -78v-10q-1 -46 -11 -95q-21 -98 -63.5 -170.5t-97.5 -120t-120 -71 t-131 -23.5q-38 0 -71 8t-58 24t-42 40t-23 56h-2l-7 -32q-10 -46 -39 -71q-30 -25 -76 -25q-49 0 -66 24q-12 17 -12 42q0 14 4 30zM328 276q2 -40 17.5 -70.5t45 -49t75.5 -18.5q43 1 79.5 19t64.5 48.5t47 70t29 84.5q5 24 7 50q1 12 1 23q0 15 -2 29q-2 26 -10 48 t-23 39t-39 27.5t-58 10.5q-48 0 -86.5 -20.5t-66.5 -53t-46.5 -73t-26.5 -80.5q-8 -37 -8 -71v-13z" />
<glyph unicode="c" horiz-adv-x="744" d="M98 201q-2 21 -3 42q0 49 12 105q18 88 58 161t98.5 125.5t134.5 82t169 29.5q63 0 113 -17t83 -44t48 -61q10 -23 10 -47q0 -11 -2 -23q-4 -22 -15.5 -39t-26.5 -28t-33 -17t-38 -6q-16 0 -27 5t-18 12t-13 16t-10 19q-6 12 -13 24t-19 21.5t-31 15.5t-48 6t-61 -11 t-62 -38t-55 -72.5t-39 -113.5q-8 -36 -8 -67q0 -9 1 -17q3 -38 18 -65t43 -41.5t68 -14.5q26 0 47 6.5t37.5 16.5t29.5 23q12 13 24 25q10 12 21 22t23 18.5t27 13.5t33 5q20 0 34 -6.5t23 -18t13 -26.5q4 -14 0 -30q-5 -22 -18.5 -46t-35.5 -48t-52 -45t-67.5 -37 t-82.5 -26q-44 -9 -96 -9q-92 0 -155 27.5t-97 76.5t-42 116z" />
<glyph unicode="d" horiz-adv-x="850" d="M104 196q-4 26 -4 55q0 53 14 116q10 48 28.5 95t45 88.5t60.5 76.5t75 61t89 40t104 14q70 0 121 -26t71 -76h4l58 274q11 50 42.5 76t79.5 26t70 -26q14 -17 14 -45q0 -14 -4 -31l-178 -836q-10 -46 -38 -71t-77 -25q-46 0 -65 24q-13 17 -13 44q0 13 3 28l8 32h-3 q-20 -32 -46.5 -56t-58.5 -40t-68.5 -24t-74.5 -8q-66 0 -120.5 23.5t-89.5 71t-47 119.5zM310 276q2 -40 17 -70.5t43 -48.5t71 -19q46 0 83.5 18.5t65.5 49t47 70.5t29 84q7 36 7 72v8q-1 40 -15 73t-43 54q-28 20 -74 20h-5q-34 0 -62 -10.5t-50.5 -27.5t-40 -39.5 t-30.5 -48t-22 -51.5t-14 -50q-8 -36 -8 -68q1 -8 1 -16z" />
<glyph unicode="e" horiz-adv-x="801" d="M110 348q19 88 59.5 161t99 125t133 80.5t162.5 28.5q56 0 101.5 -13t80 -36t58 -54.5t36 -68.5t14.5 -78q0 -8 1 -16q0 -33 -7 -67q-6 -26 -14 -44t-20.5 -30t-30 -17.5t-42.5 -5.5h-443q-4 -20 -4 -38q0 -17 4 -33q6 -32 24 -55t48 -36t72 -13q37 0 64.5 7.5t48.5 18.5 t37 24t31 24t31 18.5t36 7.5q18 0 31 -7t21.5 -18t11 -25.5t0.5 -28.5q-6 -30 -26.5 -55.5t-49 -45.5t-63 -35t-71 -24.5t-71.5 -14t-65 -4.5q-68 0 -119 15t-88 41t-59 62t-32 76q-10 39 -11 81q0 47 11 93zM326 440h343q1 10 1 19q0 23 -6 45q-8 30 -25 51.5t-43 34 t-58 12.5q-36 0 -68 -12t-59 -33t-49 -51q-20 -29 -36 -66z" />
<glyph unicode="f" horiz-adv-x="438" d="M123 39q-1 7 -1 15q0 13 3 28l109 514h-24q-42 0 -57 16t-9 49q7 33 29.5 49.5t64.5 16.5h24l19 91q10 48 35.5 84t60.5 61t77 37t86 12q27 0 49.5 -5t37.5 -17t21 -30q3 -10 3 -22q0 -10 -2 -22q-3 -14 -11 -26t-18 -22t-23 -15t-26 -5q-12 0 -21.5 2t-21.5 2 q-21 0 -33.5 -13t-16.5 -34l-16 -78h38q44 0 63 -15t11 -51t-33 -50.5t-69 -14.5h-38l-109 -514q-6 -25 -17 -43.5t-26.5 -31t-35.5 -19t-42 -6.5t-39.5 6.5t-28 19t-13.5 31.5z" />
<glyph unicode="g" horiz-adv-x="833" d="M56 -148q4 19 14.5 35.5t24.5 28t30.5 18t33.5 6.5q21 0 36 -8t27 -20t23 -25t26 -25t34.5 -20t48.5 -8q46 0 82 12.5t63 40t46 70.5t33 103l8 44h-2q-18 -20 -43 -38.5t-54 -32t-61 -21.5t-62 -8q-81 0 -136.5 25.5t-87.5 71t-40 109.5q-2 17 -2 36q0 49 12 104 q22 100 63 174t96 123t118 73t128 24q75 0 124 -33t65 -91h4l6 26q10 48 38 73t74 25q48 0 65 -25q11 -16 11 -41q0 -14 -4 -32l-128 -601q-20 -94 -61 -162.5t-99.5 -113.5t-130 -66.5t-151.5 -21.5q-58 0 -111 12.5t-91 35.5t-58 55q-14 21 -14 47q0 10 2 21zM310 285 q1 -35 14.5 -64t40.5 -46.5t71 -17.5q34 0 66 12t59.5 37.5t48 64.5t32.5 94q11 50 11 88q0 4 -1 9q-1 41 -14.5 67.5t-39.5 39.5t-62 13q-50 0 -86 -17.5t-63 -47.5t-44 -71.5t-27 -89.5q-7 -30 -7 -60q0 -5 1 -11z" />
<glyph unicode="h" horiz-adv-x="823" d="M88 80l180 844q4 20 15 36t26 27t34 17t38 6q20 0 36 -6t26.5 -17t14.5 -27t0 -36l-59 -279h4q30 30 60.5 50.5t60.5 31.5t60.5 16t61.5 5q80 0 127 -22t69 -62q21 -39 21 -92q0 -57 -15 -126l-78 -366q-4 -21 -16 -37.5t-28.5 -28.5t-36 -18t-39.5 -6t-36 6t-27.5 18 t-16 29t-0.5 37l70 330q10 46 10 79t-10.5 56t-32 34t-56.5 11q-40 0 -71.5 -12t-55.5 -37t-41.5 -65t-29.5 -95l-63 -301q-4 -22 -17 -38t-29 -28t-36 -18t-39 -6q-20 0 -36.5 6.5t-27.5 18t-16 28.5q-3 9 -3 20q0 8 2 17z" />
<glyph unicode="i" horiz-adv-x="344" d="M90 47q-2 8 -2 18t2 21l119 561q4 21 15.5 38t27.5 28.5t36 18t40 6.5q21 0 38 -6.5t28.5 -18t15.5 -28.5t0 -38l-120 -561q-4 -21 -16 -38.5t-28 -30.5t-36 -20t-40 -7q-21 0 -38 7t-27.5 20t-14.5 30zM264 868q-2 9 -2 18.5t2 20.5q4 21 16 39t28.5 32t36.5 22t41 8 t37.5 -8t27.5 -22t15 -32q2 -8 2 -17q0 -11 -3 -22q-4 -21 -16 -39t-28.5 -32t-36.5 -22t-41 -8t-37.5 8t-27 22t-14.5 32z" />
<glyph unicode="j" horiz-adv-x="364" d="M-68 -216q8 38 28 54t52 16h22q14 0 23.5 11t12.5 25l159 750q4 20 12.5 38t23 32t35.5 22q20 8 50 8q29 0 47 -8t26.5 -22t9.5 -32t-4 -38l-155 -729q-12 -54 -31 -94.5t-49 -66.5t-71.5 -39t-97.5 -13q-58 0 -81 22q-15 14 -15 39q0 11 3 25zM284 868q-2 9 -2 18.5 t2 20.5q4 21 16 39t28.5 32t36.5 22t41 8t37.5 -8t27.5 -22t15 -32q2 -8 2 -17q0 -10 -3 -22q-4 -21 -16 -39t-28.5 -32t-36.5 -22t-41 -8t-37.5 8t-27 22t-14.5 32z" />
<glyph unicode="k" horiz-adv-x="735" d="M90 88l176 826q5 24 16 43t26.5 31.5t35.5 19t42 6.5q45 0 66 -26q15 -16 15 -45q0 -13 -3 -29l-97 -458l273 248q18 16 40 27.5t44 11.5q17 0 32.5 -7t26 -19.5t15.5 -28.5q3 -9 3 -20q0 -8 -2 -16q-3 -14 -7 -23t-10 -16t-12.5 -13.5t-14.5 -13.5l-181 -156l148 -280 q2 -4 4 -10t3.5 -14t1.5 -18q-1 -10 -3 -23q-4 -19 -15 -37t-26 -31t-34 -21t-39 -8q-18 0 -31.5 4t-23 11t-15.5 15t-10 16l-130 268l-86 -76l-30 -138q-10 -49 -43 -74.5t-77 -25.5t-66 25q-15 17 -15 46q0 13 3 29z" />
<glyph unicode="l" horiz-adv-x="362" d="M98 47q-2 8 -2 17q0 10 3 22l177 834q4 21 16 37.5t28 28.5t35.5 18t40.5 6t37.5 -6t28.5 -18t16 -29q2 -8 1 -17q0 -10 -2 -20l-177 -834q-4 -21 -16 -38.5t-28 -30.5t-36 -20t-41 -7t-38 7t-28 20t-15 30z" />
<glyph unicode="m" horiz-adv-x="1253" d="M86 56q0 17 4 34l117 551q5 22 15 41t25 32t34 20.5t41 7.5q44 0 63 -28q12 -18 12 -44q0 -13 -3 -29l-5 -26h3q26 30 56.5 53.5t64.5 39.5t70.5 25t74.5 9q26 0 53 -7t50 -21.5t41 -39t24 -59.5q27 30 55.5 53.5t59.5 39.5t66 25t75 9q52 0 96 -13t73 -42t39 -75 q4 -19 5 -42q0 -32 -9 -72l-86 -408q-4 -20 -13 -38.5t-23 -32t-35 -21.5t-50 -8t-46.5 8t-26 21.5t-8.5 32.5q0 18 4 38l76 360q6 27 3.5 50.5t-13.5 41.5t-30.5 29t-49.5 11q-28 0 -56 -12t-52 -33.5t-41 -51t-25 -64.5l-70 -331q-4 -20 -13 -38.5t-23 -32t-35 -21.5 t-50 -8t-46.5 8t-26 21.5t-8.5 32.5q0 18 4 38l76 360q6 27 4 50.5t-12 41.5t-29 29t-48 11q-28 0 -57 -12t-53.5 -33.5t-42.5 -51t-26 -64.5l-70 -331q-4 -20 -12.5 -38.5t-23 -32t-35.5 -21.5t-49 -8q-29 0 -46.5 8t-25.5 22q-10 14 -10 36z" />
<glyph unicode="n" horiz-adv-x="825" d="M87 51v7q0 15 3 31l120 559q10 45 36.5 72t73.5 27q24 0 39 -7t23.5 -20.5t10 -31.5t-3.5 -40l-5 -26q28 28 58 51t64 39t72 26q38 9 80 9q30 0 59 -5.5t55 -17.5t46 -32t32 -49t14 -68v-13q0 -34 -8 -76l-84 -397q-4 -20 -12.5 -38t-23 -31.5t-35 -21.5t-49.5 -8 t-46.5 8t-26 21.5t-9 31.5t3.5 38l76 357q6 30 3 55.5t-15 44t-34 28.5t-54 10q-26 0 -56 -10.5t-57 -30.5t-47.5 -49.5t-28.5 -65.5l-72 -339q-4 -20 -12.5 -38t-22.5 -31.5t-35 -21.5t-51 -8q-29 0 -46.5 8t-25.5 21.5t-9 31.5z" />
<glyph unicode="o" horiz-adv-x="823" d="M107 204q-4 27 -4 56q0 48 11 102q18 87 60 157.5t101 121t134 78t161 27.5t150 -27.5t102 -78t50 -120.5q5 -28 5 -59q0 -46 -11 -99q-18 -87 -60 -157.5t-102 -120.5t-135.5 -77t-161.5 -27q-85 0 -148.5 27t-102 77t-49.5 120zM304 277.5q0 -40.5 13 -72t43 -51 t80 -19.5q52 0 90 19.5t65.5 51t44.5 72.5q18 40 27 84q7 30 9 58q1 13 1 25q0 15 -2 28q-3 25 -12 47t-26 37t-41 24q-26 9 -60 9q-50 0 -88 -19t-64 -51t-43.5 -73t-26.5 -85q-10 -44 -10 -84.5z" />
<glyph unicode="p" horiz-adv-x="850" d="M32 -188l177 837q10 46 38.5 70.5t76.5 24.5q46 0 65 -24q12 -16 12 -41q0 -14 -3 -30l-6 -32h2q20 32 47 56t59 39.5t68 23.5t74 8q66 0 121 -23t90 -71t46 -120q4 -26 4 -54q0 -53 -13 -116q-10 -48 -29 -95t-45 -89t-60 -77t-75 -61t-90 -40t-104 -14 q-70 0 -120.5 26.5t-71.5 75.5h-3l-58 -274q-11 -50 -42.5 -75.5t-80.5 -25.5q-48 0 -69 25q-14 17 -14 43q0 15 4 33zM330 313q-1 -9 -1 -18q0 -17 3 -35q4 -25 13 -47.5t25 -38.5t40 -26q24 -8 57 -8q34 0 62 10t50.5 27t40.5 40t31 48t21.5 51t13.5 50q8 38 8 72v13 q-2 40 -17 70.5t-43 48.5q-30 18 -72 18q-46 0 -83 -18t-65.5 -49t-47.5 -71q-18 -40 -28 -84q-6 -26 -8 -53z" />
<glyph unicode="q" horiz-adv-x="850" d="M101 264q1 48 11 96q21 98 63.5 170t97.5 120t120 71t131 23q38 0 71 -8t58 -23.5t42 -39.5t23 -56h2l6 32q10 46 40 71q30 24 76 24q49 0 66 -24q12 -15 12 -40q0 -14 -4 -31l-178 -837q-11 -50 -42.5 -75.5t-79.5 -25.5t-69 25q-14 18 -14 46q0 14 3 30l58 274h-3 q-42 -49 -103.5 -75.5t-131.5 -26.5q-56 0 -98 14t-72.5 40t-49.5 61t-28 77q-7 38 -7 78v10zM311 316q-1 -12 -1 -23q0 -14 2 -28q2 -25 10 -48t23 -40t39 -27t58 -10q48 0 86.5 20t66.5 53t46 73q19 40 27 80q8 37 8 71v13q-2 40 -17.5 71t-45 49t-75.5 18 q-43 -1 -79.5 -18.5t-64.5 -48t-47 -70.5t-29 -85q-5 -24 -7 -50z" />
<glyph unicode="r" horiz-adv-x="524" d="M87 48v7q0 15 3 31l118 558q5 22 15.5 39.5t25.5 29t32.5 17.5t36.5 6t34 -6t24.5 -17.5t13 -29t-1.5 -39.5l-15 -71h3q15 31 34.5 60.5t44 52t54.5 36.5t66 14q24 0 42 -7t30 -20q13 -13 17 -31q2 -9 2 -19q0 -9 -2 -19q-6 -28 -19 -47t-29 -30.5t-35 -17t-37 -5.5h-24 q-30 0 -57 -11t-50 -37t-42 -68t-33 -104l-50 -234q-4 -20 -12 -38t-22.5 -31t-35.5 -21t-50 -8t-46.5 8t-25.5 21t-9 31z" />
<glyph unicode="s" horiz-adv-x="739" d="M86 168q4 16 11.5 31t20 27t29.5 19t39 7t37 -9.5t28 -23t25.5 -29.5t30 -30t41 -23t58.5 -9q28 0 51 5.5t40 15t28 23.5q11 12 15 28q4 19 -1 32.5t-18 23.5t-33 18q-20 7 -46 14l-114 28q-42 11 -78 25t-59 36.5t-32 56.5q-4 16 -4 36q0 22 5 48q8 41 28 73.5 t47.5 57.5t61 43t70 29t74 16t72.5 5q38 0 75.5 -5t70 -14t59 -22t44.5 -30t26 -37q5 -13 5 -27q0 -8 -2 -17q-4 -18 -12.5 -34t-22.5 -28t-31 -19t-37 -7t-34 7t-25 17t-22 22t-26 22t-35 17t-49 7q-54 0 -88.5 -15t-42.5 -47q-4 -18 2 -29t19 -19t31 -13q20 -5 42 -11 l81 -19q28 -6 56 -14.5t53.5 -21t47 -29t35.5 -38t18.5 -49t-2.5 -63.5q-9 -41 -28.5 -74.5t-47 -59.5t-62 -46t-72 -33t-77.5 -19t-78 -6q-69 0 -127 14t-99 38q-40 26 -60 58q-14 23 -14 49q0 10 2 21z" />
<glyph unicode="t" horiz-adv-x="459" d="M141 662q7 33 29 49t64 16h34l26 125q5 24 16.5 43t27 31t35 18.5t42.5 6.5q45 0 67 -25q15 -17 14 -45q0 -13 -3 -29l-27 -125h60q44 -1 64 -15q14 -10 14 -31q0 -9 -2 -19q-8 -36 -34 -51t-70 -15h-60l-86 -408q-2 -7 -2 -14q0 -32 44 -32h28q33 0 47.5 -17t8.5 -49 q-10 -43 -51 -65.5t-113 -22.5q-54 0 -90 11t-56 33t-25 55q-2 11 -2 23q0 24 7 54l92 432h-34q-42 0 -57 16q-10 11 -10 30q0 9 2 20z" />
<glyph unicode="u" horiz-adv-x="837" d="M120 152v14q0 33 9 75l85 397q4 20 12 38t22.5 31.5t35 21.5t50.5 8q29 0 46.5 -8t26 -21.5t9.5 -31.5t-3 -38l-76 -358q-6 -30 -3.5 -55t14.5 -43t34 -28.5t54 -10.5q26 0 56 10.5t56.5 30.5t47 49t28.5 67l72 338q4 20 12.5 38t23 31.5t35.5 21.5t50 8t47 -8 q18 -7 26 -21q9 -14 9 -36q0 -16 -4 -34l-119 -558q-10 -45 -37 -72.5t-73 -27.5q-24 0 -39.5 7t-24 20t-9.5 31q-1 20 3 42l6 25q-28 -28 -58 -50.5t-64 -39.5t-72 -26t-80 -9q-30 0 -59 5.5t-55 17.5t-46 32t-33 49.5t-15 67.5z" />
<glyph unicode="v" horiz-adv-x="686" d="M148 595q-1 10 -1 20q1 19 5 37q8 26 24 45t39 30.5t51 11.5t44.5 -10t24.5 -23.5t10.5 -27.5t2.5 -22l36 -454h4l229 454q4 8 12.5 22t22.5 27.5t34 23.5t48 10t47 -11.5t27 -31.5q5 -13 5 -29q0 -8 -1 -17q-4 -26 -22 -56l-298 -528q-12 -20 -23 -35t-27 -25t-40 -15 t-62 -5t-59 5.5t-33 16t-16.5 25.5t-7.5 35z" />
<glyph unicode="w" horiz-adv-x="1049" d="M148 590v14q0 21 4 40q6 26 20 46t35 33t49 16h11q19 -1 31 -5q16 -6 26 -19.5t15 -32t5 -40.5l14 -425h3l170 395q12 29 25.5 52.5t30.5 40.5t39 26q22 8 50 8h6q35 0 55 -9t30 -25.5t12.5 -39.5t3.5 -53l4 -395h3l188 425q9 22 20.5 40t26.5 32t34 20q16 6 37 5h7 q29 -2 46 -14.5t23 -32.5q4 -12 4 -26q0 -9 -2 -19q-4 -25 -18 -50l-259 -502q-18 -36 -33 -56.5t-31.5 -32.5t-37.5 -15t-51 -3q-31 0 -50.5 6t-30 19t-15 34t-4.5 50l-15 389h-3l-180 -392q-14 -30 -27 -50t-29 -33t-38 -18t-54 -5q-30 0 -49 3t-30 15t-17 33t-10 56z" />
<glyph unicode="x" horiz-adv-x="641" d="M32 80q2 13 12 28q10 16 28 36l200 224l-108 221q-12 22 -8.5 48t19 49t42.5 38.5t65 15.5q24 0 41 -11t29 -39l83 -190l150 182q16 19 29.5 30.5t26 17.5t24 8t23.5 2q17 0 32 -7t25 -19t15 -28q2 -8 2 -16t-2 -16q-5 -22 -14 -38q-8 -14 -20 -28l-196 -220l106 -228 q6 -12 8 -25t-2 -35q-4 -18 -14 -35t-26 -29.5t-36 -20t-44 -7.5q-16 0 -27 4t-20 12.5t-17 21.5q-8 12 -14 26l-75 183l-175 -208q-14 -16 -36 -27.5t-50 -11.5q-18 0 -34 6.5t-26 19.5q-12 12 -16 29q-2 9 -2 19q0 9 2 18z" />
<glyph unicode="y" horiz-adv-x="690" d="M30 -192q8 40 38 60t71 20h20q10 0 20 1t20.5 7t20.5 19q12 13 22 35l24 50l-112 552q-2 18 -4 31t-2.5 24t0 20t2.5 17q4 20 15 38t27 30.5t35 20t39 7.5q40 0 62 -21t24 -55l52 -422l214 409q9 19 20.5 35t25.5 28t31 19t37 7q26 0 43 -7t27 -17.5t12 -25.5q2 -8 2 -16 q0 -7 -1 -14q-2 -16 -8 -32t-14 -30l-385 -675q-29 -51 -57.5 -89.5t-60.5 -64.5t-69 -39.5t-85 -13.5q-33 0 -55 8t-34.5 20.5t-16.5 29.5q-2 8 -2 16.5t2 17.5z" />
<glyph unicode="z" horiz-adv-x="731" d="M44 48q-1 6 -2 13q0 8 2 17q5 22 15 40t26 32l463 421h-286q-14 0 -27.5 4t-23 13.5t-13.5 24.5t0 36q4 22 15 36.5t24 23.5t29 13q14 4 28 4h472q40 0 56 -24q11 -16 11 -39q0 -11 -3 -24q-4 -16 -16 -33.5t-30 -33.5l-456 -417h326q14 0 28 -4t23.5 -13.5t13.5 -23.5 q3 -14 -1 -36t-14.5 -37t-24 -24t-28.5 -13t-29 -4h-506q-22 0 -37 6.5t-24 17t-11 24.5z" />
<glyph unicode="{" horiz-adv-x="524" d="M101 351q-1 13 1 25q2 13 9 25.5t18 22.5t25.5 16t32.5 6q14 0 27.5 2.5t26.5 12t23 29.5t18 52l70 331q21 100 77.5 146t150.5 46h108q28 0 43 -16.5t9 -48.5q-7 -34 -29.5 -52t-51.5 -18h-35q-31 0 -53.5 -18t-32.5 -64l-70 -324q-7 -32 -19.5 -56t-28.5 -39.5t-34 -25 t-36 -14.5t-35 -7.5t-29 -3.5l-2 -4q12 -1 28 -3t32 -7.5t30 -14.5t24 -25t12.5 -39t-4.5 -57l-70 -324q-4 -22 -2.5 -38t8.5 -26t18.5 -14.5t27.5 -4.5h35q28 0 43 -18t8 -51q-7 -32 -29 -49q-23 -17 -51 -17h-106q-94 0 -131 46t-17 146l71 332q7 33 4.5 52.5t-11 29 t-20.5 12.5q-12 2 -26 2q-18 0 -30 6t-19 16t-8 23z" />
<glyph unicode="|" horiz-adv-x="348" d="M35.5 -253q-3.5 16 0.5 35l263 1241q4 19 14.5 35t25.5 27.5t33 18t38 6.5q19 0 34.5 -6.5t25.5 -18t13.5 -27.5t-0.5 -35l-263 -1241q-4 -19 -15 -35t-26 -27.5t-33 -18t-37 -6.5t-34.5 6.5t-25.5 18t-13.5 27.5z" />
<glyph unicode="}" horiz-adv-x="524" d="M-55 -248q7 33 29 51t50 18h36q31 0 53.5 18.5t32.5 64.5l70 324q7 33 19.5 56.5t28.5 39.5t34 25t36 14.5t34.5 7.5t29.5 3l1 4q-12 1 -28 3.5t-31.5 7.5t-30 14.5t-24 25t-12 38.5t4.5 57l69 324q5 22 3 38t-8.5 26t-18 14t-27.5 4h-36q-28 0 -42.5 18t-7.5 52 q7 32 28.5 48.5t50.5 16.5h107q94 0 131 -46.5t17 -145.5l-71 -331q-7 -33 -4.5 -52.5t11 -29t20.5 -12.5q12 -2 26 -2q18 0 30 -6t19 -16t8 -22t-1 -26q-3 -13 -9.5 -25.5t-17.5 -22.5t-25.5 -16t-32.5 -6q-14 0 -27.5 -2.5t-26.5 -12t-23 -29.5t-18 -52l-70 -332 q-21 -100 -78 -146t-151 -46h-107q-28 0 -43 17t-8 49z" />
<glyph unicode="~" horiz-adv-x="833" d="M119 284q-1 12 2 23q6 30 26.5 62.5t51 58.5t69 42t82.5 16q29 0 56.5 -6.5t53.5 -17t50 -22.5t46 -22t42 -17q18 -7 36 -7t34 6t30 15t27 20t25.5 20t25 15t27.5 6q16 0 26 -6t14.5 -15t5 -21t-1.5 -24q-6 -30 -26.5 -62t-51.5 -58t-72 -42.5t-87 -16.5q-27 0 -53.5 6.5 t-51.5 17.5t-48 22.5t-45 22t-42 17.5q-18 7 -36 7t-34 -6t-30 -15t-27 -20t-25.5 -20t-25 -15t-27.5 -6q-16 0 -26 6t-14.5 15t-5.5 21z" />
<glyph unicode="&#xa2;" horiz-adv-x="817" d="M167 356q-5 62 10 132q16 76 48.5 140t81 113t111.5 79q62 30 140 37l19 87q2 10 7.5 18t13 14t16 9t17.5 3q8 0 15.5 -3t12.5 -9t7 -14t0 -18l-18 -84q54 -4 96 -20.5t69 -41t38 -54.5t5 -62q-4 -20 -14.5 -36t-25 -26t-31.5 -15.5t-35 -5.5q-20 0 -31.5 6.5t-18.5 17.5 t-12.5 24t-13.5 25t-21.5 22t-37.5 14l-87 -413q25 5 42.5 16t31 24t25 27t24.5 25.5t29 18.5q18 8 40 8q18 0 31 -6t21.5 -16t11 -23.5t0.5 -27.5q-6 -29 -27.5 -61.5t-58 -61t-87.5 -48.5t-115 -26l-20 -92q-2 -10 -7.5 -18t-13 -14t-16.5 -9t-17 -3q-17 0 -28 12 q-10 12 -6 32l19 92q-78 5 -129 33t-78.5 73.5t-32.5 105.5zM364 488q-16 -76 3 -126t73 -64l86 406q-24 -6 -48 -21t-46 -41t-40 -64t-28 -90z" />
<glyph unicode="&#xa3;" horiz-adv-x="837" d="M69 39q-1 17 3 37q4 22 19 42t34.5 39t42 39t43.5 43.5t37 51t24 60.5q4 18 3 35.5t-4 32.5h-72q-32 0 -49.5 16.5t-10.5 48.5q6 30 26.5 48t51.5 18h37q-8 16 -12 36t-6 43t0 47q2 23 6 44q9 42 28.5 80t48.5 69.5t65 57t78 43.5t88 27.5t94 9.5q60 0 107 -10t82 -27.5 t60 -40t39 -48.5t18 -53q4 -28 -2 -55q-5 -23 -16.5 -41t-27.5 -30t-36 -18t-42 -6t-35 7t-20.5 19t-11 27t-7.5 30t-11 30t-20 27t-35 19t-56 7q-30 0 -60 -9t-55.5 -26t-44 -42.5t-25.5 -58.5q-4 -18 -4.5 -39t1.5 -42.5t6 -41.5q4 -19 8 -35h148q42 0 60 -16t11 -50 t-31 -49.5t-67 -15.5h-107q1 -8 1.5 -15.5t-1.5 -17.5q-6 -30 -25 -62t-44 -62t-56 -57t-63 -47l2 -3q20 7 38 14.5t37 13.5t40 10t45 4q33 0 59 -4.5t48.5 -9.5t45 -9t48.5 -4q9 0 23 2t29.5 5t29 5.5t22.5 2.5q18 0 31.5 -6.5t21.5 -18.5t10 -28t-2 -34q-6 -31 -25 -53 t-44 -36t-55 -21q-30 -6 -58 -6q-34 0 -69 8t-71.5 18t-76 18t-85.5 8q-41 0 -67.5 -8t-46.5 -18q-10 -4 -19 -9t-17.5 -8.5t-17.5 -6t-19 -2.5q-22 0 -36.5 7.5t-23 20t-10.5 29.5z" />
<glyph unicode="&#xa5;" horiz-adv-x="989" d="M234 303q-2 9 0 21q2 11 8.5 20.5t15 16.5t18.5 11q10 5 22 5h169l9 39l-16 40h-145q-12 0 -20.5 4t-14 11t-7.5 17q-1 10 1 21t8 21t14.5 17t19 11t22.5 4h82l-116 295q-12 30 -6 57.5t25 49.5t48 35t64 13q22 0 36 -7t23 -17.5t13.5 -21.5t6.5 -18l108 -347l256 347 q5 7 14.5 18t22.5 21.5t31 17.5q16 7 38 7q34 0 58 -12.5t34 -34t4 -49.5t-30 -59l-243 -295h83q11 0 19.5 -4t14.5 -11t8 -17t0 -21q-2 -12 -8.5 -21.5t-15 -16.5t-19.5 -11t-22 -4h-145l-32 -40l-8 -39h168q11 0 20.5 -4.5t15 -11.5t7.5 -17q1 -9 -1 -20q-2 -12 -8 -21 t-15 -16.5t-19.5 -11.5t-21.5 -4h-168l-39 -180q-5 -24 -16.5 -44.5t-28 -34.5t-38.5 -22t-48 -8t-44 8t-28.5 22t-13.5 34t2 45l38 180h-168q-12 0 -20.5 4t-14 11.5t-7.5 16.5z" />
<glyph unicode="&#xa9;" horiz-adv-x="1108" d="M126.5 351.5q-4.5 67.5 11.5 142.5q16 72 48.5 139t79 124t104.5 104t123 80.5t135.5 52t141.5 18.5t133.5 -18.5t113 -52t88 -80.5t59.5 -104t26 -124q6 -67 -10 -139q-16 -74 -49 -142t-79.5 -125.5t-104 -104t-122.5 -79.5t-135 -50t-140 -17q-71 0 -134 17t-114 50 t-89 79.5t-60 104t-26.5 125zM263 331q13 -75 54 -129t106 -85t150 -31q54 0 107.5 14t102.5 40t92 62.5t78 82t60 97.5q25 54 37 112t10 110.5t-18 97t-43.5 81t-65.5 62t-85.5 39t-101.5 13.5q-57 0 -111.5 -13.5t-103 -39t-91 -62t-76.5 -81t-59 -97t-37 -110.5 q-18 -88 -5 -163zM389.5 376.5q-8.5 54.5 4.5 116.5q14 64 44.5 118t74 94t98.5 62.5t119 22.5q54 0 92 -15.5t62 -40t33.5 -53.5t3.5 -56q-4 -18 -12.5 -30.5t-19 -20.5t-21 -11.5t-16.5 -3.5q-15 0 -24.5 3.5t-15.5 10.5t-9 15t-5 18q-4 12 -9 23.5t-14.5 21t-26 15.5 t-44.5 6q-29 0 -55.5 -12t-48 -35t-38 -56t-24.5 -73t-6 -73t14 -57t33.5 -37t51.5 -13q24 0 42.5 6t32.5 15t24 21l20 24q8 10 16 19t17.5 16t21 11t25.5 4q25 0 37 -15q13 -15 7 -43q-3 -13 -14 -31t-28.5 -37.5t-41 -39.5t-52.5 -35t-62.5 -24.5t-69.5 -9.5 q-62 0 -108 23t-73 62.5t-35.5 94z" />
<glyph unicode="&#xab;" horiz-adv-x="758" d="M154 332q-6 27 0 57t24 56.5t45 42.5l153 96q12 7 26 14.5t32 7.5q14 0 24.5 -6t17 -15.5t8.5 -22t-1 -26.5q-4 -22 -20.5 -40t-38.5 -31l-127 -76l95 -77q16 -12 25 -30t3 -40q-3 -14 -10.5 -26.5t-17.5 -22t-23 -15.5t-27 -6q-18 0 -29 7t-19 14l-113 97q-20 16 -27 42 zM470 389q6 30 24 56.5t46 42.5l154 96q12 7 25 14.5t32 7.5q14 0 24.5 -6t16.5 -15.5t8.5 -22t-0.5 -26.5q-4 -22 -21 -40t-37 -31l-128 -76l95 -77q16 -12 24.5 -30t4.5 -40q-3 -14 -10.5 -26.5t-18.5 -22t-24 -15.5t-27 -6q-18 0 -28 7q-12 7 -20 14l-112 97 q-20 16 -27 42.5t-1 56.5z" />
<glyph unicode="&#xad;" horiz-adv-x="669" d="M124 359q-4 15 0 37t15 37.5t25.5 25t32 13.5t37.5 4h402q19 0 35.5 -4t26.5 -13.5t14 -25t0 -37.5t-15 -37t-25.5 -25t-32 -14t-37.5 -4h-402q-20 0 -36 4t-26 14t-14 25z" />
<glyph unicode="&#xae;" horiz-adv-x="1108" d="M126.5 351.5q-4.5 67.5 11.5 142.5q16 72 48.5 139t79 124t104.5 104t123 80.5t135.5 52t141.5 18.5t133.5 -18.5t113 -52t88 -80.5t59.5 -104t26 -124q6 -67 -10 -139q-16 -74 -49 -142t-79.5 -125.5t-104 -104t-122.5 -79.5t-135 -50t-140 -17q-71 0 -134 17t-114 50 t-89 79.5t-60 104t-26.5 125zM263 331q13 -75 54 -129t106 -85t150 -31q54 0 107.5 14t102.5 40t92 62.5t78 82t60 97.5q25 54 37 112t10 110.5t-18 97t-43.5 81t-65.5 62t-85.5 39t-101.5 13.5q-57 0 -111.5 -13.5t-103 -39t-91 -62t-76.5 -81t-59 -97t-37 -110.5 q-18 -88 -5 -163zM406.5 246q-2.5 12 1.5 29l90 425q4 16 11.5 28t18 19.5t22.5 11t24 3.5h176q47 0 82.5 -8t57.5 -27t29 -51t-4 -81q-8 -38 -25.5 -67t-39.5 -48.5t-48 -30.5t-50 -12l65 -119q6 -12 8.5 -24.5t0.5 -25t-9 -23.5t-21 -21q-16 -11 -32 -13.5t-29 2.5t-23 15 t-18 24l-91 185h-36l-35 -162q-4 -16 -11 -28.5t-17 -20t-22 -11.5t-25 -4t-23.5 4t-17.5 11.5t-9.5 19.5zM588 536h107q15 0 29 3t26 10t20 19t13 32q4 19 0.5 31.5t-12.5 19t-22 9t-27 2.5h-107z" />
<glyph unicode="&#xbb;" horiz-adv-x="758" d="M122 215.5q-2 12.5 0 26.5q5 22 21.5 40t37.5 30l128 77l-95 76q-16 12 -25 30q-9 19 -4 41q3 14 10.5 26.5t18 22t23.5 15.5t27 6q18 0 29 -7t19 -15l114 -96q20 -16 26 -42q6 -27 0 -57t-24 -56.5t-44 -42.5l-154 -97q-12 -7 -26 -14t-32 -7q-14 0 -24.5 6t-17 15.5 t-8.5 22zM438.5 215.5q-2.5 12.5 1.5 26.5q5 22 21 40t37 30l128 77l-96 76q-16 12 -24 30q-8 19 -4 41q3 14 10.5 26.5t18 22t23.5 15.5t27 6q18 0 29 -7q12 -7 20 -15l112 -96q20 -16 27 -42.5t1 -56.5t-24.5 -56.5t-45.5 -42.5l-154 -97q-12 -7 -26 -14t-32 -7 q-14 0 -24 6t-16.5 15.5t-9 22z" />
<glyph unicode="&#xbc;" horiz-adv-x="1229" d="M235 808q3 14 8.5 23t14 15t21.5 9t31 6l34 5q24 4 41 14t29 23t21.5 27t20 25.5t23.5 19t33 7.5q28 0 40 -12t5 -44l-97 -458q-4 -16 -10 -29.5t-16 -23t-25 -14.5t-35 -5q-38 0 -50.5 20t-5.5 52q18 82 32 149q6 28 11.5 55.5t10 49.5t8.5 37t4 18q-30 -13 -60 -16 t-52 -3t-32 12t-5 38zM323 13q5 21 25 47l686 924q5 6 11.5 13t13.5 13t16 9t20 3t20 -4t15 -10t8 -15t0 -17q-2 -10 -8 -21.5t-16 -24.5l-686 -925q-5 -6 -11.5 -13t-14.5 -12.5t-17 -9t-19 -3.5q-12 0 -20.5 4t-14 10.5t-8 14.5t-0.5 17zM733.5 162q-1.5 10 0.5 20 q4 20 10 31t14 18l321 311q9 9 18 16.5t20 12t23 7t29 2.5q33 0 50 -17t11 -45l-61 -288h33q22 0 32 -15t6 -38q-6 -24 -22 -38.5t-38 -14.5h-34l-15 -72q-2 -13 -7.5 -23.5t-15.5 -18.5t-24 -12t-34 -4t-32.5 4t-19 12t-7.5 18t1 24l16 72h-219q-18 0 -29.5 5.5t-18 14 t-8 18.5zM872 230h158l42 197h-2z" />
<glyph unicode="&#xbd;" horiz-adv-x="1229" d="M235 808q3 14 8.5 23t14 15t21.5 9t31 6l34 5q24 4 41 14t29 23t21.5 27t20 25.5t23.5 19t33 7.5q28 0 40 -12t5 -44l-97 -458q-4 -16 -10 -29.5t-16 -23t-25 -14.5t-35 -5q-38 0 -50.5 20t-5.5 52q18 82 32 149q6 28 11.5 55.5t10 49.5t8.5 37t4 18q-30 -13 -60 -16 t-52 -3t-32 12t-5 38zM293 13q5 21 25 47l686 924q5 6 11.5 13t13.5 13t16 9t20 3t20 -4t15 -10t8 -15t0 -17q-2 -10 -8 -21.5t-16 -24.5l-686 -925q-5 -6 -11.5 -13t-14.5 -12.5t-17 -9t-19 -3.5q-12 0 -20.5 4t-14 10.5t-8 14.5t-0.5 17zM746 43q-2 13 2 27q4 22 18 43.5 t38 44t58 44.5q36 23 82 47q52 27 87 45t57 33t33 32t17 42q3 16 -1.5 28t-15 20.5t-25.5 13.5t-33 5q-36 0 -67.5 -17t-53.5 -54q-6 -12 -12 -20.5t-13 -14t-17 -8.5t-23 -3q-14 0 -25.5 3t-18.5 9.5t-10 17.5t0 25q8 38 33.5 70t62.5 55.5t83 37t96 13.5q53 0 92 -12 t63.5 -34t33.5 -52t1 -64q-8 -40 -22.5 -69t-36 -52t-51.5 -41q-30 -20 -70 -38q-42 -20 -73 -34t-54 -26t-37 -21t-20 -17h239q31 0 45 -15t6 -46q-7 -34 -26.5 -47.5t-50.5 -13.5h-332q-19 0 -31 6t-19 15t-9 22z" />
<glyph unicode="&#xbe;" horiz-adv-x="1229" d="M177.5 505q-1.5 15 0.5 27q6 26 27 41.5t52 15.5q20 0 29.5 -6.5t14.5 -15.5t9 -20t12.5 -20.5t24.5 -16.5q15 -6 45 -6q25 0 45 6t34.5 16t23 23t11.5 27t2 25.5t-7.5 20.5t-20.5 16q-14 6 -36 8q-9 1 -21 3t-22.5 6.5t-16.5 13.5t-3 25q4 18 11.5 29t18.5 17t26 8.5 t34 3.5q30 2 48 18q17 16 23 42q3 14 -1 24t-13.5 17t-23.5 11t-30 4q-26 0 -43 -6t-29.5 -14.5t-22 -19t-19 -18.5t-22 -14t-29.5 -6q-13 0 -24 2.5t-18 8t-10 15.5t0 23q8 38 35 64.5t63.5 44.5t76.5 26t73 8q60 0 99.5 -14t60.5 -36t27 -51t0 -58q-8 -39 -36 -67t-73 -46 l-1 -3q25 -6 41.5 -17.5t24.5 -27.5t9.5 -36.5t-3.5 -43.5q-10 -48 -37 -84t-65 -60t-85 -36t-97 -12q-42 0 -74 7.5t-54 19t-35.5 27t-20.5 31t-8.5 30.5zM380 -4q-2 8 0 17q2 10 8 21.5t16 25.5l686 924q5 6 11.5 13t14 13t16.5 9q10 3 20 3q11 0 19.5 -4t14.5 -10t8 -15 t0 -17q-2 -10 -8 -21.5t-16 -24.5l-686 -925q-5 -6 -11.5 -13t-14.5 -12.5t-17 -9t-19 -3.5q-12 0 -20 4t-14 10.5t-8 14.5zM733.5 162q-1.5 10 0.5 20q4 20 10 31t14 18l321 311q9 9 18 16.5t20 12t23 7t29 2.5q33 0 50 -17t11 -45l-61 -288h33q22 0 32 -15t6 -38 q-6 -24 -22 -38.5t-38 -14.5h-34l-15 -72q-2 -13 -7.5 -23.5t-15.5 -18.5t-24 -12t-34 -4t-32.5 4t-19 12t-7.5 18t1 24l16 72h-219q-18 0 -29.5 5.5t-18 14t-8 18.5zM872 230h158l42 197h-2z" />
<glyph unicode="&#xd7;" horiz-adv-x="807" d="M107 119.5q-3 15.5 1 34.5q3 15 13 28q11 14 25 26l226 188l-146 188q-10 12 -14 25t-1 29q4 19 14 34.5t24.5 27t31.5 18t37 6.5q14 0 26 -8t20 -18l148 -186l227 186q13 10 28 18t29 8q18 0 33.5 -6.5t25 -18t13 -27t-0.5 -34.5q-4 -16 -13.5 -29t-23.5 -25l-227 -188 l147 -188q10 -12 13.5 -25.5t0.5 -28.5q-4 -19 -14 -34.5t-24.5 -27.5t-32 -18t-36.5 -6q-14 0 -26 8q-13 8 -21 18l-147 186l-227 -186q-12 -10 -28 -18t-30 -8q-19 0 -33.5 6t-24.5 18t-13 27.5z" />
<glyph unicode="&#xf7;" horiz-adv-x="833" d="M124 359q-4 15 0 37t15 37.5t25.5 25t32 13.5t37.5 4h568q19 0 35 -4t26.5 -13.5t14.5 -25t0 -37.5t-15 -37t-26 -25t-32.5 -14t-36.5 -4h-568q-20 0 -36 4t-26 14t-14 25zM324 110q5 24 19 46t33.5 38t42 26t45.5 10q24 0 43 -10t31.5 -26t17 -38t0.5 -46 q-4 -22 -18 -41.5t-33 -35t-41.5 -24.5t-45.5 -9t-42.5 8.5t-32.5 23.5t-18.5 35t-0.5 43zM446 684q5 24 19 45t33 37t41.5 25.5t46.5 9.5t43 -9.5t31.5 -25.5t17 -37t0.5 -45q-5 -23 -18.5 -43.5t-33 -36.5t-42 -25t-45.5 -9t-42 9t-32 25t-18.5 36.5t-0.5 43.5z" />
<glyph unicode="&#xe01;" horiz-adv-x="901" d="M110 54q-4 18 0 40l76 358q4 18 2 38q-1 20 -12 38q-10 17 -16 28.5t-6 22.5t5 23t17 30q29 44 69.5 85t94.5 72.5t121 50t147 18.5q76 0 132 -14t95 -38t62 -58t34 -73t10 -83t-11 -90l-86 -406q-4 -22 -17 -40.5t-30 -32t-38 -21t-43 -7.5t-39 7.5t-29 21t-16 32 t0 40.5l90 420q6 29 3 57.5t-20 51.5t-49.5 37.5t-85.5 15.5q-40 0 -73 -7.5t-58 -20t-42 -27.5t-25 -29q21 -24 26 -60q6 -38 -4 -84l-76 -356q-4 -22 -16 -40t-29 -31t-38 -20.5t-42 -7.5q-22 0 -39 7.5t-28.5 20.5t-15.5 31z" />
<glyph unicode="&#xe02;" horiz-adv-x="768" d="M170 723q-4 15 0 33t14 33t23.5 26t30 18t34.5 7h143q18 0 30.5 -7t20.5 -18t12 -26t4 -33l6 -423l191 437q9 21 24.5 37t35 26.5t40.5 14.5t41 0q21 -4 36.5 -15t23 -27t7 -36t-9.5 -41l-281 -588q-14 -32 -33 -59.5t-42 -48t-50 -32t-59 -11.5q-30 0 -52 12t-36.5 32 t-22 48t-7.5 59l-28 531h-30q-18 0 -31 6t-22 18t-13 27z" />
<glyph unicode="&#xe03;" horiz-adv-x="815" d="M153.5 184q-3.5 40 6.5 88q8 34 14 63t15 55t20 49t27 44t39 40.5t53 39.5q11 7 23 15q10 7 21.5 14.5t22.5 15.5q-4 -2 -11 -3l-14 -2t-13 -2q-7 -1 -9 -1q-13 0 -28.5 2t-32.5 7t-34 15t-31 25t-24 36t-12 50q-2 18 3 35.5t17 33t28 27t37 16.5q19 5 36.5 2.5t31 -11 t21.5 -22.5t10 -32q1 -15 9.5 -23.5t21.5 -8.5q14 0 25.5 8.5t20.5 23.5q8 14 19.5 26.5t25.5 21t30 13.5t32 5q20 0 36 -7.5t27 -21t15 -31.5t-1 -38q-14 -55 -29.5 -95.5t-34.5 -73t-44 -59.5t-59 -55q-20 -17 -35 -38t-25 -43.5t-16 -45.5q-8 -24 -12 -45 q-7 -32 -3.5 -56.5t14.5 -40.5t29 -25t43 -9q23 0 44 6.5t38 21t30 37.5t20 55l99 464q4 22 16 40t29 31t38 20.5t42 7.5q22 0 39.5 -7.5t28.5 -20.5t15 -31t0 -40l-101 -478q-16 -76 -53.5 -131t-88.5 -91t-112 -53t-123 -17q-42 0 -81 8t-71 24.5t-57 41t-39.5 57.5 t-18 73z" />
<glyph unicode="&#xe04;" horiz-adv-x="930" d="M98 54q-4 18 0 40l85 402q10 46 27.5 90.5t44 85t63 74.5t85.5 59t110 39t136 14q74 0 129 -14t92.5 -39t59.5 -59t31 -74.5t7.5 -85t-11.5 -90.5l-85 -402q-4 -22 -17 -40t-30 -31t-37 -20.5t-42 -7.5t-39 7.5t-28.5 20.5t-16 31t-0.5 40l90 418q6 29 2.5 58.5 t-19.5 53.5t-46.5 39t-77.5 15q-48 0 -85.5 -15t-65 -39t-44.5 -53.5t-23 -58.5l-17 -78q36 30 74 50t82 31q19 4 36 1.5t29.5 -11.5t20.5 -23t8 -32t-6 -36t-18 -33t-28.5 -25.5t-35.5 -14.5q-50 -9 -89 -29t-67 -49t-46 -67t-28 -84l-4 -18q-4 -22 -16 -40t-29 -31 t-37 -21q-20 -7 -42 -7t-39 7.5t-28 20.5t-15 31z" />
<glyph unicode="&#xe05;" horiz-adv-x="938" d="M98 54q-4 18 0 40l88 421q10 50 29.5 98.5t50 91t74 77.5t103.5 58q10 4 23.5 8t29 5t31 -2t29.5 -13l78 -61l108 61q17 10 32.5 12.5t28.5 1.5t24 -4.5t17 -7.5q51 -22 81 -57t43.5 -77.5t12.5 -91t-12 -99.5l-89 -421q-4 -22 -16.5 -40t-29.5 -31t-37.5 -20.5 t-42.5 -7.5t-39 7.5t-28 20.5t-16 31t0 40l95 448q3 14 5.5 31t2.5 33t-3 30q-3 16 -10 26l-123 -70q-48 -30 -88 0l-96 68q-10 -12 -18 -27t-15 -31t-12 -31t-7 -29l-26 -118q36 30 74 50t82 31q19 4 36 1.5t29.5 -11.5t20.5 -23t8 -32t-6 -36t-18 -33t-29 -26t-35 -14 q-50 -9 -89 -29t-67 -49t-46 -67t-28 -84l-2 -8q-4 -22 -16.5 -40t-29.5 -31t-37.5 -20.5t-42.5 -7.5t-39 7.5t-28 20.5t-15 31z" />
<glyph unicode="&#xe06;" horiz-adv-x="907" d="M122.5 50.5q-4.5 17.5 0.5 38.5l46 216q7 33 13 58.5t13 46.5t17 38.5t25.5 34t37 33t53.5 35.5q32 20 52 33q20 14 34 28q-9 -6 -22.5 -9t-23.5 -3q-13 0 -28.5 2t-32.5 7t-34 15t-31 25t-24 36t-12 50q-2 18 3 35.5t17 33t28 27t37 16.5q19 5 36.5 2.5t31 -11 t21.5 -22.5t10 -32q1 -15 9.5 -23.5t21.5 -8.5q14 0 25.5 9t20.5 23q8 14 20.5 26.5t28 21t32 13.5t32.5 5q20 0 37.5 -7t29 -20t15.5 -31t0 -40l-17 -78q-8 -37 -25 -68t-40.5 -57.5t-50.5 -49.5t-55 -43q-21 -14 -35.5 -26t-24.5 -25t-16.5 -30t-11.5 -43q-7 -32 -0.5 -62 t25.5 -53t51 -37t75 -14q26 0 49.5 8.5t42 24t31.5 37.5q12 22 18 48l100 464q4 22 16 40.5t29 32t38 21t43 7.5t39.5 -7.5t29 -21t15.5 -32.5q4 -18 0 -40l-95 -447q-15 -70 -42 -129t-71 -101.5t-108.5 -65.5t-153.5 -23q-34 0 -63 8t-54 23t-44 34.5t-31 41.5 q-4 -21 -16 -38.5t-29 -30.5t-37 -20.5t-40 -7.5q-21 0 -38 7.5t-28 20.5t-15.5 30.5z" />
<glyph unicode="&#xe07;" horiz-adv-x="682" d="M136 404q-3 20 3 39t18.5 36t30.5 30q16 13 38 19q21 8 41.5 8t36 -7.5t26 -21t14.5 -33.5l42 -296q2 -12 7 -17t15 -5q9 0 16 6q6 6 8 14l106 494h-44q-18 0 -31 6.5t-21 18t-11 27.5q-3 14 1 32t13 33.5t22 27t29 18.5t34 7h172q18 0 31 -7t21 -18.5t11 -27t-1 -33.5 l-118 -554q-12 -58 -39 -100t-64 -68.5t-82 -39t-93 -12.5q-49 0 -83 11t-56.5 33t-34.5 52q-12 32 -18 70z" />
<glyph unicode="&#xe08;" horiz-adv-x="827" d="M187 361.5q-3 15.5 1 33.5t13 33.5t22.5 27.5t30 19t34.5 7h134q18 0 29 -7t18 -19t10 -27.5t5 -33.5l19 -155q14 23 29.5 50.5t32 56t32 57t27.5 53.5t21 46t11 33q14 66 -12 104t-96 38q-46 0 -83 -22t-65 -65q-14 -20 -33.5 -32.5t-41 -17.5t-42.5 -3t-36 11 q-18 10 -27.5 25.5t-12 33.5t4 38t20.5 39q32 40 72 72t87 54.5t100 34.5t111 12q40 0 79 -6t73 -20.5t62 -38t45.5 -57t22 -79t-7.5 -104.5q-9 -42 -32 -92.5t-56.5 -108.5t-75.5 -124.5t-90 -139.5q-14 -22 -34 -40.5t-42 -31t-47 -19.5t-51 -7q-27 0 -50 6.5t-40 19 t-28 31.5q-10 19 -14 43l-34 219h-31q-18 0 -31.5 6.5t-21.5 18.5t-11 27.5z" />
<glyph unicode="&#xe09;" horiz-adv-x="901" d="M126 171.5q-2 58.5 14 129.5l16 74q4 22 16 40t29 31.5t37 20.5t42 7t39.5 -7t29 -20.5t15.5 -32t0 -39.5l-19 -89q-6 -27 -1.5 -48.5t18 -37t35.5 -24t52 -8.5q51 0 92 15.5t71 43t50 65.5q20 36 30 80l30 144q6 28 4 57t-17 52t-45 37t-80 14q-34 0 -62 -5t-49 -15 t-37 -23t-28 -27q-15 -18 -34 -30t-39 -16t-39.5 -1t-34.5 13q-16 11 -24 27.5t-8.5 35.5t6.5 39t23 38q28 33 65 59.5t82.5 46t100 30t116.5 10.5q76 0 132 -14t93 -38t58.5 -58t30 -74t6.5 -84t-12 -90l-88 -414q-4 -21 -16 -38.5t-29 -30.5t-37 -20t-40 -7q-21 0 -38.5 7 t-28 20.5t-15 31.5t0.5 39q-27 -23 -60 -42.5t-68 -33.5t-71 -22q-38 -8 -72 -8q-86 0 -138 23t-77 65.5t-27 101z" />
<glyph unicode="&#xe0a;" horiz-adv-x="807" d="M128 184q-4 40 6 88l14 66q7 32 14.5 57t16 44t19 34.5t23.5 30t29 29.5t36 35q27 26 45.5 45t23.5 39q4 14 -2 22t-20 8q-23 0 -63 -10q-18 -4 -33 -2t-27.5 9t-20 19t-9.5 28t3 32.5t15 30.5t24 24t32 16q22 7 43 11.5t39 7t32.5 3.5t23.5 1q54 0 93 -13t61.5 -40 t26 -66t-16.5 -92q96 18 138 122q8 22 23 39.5t34 29t41 16t42 1.5q22 -4 38 -14.5t24.5 -26t8.5 -36.5q1 -20 -9 -44q-20 -48 -53 -90q-33 -40 -83 -68q26 -18 38 -46t15 -57.5t0 -58t-8 -50.5l-19 -86q-10 -50 -31 -91t-50 -74t-64.5 -57t-74.5 -39.5t-80.5 -23 t-82.5 -7.5q-42 0 -81.5 8t-72.5 24.5t-59 41t-42 57.5t-20 73zM342.5 227.5q4.5 -24.5 17.5 -42t33.5 -26.5t45.5 -9q23 0 45 7t40.5 22t32.5 39t21 56l18 84q8 36 3 66t-21.5 51t-43 33t-61.5 14q-12 -15 -27 -31q-16 -17 -34 -37q-15 -16 -23.5 -28t-14 -24t-9 -25 t-7.5 -29l-14 -64q-6 -32 -1.5 -56.5z" />
<glyph unicode="&#xe0b;" horiz-adv-x="827" d="M154 184q-4 40 6 88q8 34 14 63t15 55t20 49t27 44t39 40.5t53 39.5q12 9 26 17q10 7 21 15.5t19 16.5q-9 -6 -22.5 -9t-23.5 -3q-13 0 -28.5 2t-32.5 7t-34 15t-31 25t-24 36t-12 50q-2 18 3 35.5t17 33t28 27t37 16.5q19 5 36.5 2.5t31 -11t21.5 -22.5t10 -32 q1 -15 9.5 -23.5t21.5 -8.5q14 0 25.5 9t20.5 23q8 14 19.5 26.5t26 21t30 13.5t31.5 5q20 0 37 -7t28 -19.5t14 -30.5t-3 -41q-8 -30 -17 -56t-19 -49q24 4 43 13.5t35 23.5t28 34t22 47q8 21 23 38t34 28.5t40 16t41 1.5q22 -4 37.5 -13.5t24 -25t8.5 -36t-10 -44.5 q-10 -25 -22 -46.5t-28 -41t-37 -37t-48 -31.5q18 -12 30 -29t18.5 -36t8.5 -40t1 -41t-4 -38q-3 -20 -5 -34l-18 -84q-11 -50 -32.5 -91.5t-50.5 -74t-65 -56.5t-75.5 -40t-81.5 -23q-41 -7 -83 -7t-81 8t-72 24.5t-59 41t-42 57.5t-20 73zM373.5 240.5 q4.5 -24.5 17.5 -40.5t32.5 -25t43.5 -9t46.5 6.5t41 21t32 37.5t21.5 55l14 70q7 34 3.5 64t-16.5 53.5t-35 38t-52 16.5q-12 -16 -27 -30t-31 -29q-19 -18 -33.5 -38.5t-25 -43.5t-17.5 -46q-8 -23 -12 -44q-7 -32 -2.5 -56.5z" />
<glyph unicode="&#xe0c;" horiz-adv-x="1333" d="M114.5 49.5q-2.5 14.5 1.5 31.5l78 369q4 18 3 38q-1 22 -13 40q-10 17 -16 28.5t-6 22.5t5 23t17 30q29 44 68.5 85t91.5 72.5t116 50t142 18.5q73 0 126.5 -14t90.5 -38t59 -58t31 -73t7 -83t-11 -90l-27 -130q-10 -44 -7 -81t17 -64.5t40 -43t64 -15.5q20 0 37.5 6 t32 20t25.5 37t18 55l97 458q4 22 17 40t30 32t38 21t43 7t39 -7t28.5 -21t16 -32t0.5 -40l-95 -443q-16 -76 -40.5 -135.5t-63 -100.5t-93.5 -62q-54 -21 -132 -21q-31 0 -59.5 9t-52 24t-41.5 33q-19 19 -29 38q-4 -21 -16 -38.5t-28 -30.5t-36 -20t-42 -7q-21 0 -37.5 7 t-27.5 20t-15 31t0 39l91 427q6 28 3.5 56.5t-17.5 51t-44 37t-76 15.5q-37 0 -66.5 -6.5t-52.5 -18t-39 -26.5q-15 -15 -25 -31q42 -50 22 -144l-61 -286h20q16 0 29 -6.5t20.5 -17.5t10.5 -25.5t-1 -31.5q-4 -16 -12.5 -31t-21 -26t-27.5 -17.5t-32 -6.5h-153 q-16 0 -29 6.5t-20.5 17.5t-10 25.5z" />
<glyph unicode="&#xe0d;" horiz-adv-x="1333" d="M114.5 49.5q-2.5 14.5 1.5 31.5l78 369q4 18 3 38q-1 22 -13 40q-10 17 -16 28.5t-6 22.5t5 23t17 30q29 44 68.5 85t91.5 72.5t116 50t142 18.5q73 0 126.5 -14t90.5 -38t59 -58t31 -73t7 -83t-11 -90l-28 -132q-14 -66 1.5 -102t57.5 -36q38 0 71 18.5t60 50t46 71.5 t29 84l60 288q4 22 17 40t30 32t38 21t43 7t39 -7t28.5 -21t16 -32t0.5 -40l-132 -620q-18 -85 -55 -160.5t-93.5 -131.5t-133 -88t-172.5 -32q-46 0 -88 10t-75.5 31t-58.5 51q-26 32 -38 72q-6 22 -2.5 41.5t13 35.5t25.5 28.5t36 21.5t40 10t37 -5t29 -19t17 -31t15 -32 t24 -23t29 -14t31 -5q46 0 80 15t58 39.5t38 53.5q16 30 22 60l16 81q-42 -31 -91 -49t-103 -18q-80 0 -129 21t-73 61.5t-26 99.5q0 60 16 137l27 129q6 29 3.5 57.5t-17 51.5t-43.5 37q-28 15 -76 16q-34 0 -63 -7t-53 -18.5t-42 -26.5q-18 -14 -28 -28q21 -25 28 -63 q6 -39 -4 -85l-61 -286h20q16 0 29 -6.5t20.5 -17.5t10.5 -25.5t-1 -31.5q-4 -16 -12.5 -31t-21 -26t-27.5 -17.5t-32 -6.5h-153q-16 0 -29 6.5t-20.5 17.5t-10 25.5z" />
<glyph unicode="&#xe0e;" horiz-adv-x="936" d="M46 49.5q-2 14.5 1 31.5q4 16 12.5 31t20.5 26t28 17.5t32 6.5h19l62 290q4 18 3 38q-2 20 -13 38q-10 17 -16 28.5t-6.5 22.5t5.5 23q4 12 16 30q29 44 70.5 85t94.5 72.5t120 50t148 18.5q76 0 131.5 -14t94.5 -38t62.5 -58t34 -73t9.5 -83t-11 -90l-144 -677 q-6 -26 -20 -48.5t-35 -39.5t-46 -27t-51 -10q-28 0 -49 11t-35 29q-9 12 -21.5 23.5t-29.5 20t-40 13.5t-52 5q-32 0 -60.5 -7t-55 -18.5t-52.5 -28t-54 -36.5q-14 -10 -29 -14t-29.5 -3t-26.5 8q-10 7 -18 19t-9 26t3.5 28t14 27.5t22.5 24.5q35 30 74.5 54.5t81.5 42.5 t85.5 28t87.5 10q54 0 91.5 -11.5t63.5 -25.5l125 590q6 29 3 57.5t-19.5 51.5t-49 37.5t-85.5 15.5q-40 0 -73.5 -7.5t-58.5 -20t-41 -27.5q-18 -15 -26 -29q10 -12 17.5 -25t10 -29.5t1.5 -38t-7 -51.5l-79 -369q-4 -16 -12.5 -31t-21 -26t-28 -17.5t-31.5 -6.5h-150 q-16 0 -29 6.5t-21 17.5t-10 25.5z" />
<glyph unicode="&#xe0f;" horiz-adv-x="936" d="M25 -249q-3 17 2 35.5t16 36.5q22 34 48.5 58.5t56.5 40.5t62 24q32 7 66 7q24 0 44.5 -5.5t37 -14.5t29.5 -22t22 -27q14 14 30.5 25.5t35.5 20.5t38.5 14t38.5 5q28 0 47 -9.5t31 -21.5l126 598q6 29 3 57.5t-19.5 51.5t-49 37.5t-85.5 15.5q-40 0 -73.5 -7.5 t-58.5 -20t-41 -27.5q-18 -15 -26 -29q10 -12 17.5 -25t10 -29.5t1.5 -38t-7 -51.5l-79 -369q-4 -16 -12.5 -31t-21 -26t-28 -17.5t-31.5 -6.5h-150q-16 0 -29 6.5t-21 17.5t-10 25.5t1 31.5q4 16 12.5 31t20.5 26t28 17.5t32 6.5h19l62 290q4 18 3 38q-2 20 -13 38 q-10 17 -16 28.5t-6.5 22.5t5.5 23q4 12 16 30q29 44 70.5 85t94.5 72.5t120 50t148 18.5q76 0 131.5 -14t94.5 -38t62.5 -58t34 -73t9.5 -83t-11 -90l-146 -691q-6 -26 -20 -47.5t-34.5 -37t-45 -24.5t-49.5 -9q-27 0 -48 10t-29 32q-4 12 -8 23t-10 19.5t-14 13t-18 4.5 q-18 0 -33.5 -12.5t-26.5 -30.5q-8 -13 -19 -23.5t-24.5 -18.5t-28 -12.5t-29.5 -4.5q-30 0 -50.5 17.5t-24.5 43.5q-3 18 -12.5 30.5t-27.5 12.5q-20 0 -38 -13.5t-30 -31.5q-13 -20 -29.5 -34t-34.5 -20t-36 -6t-35 8q-16 8 -25.5 21t-12.5 30z" />
<glyph unicode="&#xe10;" horiz-adv-x="823" d="M21 -273q1 13 7 28q20 47 46 76t54 44t54 20t48 5q30 -2 55 -15t35 -35q8 9 19 18.5t23 16t25 11t25 4.5q24 0 42 -13t25 -33q4 18 14.5 35t25.5 29t33 19.5t36 7.5t33 -6.5t25 -17.5t14 -27t0 -34l-22 -106q-4 -18 -14 -34t-24.5 -27t-32 -17.5t-35.5 -6.5 q-29 0 -49.5 16.5t-23.5 42.5q-2 18 -11.5 28t-26.5 10q-20 0 -36.5 -15t-26.5 -39q-8 -18 -26 -30.5t-38 -12.5t-33 12.5t-13 31.5q0 24 -9 38.5t-27 14.5t-33 -12.5t-25 -33.5q-6 -14 -17 -25t-24 -17.5t-27 -8.5t-26 2q-13 4 -22.5 12t-13.5 19.5t-3 24.5zM187 361.5 q-3 15.5 1 33.5t13 33.5t22.5 27.5t30 19t34.5 7h134q18 0 29 -7t18 -19t10 -27.5t5 -33.5l19 -155q14 23 29.5 50.5t32 56t32 57t27.5 53.5t21 46t11 33q14 66 -12 104t-96 38q-46 0 -83 -22t-65 -65q-14 -20 -33.5 -32.5t-41 -17.5t-42.5 -3t-36 11q-18 10 -27.5 25.5 t-12 33.5t4 38t20.5 39q32 40 72 72t87 54.5t100 34.5t111 12q32 0 64 -4q33 -4 63 -14q14 5 26.5 16.5t22.5 25.5q14 20 34 33t41 18t41 2.5t37 -13.5q17 -10 26 -27t11 -37t-5 -41t-21 -39q-16 -18 -34 -32.5t-40 -24.5q13 -32 15.5 -73.5t-7.5 -94.5q-9 -42 -31.5 -91.5 t-55.5 -107.5t-74.5 -123t-89.5 -139q-14 -22 -34 -41t-43 -32.5t-48.5 -21t-51.5 -7.5q-27 0 -50 8t-40.5 23t-28.5 35t-15 44l-32 209h-31q-18 0 -31.5 6.5t-21.5 18.5t-11 27.5z" />
<glyph unicode="&#xe11;" horiz-adv-x="907" d="M124 54q-4 18 0 40l40 186q6 32 12.5 56t14 44t17 36t23.5 33t33.5 36t45.5 43q33 30 57 50q23 20 39 34l-12 -4t-12 -3l-12 -2t-9 -1q-13 0 -29 2t-32 7t-32.5 15t-30 25t-22.5 36t-13 50q-2 18 4 35.5t17 33t28 27t37 16.5q19 5 36.5 2.5t30.5 -11t22 -22.5t11 -32 q1 -15 8.5 -23.5t21.5 -8.5t25.5 9t20.5 23q8 14 21 27t28 21.5t32 13.5t33 5q17 0 31.5 -5t25.5 -14t17 -22t8 -29q70 42 120 59.5t82 17.5q47 0 73.5 -14t37.5 -40t9 -62t-12 -82l-121 -570q-4 -22 -16.5 -40t-29.5 -31t-38 -20.5t-43 -7.5t-39 7.5t-29 20.5t-16 31t0 40 l111 522q2 9 4 18.5t2.5 17.5t-1.5 13t-8 5q-8 0 -27.5 -11.5t-46 -30.5t-58.5 -44.5t-66 -55.5q-42 -36 -71 -63t-49 -52.5t-32 -53t-20 -62.5l-42 -201q-4 -22 -17 -40t-30 -31t-37 -21q-20 -7 -42 -7t-39.5 7.5t-29 20.5t-15.5 31z" />
<glyph unicode="&#xe12;" horiz-adv-x="1419" d="M98 53q-6 20 0 45l89 417q10 50 31.5 98.5t54.5 91t79 77.5t106 58q10 4 23 8t29 5t32 -2q14 -3 28 -13l78 -61l108 61q17 10 32.5 12.5t29 1.5t24 -4.5t17.5 -7.5q51 -22 82 -57t46.5 -77.5t16 -91t-9.5 -99.5l-30 -137q-10 -44 -7 -82t17.5 -65t41 -42.5t63.5 -15.5 q20 0 38 6.5t32.5 20t25 36t17.5 56.5l96 448q4 22 16.5 41t30 33t38.5 22.5t43 8.5t39 -8.5t28 -22.5t15 -34q4 -18 0 -40l-92 -434q-16 -76 -40.5 -135.5t-64 -100t-96.5 -62.5t-137 -22q-28 0 -54.5 9t-49 23t-40.5 33t-28 40l-2 -6q-4 -21 -16 -38t-28 -30t-36 -20 t-40 -7q-21 0 -37.5 7t-27.5 20t-15 30t0 39l94 440q8 38 0 71q-6 33 -32 57l-101 -58q-22 -12 -45.5 -13t-44.5 13l-77 60q-38 -25 -60 -58.5t-30 -71.5l-56 -265l136 118h-8q-14 0 -24.5 5t-17 13.5t-9.5 20.5t0 26t10 25t18 20t23 14t26 5h170q16 0 28.5 -6t20.5 -15.5 t11 -22.5q4 -14 0 -29q-3 -14 -10 -28q-6 -14 -18 -24l-408 -357q-20 -18 -45 -27.5t-51 -9.5q-25 0 -44.5 7.5t-32.5 22t-19 34.5z" />
<glyph unicode="&#xe13;" horiz-adv-x="1333" d="M114.5 49.5q-2.5 14.5 1.5 31.5l78 371q4 18 3 38t-13 38q-10 17 -16 28.5t-6 22.5t5 23t17 30q29 44 68.5 85t91.5 72.5t116 50t142 18.5q73 0 126.5 -14t90.5 -38t59 -58t31 -73t7 -83t-11 -90l-45 -210q-7 -33 -5.5 -56t9.5 -36.5t23 -20t37 -6.5q38 0 70 15.5t58 43 t44 64.5q18 38 28 82l79 368q4 22 16.5 40t29.5 32t38 21t43 7t39 -7t29 -21t16 -32t0 -40l-140 -660q-4 -21 -16 -38.5t-29 -30.5t-36.5 -20t-40.5 -7t-38 7t-28.5 20t-15.5 30t0 38l2 6q-20 -22 -45.5 -40.5t-53 -33t-56.5 -23t-58 -8.5q-80 0 -128.5 22t-71 62.5t-23 100 t16.5 135.5l45 210q6 28 3 56.5t-17.5 51t-43.5 36.5q-28 15 -76 16q-34 0 -63 -7t-53 -18.5t-42 -26.5q-18 -14 -28 -28q21 -25 28 -62q6 -38 -4 -84l-61 -288h20q16 0 29 -6.5t20.5 -17.5t10.5 -25.5t-1 -31.5q-4 -16 -12.5 -31t-21 -26t-27.5 -17.5t-32 -6.5h-153 q-16 0 -29 6.5t-20.5 17.5t-10 25.5z" />
<glyph unicode="&#xe14;" horiz-adv-x="962" d="M97.5 51.5q-4.5 19.5 0.5 43.5l86 403q10 46 28 90.5t46 84.5t66.5 74t89 58.5t112.5 38.5q64 14 140 14q75 0 131 -14t95.5 -38.5t63 -58.5t34.5 -74t10.5 -84.5t-10.5 -90.5l-86 -405q-4 -22 -16 -40t-29 -31.5t-38 -20.5t-43 -7t-39 7t-28 20.5t-15 32.5q-4 18 0 39 l89 421q6 29 1.5 58.5t-22.5 52.5t-51 38t-85 15q-53 0 -93.5 -15t-69.5 -38t-46 -52.5t-23 -58.5l-54 -250l142 115h-14q-14 0 -24.5 5t-17 13.5t-9.5 20.5t0 26t10 25t18 20t23 14t26 5h174q16 0 28.5 -6t20.5 -15.5t11 -22.5q4 -14 0 -29q-3 -14 -10 -27q-8 -14 -22 -28 l-414 -354q-19 -17 -43 -27q-23 -10 -49 -10q-24 0 -44 7.5t-33 21.5t-17.5 33.5z" />
<glyph unicode="&#xe15;" horiz-adv-x="962" d="M97.5 51.5q-4.5 19.5 0.5 43.5l89 420q10 50 31.5 98.5t54.5 91t79 77.5t106 58q10 4 23 8t29 5t32 -2q14 -3 28 -13l78 -61l108 61q17 10 32.5 12.5t29 1.5t24 -4.5t17.5 -7.5q51 -22 82 -57t46.5 -77.5t16 -91t-9.5 -99.5l-90 -422q-4 -22 -16 -40t-29 -31.5t-38 -20.5 t-43 -7t-39 7t-28 20.5t-15 32.5q-4 18 0 39l92 439q4 17 4 34.5t-3.5 33.5t-11.5 32q-9 15 -21 27l-100 -58q-22 -11 -45 -12.5t-45 12.5l-78 61q-38 -25 -60 -60.5t-29 -69.5l-57 -268l142 115h-14q-14 0 -24.5 5t-17 13.5t-9.5 20.5t0 26t10 25t18 20t23 14t26 5h174 q16 0 28.5 -6t20.5 -15.5t11 -22.5q4 -14 0 -29q-3 -14 -10 -27q-8 -14 -22 -28l-414 -354q-19 -17 -43 -27q-23 -10 -49 -10q-24 0 -44 7.5t-33 21.5t-17.5 33.5z" />
<glyph unicode="&#xe16;" horiz-adv-x="901" d="M106 49.5q-2 14.5 1 31.5l79 371q3 14 3 29t-4.5 29.5t-15.5 28.5t-31 26q16 36 39.5 71.5t54.5 67.5t69.5 60t85.5 49t102 33t119 12q76 0 132 -14t95 -38t62 -58t34 -73t10 -83t-11 -90l-86 -408q-4 -22 -17 -40t-30 -31.5t-38 -21t-43 -7.5t-39 7.5t-29 21t-16 31.5 t0 40l90 422q6 29 3 57.5t-20 51.5t-49.5 37.5t-85.5 15.5q-40 0 -73 -7.5t-58 -20t-42 -27.5t-25 -29q21 -24 26 -60q4 -38 -6 -84l-61 -288h20q16 0 29 -6.5t20.5 -17.5t10.5 -25.5t-1 -31.5q-4 -16 -12.5 -31t-21 -26t-27.5 -17.5t-32 -6.5h-151q-16 0 -29 6.5t-21 17.5 t-10 25.5z" />
<glyph unicode="&#xe17;" horiz-adv-x="901" d="M96 50q-4 18 1 40l142 669q4 21 15.5 38.5t28 30t36 19.5t41.5 7q21 0 37.5 -7t27.5 -19.5t15 -30t0 -38.5l-3 -13q62 52 127 80q64 27 128 27q86 0 141 -21t84 -60.5t33 -96.5t-10 -129l-98 -456q-4 -22 -16 -40t-29 -31.5t-37 -20.5q-20 -8 -42 -8t-39 7.5t-28.5 21 t-15.5 31.5q-3 18 1 40l96 458q13 60 -13 89t-90 29q-50 0 -91.5 -15t-72.5 -42t-51 -65t-30 -82l-78 -372q-4 -22 -17 -40t-30 -31.5t-37 -20.5q-20 -8 -42 -8t-39.5 7.5t-29 21t-15.5 31.5z" />
<glyph unicode="&#xe18;" horiz-adv-x="856" d="M130 254l16 76q4 22 16 40t29 31.5t38 21t42 7.5q22 0 39.5 -7.5t28.5 -21t15 -31.5t0 -40l-16 -76q-6 -26 3.5 -43.5t28 -29t42.5 -16.5t50 -5q23 0 49.5 4t50.5 15t41.5 29t23.5 46q4 17 4.5 30.5t-3.5 26t-14 23t-30 21.5t-50 22t-72 25q-60 16 -110.5 36t-85 47 t-50.5 65t-4 89q10 40 30 72t49 56.5t63.5 41t72.5 27t77.5 15.5t78.5 5q58 0 108.5 -9t89.5 -29.5t65 -52.5q26 -31 36 -77q4 -20 0.5 -40.5t-14 -38.5t-27.5 -32.5t-39 -22.5t-42.5 -8t-38 7t-29.5 21t-18 34t-17 33t-26 21t-34 12t-41 6t-45.5 0.5t-42.5 -7t-32.5 -14 t-15.5 -20.5q-2 -10 6.5 -18.5t23 -16.5t33.5 -16t38 -14t36 -11t27 -8q50 -15 92 -29t74 -31.5t54 -39t33.5 -49.5t12 -65.5t-9.5 -86.5q-10 -48 -32 -87t-53 -69t-69 -52t-81 -36t-89 -20t-92 -6q-70 0 -131 15t-102 47.5t-59 84t-2 123.5z" />
<glyph unicode="&#xe19;" horiz-adv-x="901" d="M129 164q-5 57 11 129l97 457q4 22 16.5 40t29 31t37 20.5t42.5 7.5t39 -7.5t28 -20.5t15 -31t0 -40l-96 -454q-6 -30 -2 -53t17.5 -38.5t35.5 -24.5q21 -8 51 -8q50 0 91.5 15.5t72 43t51.5 64.5t30 82l79 373q4 22 16.5 40t29.5 31t37.5 20.5t42.5 7.5t39 -7.5 t28 -20.5t15 -31t0 -40l-141 -668q-4 -21 -15.5 -38.5t-28 -30t-36 -19.5t-41.5 -7q-21 0 -37.5 7t-27.5 19.5t-15 30.5t0 38l2 10q-62 -52 -127 -79t-128 -27q-86 0 -141.5 21t-83.5 60.5t-33 96.5z" />
<glyph unicode="&#xe1a;" horiz-adv-x="901" d="M138.5 253q2.5 45 12.5 91l87 406q4 22 16 40t28.5 31t37 20.5t41.5 7.5q22 0 39 -7.5t28.5 -20.5t15.5 -31t0 -40l-90 -420q-6 -30 -4 -60t16 -54t42 -39t76 -15q47 0 82 15t59 39t38.5 54t20.5 60l90 420q4 22 16 40t29 31t38 20.5t42 7.5q22 0 39.5 -7.5t28.5 -20.5 t16 -31t0 -40l-87 -406q-10 -46 -26 -91t-41 -85t-60 -74t-82 -59t-107 -39t-134 -14q-75 0 -128.5 14t-90 39t-56.5 59t-27.5 74t-5 85z" />
<glyph unicode="&#xe1b;" horiz-adv-x="900" d="M137.5 253q2.5 45 12.5 91l87 406q4 22 16 40t28.5 31t36.5 21q20 7 42 7t39 -7.5t28.5 -20.5t16 -31t0.5 -40l-90 -420q-6 -30 -4.5 -60t15.5 -54t42.5 -39t76.5 -15q47 0 81.5 15t58.5 39t39 54t21 60l168 788q4 22 16 40t29 31t38 20t42 7q22 0 39 -7t28.5 -20 t15.5 -31t0 -40l-164 -774q-10 -46 -26 -91t-41.5 -85t-60 -74t-81.5 -59t-107 -39t-134 -14q-75 0 -129 14t-90.5 39t-56.5 59t-27.5 74t-5 85z" />
<glyph unicode="&#xe1c;" horiz-adv-x="964" d="M122 128q-6 50 8 118l104 489q4 22 16.5 40.5t30 33t37.5 23.5q20 8 42 8h145q18 0 31.5 -7t21.5 -19t11 -27t-1 -33t-13 -34t-22.5 -27.5t-30 -18t-34.5 -6.5h-40l-82 -390q-13 -60 -6.5 -88t28.5 -28q17 0 29.5 11.5t22.5 32t17 47.5t14 59l13 62q4 20 15.5 37t27 29.5 t34.5 19t40 6.5q20 0 36.5 -6.5t27 -19t14.5 -29.5q3 -17 -1 -37l-12 -62q-7 -32 -11 -59t-2 -47.5t10.5 -32t27.5 -11.5q18 0 35.5 28t30.5 88l100 472q4 22 16.5 40t29.5 31t37 21q20 7 42 7t39.5 -7.5t29 -20.5t15.5 -31t0 -40l-107 -504q-14 -68 -41 -118t-64 -82 t-82.5 -48t-97.5 -16q-56 0 -97 18t-64 56q-35 -34 -82 -54t-103 -20q-53 0 -93 16t-63.5 48t-29.5 82z" />
<glyph unicode="&#xe1d;" horiz-adv-x="964" d="M122 128q-6 50 8 118l104 489q4 22 16.5 40.5t30 33t37.5 23.5q20 8 42 8h145q18 0 31.5 -7t21.5 -19t11 -27t-1 -33t-13 -34t-22.5 -27.5t-30 -18t-34.5 -6.5h-40l-82 -390q-13 -60 -6.5 -88t28.5 -28q17 0 29.5 11.5t22.5 32t17 47.5t14 59l13 62q4 20 15.5 37t27 29.5 t34.5 19t40 6.5q20 0 36.5 -6.5t27 -19t14.5 -29.5q3 -17 -1 -37l-12 -62q-7 -32 -11 -59t-2 -47.5t10.5 -32t27.5 -11.5q18 0 35.5 28t30.5 88l178 839q4 22 16.5 40t29.5 31.5t38 20.5t42 7q22 0 39.5 -7t28.5 -20.5t15 -32t0 -39.5l-185 -871q-14 -68 -41 -118t-64 -82 t-82.5 -48t-97.5 -16q-56 0 -97 18t-64 56q-35 -34 -82 -54t-103 -20q-53 0 -93 16t-63.5 48t-29.5 82z" />
<glyph unicode="&#xe1e;" horiz-adv-x="1124" d="M204 724q-1 22 6.5 42t21.5 36t34 28t42 17q23 5 43.5 2t36.5 -13t25 -26t9 -38l3 -408l209 416q8 15 20 28t26 22t30 14.5t32 5.5t30.5 -5.5t25 -15t16.5 -22.5t8 -27l32 -412l173 404q10 22 26 38t36 26t42.5 13t42.5 -2t35 -17t22 -28t6 -36t-11 -42l-314 -656 q-8 -18 -21 -32t-30 -24.5t-35 -15.5q-18 -6 -38 -6t-36 6t-28 16t-19 24t-9 32l-34 411l-206 -411q-9 -18 -22.5 -32t-29.5 -24.5t-35 -16t-38 -5.5q-20 0 -36.5 5.5t-28.5 16t-19 24.5t-7 32z" />
<glyph unicode="&#xe1f;" horiz-adv-x="1124" d="M204 724q-1 22 6.5 42t21.5 36t34 28t42 17q23 5 43.5 2t36.5 -13t25 -26t9 -38l3 -408l209 416q8 15 20 28t26 22t30 14.5t32 5.5t30.5 -5.5t25 -15t16.5 -22.5t8 -27l32 -412l346 771q9 22 25.5 38.5t36.5 26.5t42 13t43 -3q20 -5 34.5 -16.5t22 -28t6.5 -36.5 q0 -19 -11 -41l-487 -1024q-8 -18 -21 -32t-30 -24.5t-35 -15.5q-18 -6 -38 -6t-36 6t-28 16t-19 24t-9 32l-34 411l-206 -411q-9 -18 -22.5 -32t-29.5 -24.5t-35 -16t-38 -5.5q-20 0 -36.5 5.5t-28.5 16t-19 24.5t-7 32z" />
<glyph unicode="&#xe20;" horiz-adv-x="936" d="M46 49.5q-2 14.5 1 31.5q4 16 12.5 31t20.5 26t28 17.5t32 6.5h19l62 290q4 18 3 38q-2 20 -13 38q-10 17 -16 28.5t-6.5 22.5t5.5 23q4 12 16 30q29 44 70.5 85t94.5 72.5t120 50t148 18.5q76 0 131.5 -14t94.5 -38t62.5 -58t34 -73t9.5 -83t-11 -90l-87 -412 q-4 -22 -16.5 -40t-29.5 -31.5t-38 -21t-43 -7.5t-39.5 7.5t-29 21t-15.5 31.5t0 40l90 426q6 29 3 57.5t-19.5 51.5t-49 37.5t-85.5 15.5q-40 0 -73.5 -7.5t-58.5 -20t-41 -27.5q-18 -15 -26 -29q10 -12 17.5 -25t10 -29.5t1.5 -38t-7 -51.5l-79 -369q-4 -16 -12.5 -31 t-21 -26t-28 -17.5t-31.5 -6.5h-150q-16 0 -29 6.5t-21 17.5t-10 25.5z" />
<glyph unicode="&#xe21;" horiz-adv-x="901" d="M96 46.5q-4 17.5 0 38.5l141 665q4 22 16.5 40t29.5 31t37 20.5t42 7.5t39 -7.5t29 -20.5t16 -31t0 -40l-80 -373q-10 -44 -5 -81.5t24 -65t54 -43t85 -15.5q29 0 54.5 8.5t46 24t34.5 38.5t20 53l97 454q4 22 16 40t29 31t37 20.5t42 7.5t39 -7.5t28 -20.5t15 -31t0 -40 l-96 -457q-16 -72 -44.5 -129t-74 -96.5t-109.5 -60.5t-150 -21q-32 0 -62 7t-57 22t-49.5 37t-39.5 50l-4 -17q-4 -21 -16 -38.5t-28 -30t-36 -19.5t-40 -7q-21 0 -37.5 7t-27.5 19.5t-15 30z" />
<glyph unicode="&#xe22;" horiz-adv-x="878" d="M116 179q-6 41 4 91q13 62 43 109q31 47 81 73q-18 17 -29 37.5t-17 42.5t-7 44t4 44q9 44 27.5 77t43 57.5t53.5 41t59.5 26t60.5 14.5q31 4 57 4h68q18 0 32.5 -7t24 -19t12.5 -28t-1 -34t-14 -33.5t-24 -27.5t-31.5 -18.5t-35.5 -6.5h-42q-19 0 -34 -5t-25.5 -12.5 t-17.5 -17.5q-6 -11 -8 -21q-3 -16 -0.5 -29t10.5 -23.5t22 -17t34 -8.5h41q16 0 29.5 -6t21.5 -17t11 -25t0 -30q-4 -16 -13 -31t-22 -25t-28.5 -16.5t-31.5 -6.5h-34q-17 -1 -33.5 -5t-30.5 -14t-25 -29t-18 -51q-6 -30 2.5 -52t28.5 -38t47 -24t57 -8q34 0 65 10t57 31 t45 54t29 79l90 423q4 22 16 39.5t29 30.5t37 21t42 8t39 -8t28 -21t15 -31t0 -39l-96 -450q-16 -79 -57.5 -139t-100 -101t-128.5 -61t-146 -20q-46 0 -90.5 7t-83 23t-68.5 40t-49 56t-25 73z" />
<glyph unicode="&#xe23;" horiz-adv-x="762" d="M98 183q-3 20 2.5 40.5t17.5 38.5t30 32t40 22q24 8 44 6t35.5 -10.5t25 -23.5t13.5 -35q5 -48 34.5 -70.5t81.5 -22.5q18 0 40 4t41 13t34 25q15 18 21 42q4 18 -3 31.5t-23.5 26t-43.5 24.5q-26 12 -63 28q-37 15 -71 30.5t-62.5 32.5t-50.5 36t-35.5 43t-17.5 53t4 65 q10 44 29.5 80t47 62.5t60.5 45.5t69 31t74 17.5t74 5.5q56 0 104 -10t84 -31.5t58.5 -57t28.5 -87.5q2 -20 -4 -40t-18.5 -37t-30.5 -31t-40 -20t-41 -4.5t-35 10.5t-26 24t-12 35q-3 20 -11.5 34.5t-20.5 23.5t-28 13q-14 4 -32 4q-17 0 -35.5 -4t-35 -11.5t-28.5 -20.5 q-11 -12 -15 -30q-3 -14 2.5 -25t21.5 -23t43 -24t65 -26q80 -31 129 -61.5t74 -63.5t30 -69t-4 -78q-16 -73 -52.5 -123.5t-88.5 -81.5t-116 -44t-135 -13q-56 0 -103.5 11t-84 35.5t-60 62t-31.5 90.5z" />
<glyph unicode="&#xe24;" horiz-adv-x="884" d="M106 49.5q-2 14.5 1 31.5l79 371q4 18 2 38q-1 20 -12 38q-10 17 -16 28.5t-6 22.5t5 23t17 30q29 44 69.5 85t94.5 72.5t121 50t147 18.5q76 0 132 -14t95 -38t62 -58t34 -73t10 -83t-11 -90l-144 -679q-4 -22 -17 -40.5t-30 -31.5t-38 -21t-42 -8q-22 0 -39.5 8t-29 21 t-16 31.5t-0.5 40.5l148 693q6 29 3 57.5t-20 51.5t-49.5 37.5t-85.5 15.5q-40 0 -73 -7.5t-58 -20t-42 -27.5t-25 -29q21 -24 26 -60q4 -38 -6 -84l-61 -288h20q16 0 29 -6.5t20.5 -17.5t10.5 -25.5t-1 -31.5q-4 -16 -12.5 -31t-21 -26t-27.5 -17.5t-32 -6.5h-151 q-16 0 -29 6.5t-21 17.5t-10 25.5z" />
<glyph unicode="&#xe25;" horiz-adv-x="880" d="M102 116q-14 48 0 116q14 66 51 111t93 74.5t130 48t164 34.5q32 6 63 13t55.5 18t41.5 25t21 34q6 30 -2.5 48t-26.5 27t-43 11t-51 2q-27 0 -51 -4t-45.5 -13.5t-39.5 -25.5q-18 -17 -34 -41q-13 -20 -29.5 -34t-36.5 -23t-41 -10t-43 5q-20 6 -31 21t-15 33.5t0 40 t16 41.5q32 54 76 90.5t95.5 58.5t109 31.5t118.5 9.5q40 0 79.5 -5t74.5 -16t64 -30.5t47 -48t23.5 -68.5t-5.5 -92l-108 -510q-4 -22 -16.5 -39.5t-29.5 -31t-37.5 -20.5t-41.5 -7q-22 0 -39 7t-28.5 20.5t-15.5 31.5q-4 17 0 39l64 297q-38 -22 -75 -31.5t-69 -15.5 q-38 -7 -75 -14t-68 -17.5t-52 -25.5t-26 -39q-6 -26 2 -44t24 -29t37.5 -15t43.5 -4h18t20 2q18 3 33 0t26 -10.5t17 -20.5t6 -31q0 -16 -7 -31.5t-18 -28t-25 -21.5q-16 -9 -32 -13q-29 -6 -54.5 -9t-51.5 -3q-62 0 -114 13t-87 42t-49 77z" />
<glyph unicode="&#xe26;" horiz-adv-x="936" d="M46 49.5q-2 14.5 1 31.5q4 16 12.5 31t20.5 26t28 17.5t32 6.5h19l62 290q4 18 3 38q-2 20 -13 38q-10 17 -16 28.5t-6.5 22.5t5.5 23q4 12 16 30q29 44 70.5 85t94.5 72.5t120 50t148 18.5q76 0 131.5 -14t94.5 -38t62.5 -58t34 -73t9.5 -83t-11 -90l-144 -678 q-4 -22 -16.5 -40.5t-29.5 -32t-38 -21.5q-20 -7 -42 -7t-40 7.5t-29 21t-16 32t0 40.5l147 692q6 29 3 57.5t-19.5 51.5t-49 37.5t-85.5 15.5q-40 0 -73.5 -7.5t-58.5 -20t-41 -27.5q-18 -15 -26 -29q10 -12 17.5 -25t10 -29.5t1.5 -38t-7 -51.5l-79 -369q-4 -16 -12.5 -31 t-21 -26t-28 -17.5t-31.5 -6.5h-150q-16 0 -29 6.5t-21 17.5t-10 25.5z" />
<glyph unicode="&#xe27;" horiz-adv-x="803" d="M117 186q-4 20 1.5 41t17.5 39t30 32t40 22t43 7t37 -10t26 -24q12 -15 14 -35q6 -48 33 -72t64 -24q34 0 65 15t56.5 47t45.5 80q22 49 36 116q14 66 14 115t-12 81.5t-36 48t-58 15.5q-19 0 -38 -6t-37 -18t-34.5 -30t-28.5 -42q-12 -20 -29 -35t-37 -24t-41 -10t-39 7 q-19 8 -31.5 22t-16.5 32t-1 39t15 41q28 46 67 84t84 64.5t97 41t108 14.5q94 0 155.5 -32t94 -89.5t37.5 -138.5t-17 -180q-21 -99 -59.5 -180t-95.5 -138.5t-132.5 -88.5t-169.5 -31q-58 0 -104 14t-79.5 41t-54.5 65t-30 84z" />
<glyph unicode="&#xe28;" horiz-adv-x="930" d="M98 54q-4 18 0 40l85 402q10 46 27.5 90.5t44 85t63 74.5t85.5 59t110 39t136 14q50 0 91 -6.5t74 -18.5q14 7 27 18t23 25q19 28 43.5 43t56.5 15q20 0 36 -8t26 -21t13 -30.5t-3 -37.5q-10 -36 -36 -61t-62 -44q14 -25 21 -52.5t9 -58t-1 -62t-10 -63.5l-85 -402 q-4 -22 -17 -40t-30 -31t-37 -20.5t-42 -7.5t-39 7.5t-28.5 20.5t-16 31t-0.5 40l90 418q6 29 2.5 58.5t-19.5 53.5t-46.5 39t-77.5 15q-48 0 -85.5 -15t-65 -39t-44.5 -53.5t-23 -58.5l-17 -78q36 30 74 50t82 31q19 4 36 1.5t29.5 -11.5t20.5 -23t8 -32t-6 -36t-18 -33 t-28.5 -25.5t-35.5 -14.5q-50 -9 -89 -29t-67 -49t-46 -67t-28 -84l-4 -18q-4 -22 -16 -40t-29 -31t-37 -21q-20 -7 -42 -7t-39 7.5t-28 20.5t-15 31z" />
<glyph unicode="&#xe29;" horiz-adv-x="934" d="M138.5 253q2.5 45 12.5 91l86 406q4 22 16.5 40t29.5 31t37 21t42 8t39.5 -8t29 -21t15.5 -31t0 -40l-90 -420q-6 -30 -3.5 -60t18 -54t47.5 -39t83 -15q52 0 88.5 15t62.5 39t40 54t21 60l11 49h-170q-19 0 -34.5 6.5t-25.5 18t-14 27t0 35.5l14 66q4 19 15 34.5 t25.5 27t32.5 18t37 6.5q18 0 33.5 -6t25.5 -17t15 -27q4 -16 0 -34h78l46 216q4 22 16.5 40t30 31t37.5 21t42 8t40 -8t29 -21t16 -31t0 -40l-45 -216h10q16 0 28 -6t19.5 -16.5t10 -25t-1.5 -30.5t-12 -30t-20 -24.5t-26.5 -16.5t-30.5 -6h-11l-7 -35q-10 -46 -27 -91 t-43 -85t-62.5 -74t-84.5 -59t-109.5 -39t-137.5 -14q-78 0 -134 14t-94 39t-59.5 59t-30.5 74t-6.5 85z" />
<glyph unicode="&#xe2a;" horiz-adv-x="880" d="M102 116q-14 48 0 116q14 66 51 111t93 74.5t130 48t164 34.5q32 6 63 13t55.5 18t41.5 25t21 34q6 30 -2.5 48t-26.5 27t-43 11t-51 2q-27 0 -51 -4t-45.5 -13.5t-39.5 -25.5q-18 -17 -34 -41q-13 -20 -29.5 -34t-36.5 -23t-41 -10t-43 5q-20 6 -31 21t-15 33.5t0 40 t16 41.5q32 54 76 90.5t95.5 58.5t109 31.5t118.5 9.5q40 0 79.5 -5t74.5 -16q12 7 23.5 17t19.5 22q19 28 43.5 43t56.5 15q20 0 36 -8t26 -21t13 -30.5t-3 -37.5q-10 -34 -34 -59q-24 -26 -58 -44q12 -27 13.5 -60.5t-7.5 -75.5l-108 -510q-4 -22 -16.5 -39.5t-29.5 -31 t-37.5 -20.5t-41.5 -7q-22 0 -39 7t-28.5 20.5t-15.5 31.5q-4 17 0 39l64 297q-38 -22 -75 -31.5t-69 -15.5q-38 -7 -75 -14t-68 -17.5t-52 -25.5t-26 -39q-6 -26 2 -44t24 -29t37.5 -15t43.5 -4h18t20 2q18 3 33 0t26 -10.5t17 -20.5t6 -31q0 -16 -7 -31.5t-18 -28 t-25 -21.5q-16 -9 -32 -13q-29 -6 -54.5 -9t-51.5 -3q-62 0 -114 13t-87 42t-49 77z" />
<glyph unicode="&#xe2b;" horiz-adv-x="882" d="M96 50q-4 18 1 40l140 660q4 22 16.5 40t29.5 31t37 21t42 8t39.5 -8t29 -21t15.5 -31t0 -40l-34 -162l440 246q20 11 40 14.5t37.5 -0.5t31 -15t21.5 -28t7 -36t-9 -37.5t-22 -34.5t-34 -27l-71 -40q22 -19 33.5 -44.5t15.5 -56.5t0 -67t-12 -76l-62 -296 q-4 -22 -16.5 -40t-29.5 -31.5t-37.5 -21t-42.5 -7.5t-39 7.5t-28.5 21t-16 31.5t0.5 40l66 310q4 20 5.5 39t-1 34t-10 27t-21.5 18l-298 -169l-54 -259q-4 -22 -17 -40t-30 -31.5t-37 -20.5q-20 -8 -42 -8t-39.5 7.5t-29 21t-15.5 31.5z" />
<glyph unicode="&#xe2c;" horiz-adv-x="1097" d="M204 724q-1 22 6.5 42t22 36t34 28t42.5 17t43.5 2t36 -13t25.5 -26q9 -16 9 -38l-10 -436l184 316q8 15 20 27.5t25.5 21.5t29.5 14.5t32 5.5q34 0 54 -19.5t25 -49.5l53 -328l100 229q12 28 19 49.5t8 38t-7.5 28t-28.5 17.5q-12 4 -21.5 11t-15.5 18t-8 24t1 27 q4 16 12 30t19.5 25t25.5 18t30 10q42 7 73 24.5t52 47.5q9 13 21 24t25 18.5t28 12t31 4.5q22 0 39 -8t27.5 -22t14.5 -33q3 -19 -1 -40q-5 -24 -18.5 -43.5t-33 -34.5t-42.5 -27q-22 -12 -44 -22q28 -41 31 -89.5t-25 -101.5l-252 -497q-8 -16 -20.5 -29t-27.5 -23 t-32.5 -15t-35.5 -5q-36 0 -57.5 20t-26.5 52l-55 362l-205 -362q-8 -16 -20.5 -29t-27.5 -23t-32.5 -15t-35.5 -5q-36 0 -59 20t-25 52z" />
<glyph unicode="&#xe2d;" horiz-adv-x="868" d="M121.5 284q0.5 52 10.5 108q4 18 13 33t22 27t29 18q16 7 34 7h237q18 0 31 -6.5t21.5 -18.5t10.5 -27t-1 -33q-4 -18 -13 -33t-22 -27t-29.5 -18.5t-33.5 -6.5h-97q2 -32 11 -58.5t27 -46t42 -30t56 -10.5q42 0 78 17t66 50t52 80.5t35 108.5q26 126 -3.5 192t-119.5 66 q-24 0 -50 -5.5t-50 -16t-45.5 -25.5t-36.5 -35t-32 -34t-35.5 -23t-39.5 -10t-42 5q-20 6 -32.5 21t-16.5 34t0 40t18 41q32 44 75.5 80t95 61t109.5 38t120 13q108 0 175.5 -34t101 -93.5t37.5 -140t-16 -174.5q-12 -58 -33 -113t-51 -104t-70 -89t-89 -69t-109 -45 t-130 -16q-68 0 -120 14.5t-88.5 41.5t-59 64.5t-33 83.5t-10 98z" />
<glyph unicode="&#xe2e;" horiz-adv-x="864" d="M121.5 284q0.5 52 10.5 108q4 18 13 33t22 27t29 18q16 7 34 7h237q18 0 31 -6.5t21.5 -18.5t10.5 -27t-1 -33q-4 -18 -13 -33t-22 -27t-29.5 -18.5t-33.5 -6.5h-97q2 -32 11 -58.5t27 -46t42 -30t56 -10.5q42 0 78 17t66 50t52 80.5t35 108.5q26 126 -3.5 192t-119.5 66 q-24 0 -50 -5.5t-50 -16t-45.5 -25.5t-36.5 -35t-32 -34t-35.5 -23t-39.5 -10t-42 5q-20 6 -32.5 21t-16.5 34t0 40t18 41q32 44 75.5 80t95 61t109.5 38t120 13q48 0 87 -7t71 -19q14 7 27 18t23 24q19 28 43.5 43t55.5 15q20 0 36 -8t26.5 -21t13.5 -30.5t-3 -37.5 q-10 -36 -36.5 -61.5t-62.5 -43.5l-3 -2q33 -60 36.5 -139.5t-16.5 -172.5q-12 -58 -33 -113t-51 -104t-70 -89t-89 -69t-109 -45t-130 -16q-68 0 -120 14.5t-88.5 41.5t-59 64.5t-33 83.5t-10 98z" />
<glyph unicode="&#xe2f;" horiz-adv-x="905" d="M202 471q-12 53 2 117q10 48 31 85t48 65t60 47t68.5 31t71.5 18t70 6h80q18 0 31.5 -7t21.5 -19t11 -27t-1 -33t-13 -34t-22.5 -27.5t-30 -18t-34.5 -6.5h-80q-42 0 -66 -22q-25 -22 -33 -60q-4 -18 -1.5 -37t15.5 -34t37 -24t64 -9q92 0 148 32q56 30 71 100l29 137 q4 22 16 39.5t29 30.5t37 21t42 8t39 -8t28.5 -21t16 -31t-0.5 -39l-141 -663q-4 -22 -16 -39.5t-29 -31t-37 -20.5t-42 -7t-39 7t-28.5 20.5t-16.5 31.5q-4 17 1 39l55 258q-43 -20 -92.5 -31.5t-101.5 -11.5q-88 0 -150.5 20.5t-99 57.5t-48.5 90z" />
<glyph unicode="&#xe30;" horiz-adv-x="522" d="M122 169q-4 15 0 33l16 70q4 18 14 33t24 26t30.5 17t34.5 6t32.5 -6t23.5 -17t13 -26t0 -33h148q16 0 28 -6t19 -16t9 -24t-1 -30q-4 -16 -11.5 -29.5t-19.5 -23.5t-26 -16t-30 -6h-234q-18 0 -32.5 6t-24 16.5t-13.5 25.5zM210.5 585q-3.5 15 0.5 33l15 70q4 18 14 33 t24 25.5t30.5 16.5t34.5 6t32.5 -6t23.5 -16.5t13 -25.5t0 -33h148q16 0 28 -6t19 -16t9 -24q4 -14 0 -30t-12 -30t-19.5 -24t-26 -16t-30.5 -6h-234q-18 0 -32 6t-24 17t-13.5 26z" />
<glyph unicode="&#xe31;" d="M-328.5 1010q-3.5 16 0.5 36l15 72q4 19 14.5 35t25.5 27.5t33.5 18t37.5 6.5t34.5 -6.5t25.5 -18t14 -27.5t0 -35h338q16 0 29 -6t20.5 -17t10 -26t-1.5 -31t-12 -31t-20.5 -25.5t-27.5 -17.5q-16 -6 -32 -6h-430q-19 0 -34.5 7t-26 18t-14 27z" />
<glyph unicode="&#xe32;" horiz-adv-x="725" d="M158.5 629q3.5 21 16.5 42q28 46 66.5 81t83.5 58.5t93 35.5t96 12q66 0 120 -17.5t89 -53t48 -90.5t-3 -129l-102 -478q-4 -22 -16 -40t-29 -31.5t-38 -21t-43 -7.5t-39 7.5t-28 21t-15 31.5t0 40l95 450q16 72 -4.5 105t-72.5 33q-36 0 -66.5 -20t-51.5 -59 q-12 -20 -30 -35.5t-38.5 -24.5t-42 -10t-40.5 6q-19 8 -31 22.5t-16.5 32.5t-1 39z" />
<glyph unicode="&#xe33;" horiz-adv-x="725" d="M-127 1044q-7 32 1 68q8 37 28.5 69t49 55.5t63 37.5t70.5 14t64.5 -14t47.5 -37.5t27 -55.5t0 -69q-8 -36 -29 -68t-50 -55t-64 -37t-71 -14t-64 14t-47 37t-26 55zM-16 1112q-2 -12 1 -23.5t10 -20.5t17 -14.5t22 -5.5q13 0 26 5.5t24 14.5t18.5 20.5t10.5 23.5 q3 13 0 25t-10 21t-18 14.5t-23 5.5t-25 -5.5t-23.5 -14.5t-18.5 -21t-11 -25zM159 629.5q-4 -21.5 0.5 -39.5t16.5 -33t31 -22q19 -8 40.5 -6.5t42 10.5t38.5 24t30 36q21 40 51.5 59.5t66.5 19.5q52 0 72 -32q20 -34 5 -106l-95 -450q-4 -22 0 -40t15 -31.5t29 -20.5 q16 -8 38 -8t43 7.5t38 21t29 31.5t16 40l102 478q16 74 3 129t-48 90.5t-89 53t-120 17.5q-48 0 -96 -12t-93 -35.5t-83.5 -58.5t-66.5 -81q-12 -20 -16 -41.5z" />
<glyph unicode="&#xe34;" d="M-612 1007q-2 15 1 31q4 16 12.5 31t20.5 26t27 17t31 6h613q16 0 28.5 -6t20 -17t10 -26t-1.5 -31t-12 -31t-20 -25.5t-27 -17t-32 -6.5h-613q-16 0 -28.5 6.5t-20 17t-9.5 25.5z" />
<glyph unicode="&#xe35;" d="M-612 1007q-2 15 1 31q4 16 12.5 31t20.5 26t27 17t31 6h480l9 44q4 20 15.5 38t27.5 30.5t36 19.5t40 7t37 -7t27.5 -19.5t15.5 -30.5q4 -18 -1 -38l-23 -109q-4 -20 -16 -37.5t-28 -30.5t-36 -20t-40 -7h-578q-16 0 -28.5 6.5t-20 17t-9.5 25.5z" />
<glyph unicode="&#xe36;" d="M-612 1007q-2 15 1 31q4 16 12.5 31t20.5 26t27 17t31 6h388l1 6q6 32 24.5 61t44 50t56.5 33t63 12t57.5 -12.5t42.5 -34t23 -50.5t-1 -61q-8 -36 -26.5 -65.5t-44 -51.5t-56.5 -34.5t-63 -12.5h-543q-16 0 -28.5 6.5t-20 17t-9.5 25.5zM-31 1103.5q2 -9.5 8 -16.5 t15 -11q8 -5 20 -5t23 4.5t20 11.5t15 17q8 10 10 20q2 12 0 22t-8 17.5t-16 12.5q-8 4 -20 4t-23 -4.5t-20 -12t-15.5 -17.5t-8.5 -22q-2 -11 0 -20.5z" />
<glyph unicode="&#xe37;" d="M-612 1007q-2 15 1 31q4 16 12.5 31t20.5 26t27 17t31 6h285l13 62q4 17 13 31.5t22.5 24.5t30 15.5t32.5 5.5q17 0 31 -5.5t23 -15.5t12.5 -24.5t-0.5 -31.5l-13 -62h65l13 62q4 17 13.5 31.5t22.5 24.5t29 15.5t34 5.5q17 0 30.5 -5.5t22.5 -15.5t12 -24.5t-1 -31.5 l-26 -127q-4 -20 -16 -37.5t-28 -30.5t-36 -20t-40 -7h-578q-16 0 -28.5 6.5t-20 17t-9.5 25.5z" />
<glyph unicode="&#xe38;" d="M-415.5 -204q-2.5 14 1.5 29q4 16 11.5 29.5t19 23.5t25.5 16t30 6h159q16 0 27.5 -6t18.5 -16t9 -24t-1 -29l-45 -211q-4 -20 -15 -37t-26.5 -29t-34 -18.5t-38.5 -6.5t-36 6.5t-26 18.5t-14 29t0 37l28 136h-38q-16 0 -27.5 6t-18.5 16t-9.5 24z" />
<glyph unicode="&#xe39;" d="M-695.5 -212.5q-2.5 14.5 1.5 31.5q4 16 12 31t21 26t28 17.5t31 6.5h130q16 0 29 -6.5t21 -17.5t10 -25.5t-1 -31.5l-11 -51q-7 -32 2.5 -48.5t37.5 -16.5q54 -1 66 65l10 47q4 20 15.5 37.5t27 30t34.5 20t39 7.5t35.5 -7.5t26 -20t14 -30.5t-0.5 -37l-10 -47 q-10 -47 -31.5 -88.5t-57 -72.5t-86 -49.5t-117.5 -18.5q-61 0 -102 14.5t-65 41t-32 63t-2 80.5h-16q-16 0 -29 6.5t-20.5 17.5t-10 25.5z" />
<glyph unicode="&#xe3a;" d="M-353 -244q-5 24 1 50q6 27 21 50.5t37 41.5t48 28t53 10q26 0 47.5 -10t35 -28t19 -42t-0.5 -50t-21 -50t-36.5 -41t-47 -28t-51.5 -11q-27 0 -49 11t-36.5 28t-19.5 41z" />
<glyph unicode="&#xe3e;" />
<glyph unicode="&#xe3f;" horiz-adv-x="973" d="M119 79q-5 23 0 49l157 738q6 28 21.5 52t37 42t48.5 29t54 11h207l20 90q2 10 8 19t13.5 15.5t17 10.5t17.5 4t16 -4t13 -10.5t7 -15.5t0 -19l-20 -91q30 0 60 -2t58 -6.5t52 -12.5t41 -20q24 -16 43.5 -38t32.5 -50t17 -62q4 -33 -4 -73q-7 -34 -21.5 -63.5t-34 -55 t-44 -46t-50.5 -36.5q30 -16 53 -39.5t36 -53t17 -64.5t-4 -72q-8 -38 -26 -75.5t-45 -71.5t-62 -63t-78 -50t-93 -33q-48 -12 -104 -12h-56l-22 -102q-2 -9 -8 -17.5t-13.5 -15.5t-17 -11t-17.5 -4t-16 4t-13 11t-7 15.5t0 17.5l22 102h-212q-26 0 -47.5 10t-35 28 t-18.5 41zM346 174h122l56 258h-124zM434 592h124l49 234h-123zM560 174h38q36 0 65 10t51 28t37 43t21 54q7 33 -2.5 56.5t-29.5 38t-49 21.5t-60 7h-15zM650 592q40 2 68.5 11.5t48.5 25t31.5 36t17.5 45.5q7 33 1 54.5t-22 34.5t-40.5 19t-55.5 7z" />
<glyph unicode="&#xe40;" horiz-adv-x="383" d="M104.5 50q-4.5 18 0.5 40l140 659q4 22 16.5 40.5t29.5 31.5t38 21t43 8t39.5 -8t29 -21t15.5 -32t0 -40l-140 -659q-4 -22 -16.5 -40t-30 -31.5t-38.5 -21t-42 -7.5q-22 0 -39.5 7.5t-29 21t-16 31.5z" />
<glyph unicode="&#xe41;" horiz-adv-x="692" d="M96.5 50q-4.5 18 0.5 40l140 659q4 22 16.5 40.5t29.5 31.5t38 21t43 8t39.5 -8t29 -21t15.5 -32t0 -40l-140 -659q-4 -22 -16.5 -40t-30 -31.5t-38.5 -21t-42 -7.5q-22 0 -39.5 7.5t-29 21t-16 31.5zM422 50q-4 18 0 40l140 659q4 22 17 40.5t30 31.5t38 21t43 8t39 -8 t29 -21t16 -32t0 -40l-140 -659q-4 -22 -17 -40t-30 -31.5t-38 -21t-43 -7.5t-39 7.5t-29 21t-16 31.5z" />
<glyph unicode="&#xe42;" horiz-adv-x="426" d="M117 52q-3 16 1 33l192 900q7 34 -5.5 61.5t-40.5 40.5q-20 10 -29 30.5t-4 45.5q4 18 13.5 33t23.5 26.5t30 17.5q16 7 34 7h366q17 0 31 -6.5t23 -17.5t12 -27q4 -15 0 -32q-4 -18 -14 -33t-23 -26t-30 -17t-34 -6h-173q9 -9 15 -23t9 -30t3 -33q1 -18 -3 -34 l-169 -792h19q18 0 31 -7t21 -18t11 -27t-1 -33q-4 -18 -13 -33.5t-22 -26.5t-29 -18t-34 -7h-148q-18 0 -31 7t-21 18t-11 27z" />
<glyph unicode="&#xe43;" horiz-adv-x="426" d="M119 52q-3 16 1 33l160 751q6 27 18.5 50.5t29 45t34.5 40.5l36 36q25 24 43 44t22 38q1 4 1 10.5t-3.5 12t-11 9.5t-19.5 4q-14 0 -28.5 -6t-27 -16t-24 -25t-19.5 -32q-8 -18 -22 -30.5t-30 -20.5t-33.5 -10.5t-33.5 2.5t-27 15.5t-16 25.5t-3.5 31.5t10.5 34.5 q24 48 56.5 83t71 58.5t80.5 34.5t82 11q44 0 84 -10t68 -32.5t40 -57.5q12 -34 1 -84q-4 -17 -11.5 -32.5t-17.5 -29.5t-22 -27l-24 -26q-15 -16 -29.5 -31.5t-27.5 -33t-24 -38t-17 -44.5l-141 -666h21q18 0 31 -7t21 -18t11 -27t-1 -33q-4 -18 -13 -33.5t-22 -26.5 t-29 -18t-34 -7h-148q-18 0 -31 7t-21 18t-11 27z" />
<glyph unicode="&#xe44;" horiz-adv-x="426" d="M117 52q-3 16 1 33l187 877q4 16 11 33.5t16.5 33.5t21.5 29.5t25 23.5h-173q-18 0 -31.5 6t-22.5 17t-12.5 26t0.5 33q4 17 14 32.5t23 26.5t30 17.5t34 6.5h366q18 0 31.5 -6.5t22.5 -18t12 -27t-1 -32.5q-3 -13 -8.5 -24.5t-14.5 -21t-19 -17.5t-22 -13 q-34 -14 -58.5 -41.5t-31.5 -60.5l-173 -815h19q18 0 31 -7t21 -18t11 -27t-1 -33q-4 -18 -13 -33.5t-22 -26.5t-29 -18t-34 -7h-148q-18 0 -31 7t-21 18t-11 27z" />
<glyph unicode="&#xe45;" horiz-adv-x="725" d="M158.5 629q3.5 21 16.5 42q28 46 66.5 81t83.5 58.5t93 35.5t96 12q66 0 120 -17.5t89 -53t48 -90.5t-3 -129l-160 -751q-4 -22 -16 -40t-29 -31.5t-38 -20.5t-43 -7t-39 7t-28 20.5t-15 32.5q-4 18 0 39l153 723q16 72 -4.5 105t-72.5 33q-36 0 -66.5 -20t-51.5 -59 q-12 -20 -30 -35.5t-38.5 -24.5t-42 -10t-40.5 6q-19 8 -31 22.5t-16.5 32.5t-1 39z" />
<glyph unicode="&#xe46;" horiz-adv-x="856" d="M180 520q6 54 24.5 103.5t51 91t80.5 73.5t114 51q10 2 23.5 5.5t28 3.5t28.5 -4t24 -16l40 -48l54 49q14 12 30 16.5t32 3.5t29 -4t23 -6q40 -12 67 -30.5t43 -43t23 -53.5t7 -61.5t-5 -66.5t-12 -70l-148 -697q-4 -22 -16.5 -40t-30 -31.5t-38 -20.5t-42.5 -7t-39 7 t-29 20.5t-16 32t0 39.5l152 713q4 16 8 37t6.5 41t2 37t-7.5 25l-89 -70q-10 -8 -21.5 -14t-25.5 -6q-16 0 -25.5 6t-15.5 14l-59 70q-11 -8 -20 -23t-17 -33t-13 -37t-8 -37q-2 -12 -2.5 -25.5t3 -25.5t11 -20.5t22.5 -10.5q36 -4 52 -26q17 -22 9 -58q-4 -18 -14 -33 t-24 -26.5t-31 -18t-33 -6.5q-26 1 -53.5 7.5t-52 19.5t-45.5 31t-34.5 43.5t-19.5 57.5t-1 71z" />
<glyph unicode="&#xe47;" d="M-466 1124q1 22 5 40q11 53 39 91.5t65 63.5t82 37t89 12h364q14 0 24.5 -5t17 -15t8.5 -22t-2 -26q-3 -14 -10 -27t-17.5 -22t-23.5 -14.5t-27 -5.5h-349q-28 0 -45.5 -7.5t-27.5 -18t-14.5 -22t-6.5 -19.5q-1 -6 -1.5 -15t2 -18t9 -16t19.5 -7q15 0 27.5 9t20.5 25 q11 24 31.5 35t44.5 11q25 0 41.5 -11t16.5 -35q0 -15 8 -24.5t21 -9.5q25 0 37 28q6 14 16 24t21.5 16.5t25 9t26.5 0.5q15 -2 27.5 -8t20 -16.5t9.5 -25.5q0 -16 -6 -36q-12 -36 -31 -60t-44 -40t-53 -22.5t-56 -6.5q-20 0 -37.5 5.5t-31 14t-23.5 20t-17 23.5 q-13 -13 -30 -24.5t-35.5 -20t-39 -13.5t-40.5 -5q-36 0 -61 9t-42.5 24.5t-27.5 35.5t-14.5 41t-4.5 43z" />
<glyph unicode="&#xe48;" d="M28 1374q-4 18 0 38l24 114q4 20 15 37t27 29t35 19t39 7t36.5 -7t27 -19t14.5 -29t0 -37l-24 -114q-4 -20 -15.5 -37t-27 -30t-35 -19.5t-39.5 -6.5t-36.5 6.5t-26.5 19.5t-14 29z" />
<glyph unicode="&#xe49;" d="M-184 1506q-2 12 2 26q3 14 9.5 26t17 21.5t23 15t26.5 5.5h121q14 0 24.5 -5.5t16.5 -15t8 -21.5t0 -26l-13 -58q30 2 55 10t45.5 19t37 26t27.5 32q10 16 24.5 26.5t30 16.5t31.5 5t30 -7q14 -7 22 -19.5t10 -27.5t-2 -31t-14 -32q-24 -34 -58.5 -64t-79 -52t-98.5 -34 q-54 -13 -118 -13h-71q-14 0 -24.5 5.5t-16.5 14.5t-8 21t1 26l15 68h-24q-14 0 -25 5.5t-17 15t-8 21.5z" />
<glyph unicode="&#xe4a;" d="M-221 1356.5q-2 11.5 1 25.5q10 48 30 83t45.5 58.5t54 35t56.5 11.5q27 0 47.5 -14t34.5 -36q23 22 50.5 36t59.5 14q18 0 34.5 -6t30 -17t21.5 -26t10 -35q12 12 23 29.5t21 38.5q7 14 19 25t25.5 18t28.5 9t29 -1q16 -4 25 -12.5t13 -20.5t2 -26t-10 -29 q-17 -34 -40.5 -65.5t-50.5 -57.5t-56 -44t-59 -22h-56q-19 0 -29.5 12t-8.5 31q2 13 3 25t-1.5 21.5t-8 15t-15.5 5.5q-16 0 -24.5 -10t-13.5 -27q-6 -21 -20.5 -32t-33.5 -11t-29.5 11t-6.5 32q3 16 -2 26.5t-21 10.5q-18 0 -29.5 -16t-17.5 -40q-8 -33 -30 -48.5 t-49 -15.5q-15 0 -26 5t-17.5 13.5t-8.5 20z" />
<glyph unicode="&#xe4b;" d="M-86 1480q-2 14 0 28q3 15 11 28.5t19.5 23.5t25 15.5t28.5 5.5h68l6 30q4 20 15 36.5t26 28t34 18t38 6.5q20 0 35.5 -6.5t25.5 -18t14 -28.5t0 -36l-6 -30h68q15 0 26.5 -5.5t18.5 -15.5t9 -23.5t-2 -28.5t-11 -28.5t-18 -23t-25 -15t-29 -5.5h-68l-7 -30 q-4 -20 -15 -36.5t-26 -28t-34 -18.5t-38 -7q-20 0 -35.5 7t-25.5 18.5t-14 28t0 36.5l6 30h-67q-15 0 -26.5 5.5t-18 15t-8.5 23.5z" />
<glyph unicode="&#xe4c;" d="M-95.5 1293.5q-3.5 17.5 1 37t16.5 37.5q22 33 52 60.5t66 48.5t80 34t94 17q36 2 56 -13t19 -46q0 -15 -6.5 -30t-17 -27t-25 -20t-29.5 -10q-26 -2 -45.5 -10t-35 -19t-27 -26t-19.5 -31q-10 -20 -25 -33t-34 -19.5t-39 -7.5q-18 0 -36 6q-19 7 -30.5 20.5t-15 31z" />
<glyph unicode="&#xe4d;" d="M-127 1044q-7 32 1 68q8 37 28.5 69t49 55.5t63 37.5t70.5 14t64.5 -14t47.5 -37.5t27 -55.5t0 -69q-8 -36 -29 -68t-50 -55t-64 -37t-71 -14t-64 14t-47 37t-26 55zM-16 1112q-2 -12 1 -23.5t10 -20.5t17 -14.5t22 -5.5q13 0 26 5.5t24 14.5t18.5 20.5t10.5 23.5 q3 13 0 25t-10 21t-18 14.5t-23 5.5t-25 -5.5t-23.5 -14.5t-18.5 -21t-11 -25z" />
<glyph unicode="&#xe4e;" d="M-216 1021.5q2 17.5 10 35.5q24 55 68 93.5t110 53.5q12 25 33 47t48.5 39.5t62 28.5t74.5 15q36 3 56 -14.5t18 -49.5q-1 -16 -7.5 -30.5t-17.5 -26.5t-26 -19.5t-31 -9.5q-20 -2 -33 -7t-22 -13.5t-14.5 -20t-8.5 -27.5q-3 -15 -9.5 -24.5t-15.5 -14.5t-19 -6.5 t-20 -1.5q-34 0 -54 -15.5t-33 -43.5q-8 -18 -21 -31t-28.5 -21t-33.5 -10t-38 2q-19 4 -30.5 15t-15.5 25t-2 31.5z" />
<glyph unicode="&#xe4f;" horiz-adv-x="1014" d="M144.5 300.5q-3.5 56.5 9.5 117.5t40.5 117.5t67 105t89 89t104.5 68.5t115 44t122 16q60 0 113 -16t95.5 -44t74 -68.5t49.5 -89t22 -105t-10 -117.5q-13 -61 -40.5 -117.5t-66.5 -105.5t-87 -89t-103 -68.5t-114 -44t-120 -15.5q-62 0 -115.5 15.5t-96.5 44t-75 68.5 t-51 89t-22.5 105.5zM292.5 304q12.5 -56 45 -97t82.5 -66t114 -25q41 0 81.5 11t78.5 31.5t72 48.5t61 62t46 72.5t27 80.5t6 80t-15 72t-34.5 61t-51 47t-65.5 30.5t-76 10.5q-42 0 -84 -10.5t-80 -30.5t-71.5 -47t-60.5 -61t-46.5 -72t-27.5 -80q-14 -62 -1.5 -118z M363.5 331q-9.5 43 0.5 91q10 47 37.5 89t66 73.5t85.5 50.5t95 19q47 0 85 -19t62.5 -50.5t34 -73.5t-0.5 -89q-10 -48 -37.5 -91t-65.5 -74.5t-83.5 -50t-92.5 -18.5q-48 0 -87 18.5t-64.5 50t-35 74.5zM488 378.5q4 -20.5 16 -35.5t30 -23t42 -8q22 0 43 8t38 23 t29.5 35.5t17.5 43.5q4 22 0 41t-15 33.5t-28 23t-39 8.5q-24 0 -46 -8.5t-40 -23t-30.5 -33.5t-16.5 -41q-5 -23 -1 -43.5z" />
<glyph unicode="&#xe50;" horiz-adv-x="964" d="M145.5 249.5q-1.5 59.5 14.5 135.5q17 80 59 146.5t104.5 113.5t142.5 73q82 26 176 26t163 -26t111 -73t55.5 -113.5t-3.5 -146.5q-16 -76 -43 -135.5t-63 -104.5t-79.5 -76t-92.5 -50.5t-102.5 -28t-107.5 -8.5q-56 0 -106 8.5t-91 28t-71.5 51t-47.5 76t-18.5 104z M351.5 277q7.5 -37 28.5 -64t55.5 -42t80.5 -15t87 15t73 42t54 64t32 81q12 57 4 97.5t-30 65.5t-56 37q-36 12 -76 12t-80 -12t-73.5 -37t-59 -65t-37.5 -98q-10 -44 -2.5 -81z" />
<glyph unicode="&#xe51;" horiz-adv-x="952" d="M70.5 128q0.5 16 7 32t20.5 30q13 14 28.5 23t32 11t32 -1t27.5 -13q23 -20 51.5 -32t60 -18.5t64 -8t62.5 -1.5q58 0 106 15.5t85 46t62.5 74t37.5 99.5q9 42 4 77.5t-24 60.5t-53.5 39t-84.5 14q-39 0 -73.5 -7t-61.5 -20t-44.5 -33t-23.5 -47q-4 -19 0 -34.5t17.5 -27 t37.5 -17.5q25 -6 61 -6q22 2 37 -3t24 -14.5t12 -23t1 -29.5q-3 -20 -12 -35t-21.5 -26t-27.5 -17t-31.5 -10t-33 -5.5t-31.5 -1.5q-60 0 -110 17t-83 48t-46 75q-14 43 -3 97q11 52 35 94t57.5 74t75 55t87.5 38t94.5 22t96.5 7q56 0 107 -9t92.5 -27.5t72.5 -47 t49.5 -68.5t22 -91.5t-10.5 -115.5q-19 -90 -65.5 -164.5t-115.5 -127.5t-158 -82t-193 -29q-39 0 -80.5 2t-83.5 11.5t-84 27.5t-83 49q-12 10 -17.5 24t-5 30z" />
<glyph unicode="&#xe52;" horiz-adv-x="1104" d="M162 192q-16 64 0 142l54 254q6 27 4 44.5t-18 25.5q-14 7 -22.5 18.5t-11 26t-0.5 31.5q2 16 10 32q10 20 25 34t33 23t37 11t37 -2q35 -8 61.5 -26t41.5 -45.5t18 -64.5q3 -38 -6 -84l-63 -292q-6 -32 7.5 -60.5t46 -50t82.5 -34.5t116 -13q62 0 110 11.5t83 30.5 t55 44q20 24 26 49l45 209q4 20 0 35q-5 15 -15 24l-143 -98l-93 96q-10 -8 -18.5 -21t-12.5 -30l-7 -30q-3 -16 -5.5 -28.5t-1.5 -21.5t6.5 -13.5t17.5 -4.5q20 0 33.5 -6t22 -16.5t11 -25t-1.5 -31.5t-12.5 -32t-21 -27t-29 -19t-34.5 -7h-17q-52 0 -85 12.5t-52 33 t-26.5 47.5t-7.5 55t5 56t11 50q11 40 32 76t51 65t69 51t86 36q6 2 15.5 3t19.5 0t21 -5t21 -14l46 -48l72 48q16 10 28.5 14.5t23 5t19 -0.5t14.5 -3q43 -12 77 -33t55 -50t29 -64t0 -75l-40 -190q-12 -58 -36.5 -105t-58 -84t-75.5 -64t-89 -44.5t-98 -26t-103 -8.5h-110 q-104 0 -180 25t-122 70t-62 109z" />
<glyph unicode="&#xe53;" horiz-adv-x="962" d="M131 157.5q-3 40.5 2.5 86.5t15.5 92l11 51q17 80 48.5 140.5t76 103.5t101.5 69q58 26 126 38q5 1 12.5 1.5t17.5 -1.5t20 -7t20 -15l46 -48l70 48q15 10 27 15t22 7t17.5 1t11.5 -1q66 -10 111.5 -36t70 -64t30.5 -85t-4 -99l-78 -366q-4 -21 -16.5 -39.5t-29 -31.5 t-37 -20t-41.5 -7t-38.5 7t-28.5 20t-15 31t0 40l80 377q4 18 3 35.5t-7 31t-16 22t-24 9.5l-157 -109l-101 107q-14 -4 -30 -14t-31 -29t-28 -48q-13 -28 -22 -70l-13 -62q-9 -44 -14.5 -76.5t-1.5 -54t23 -32t57 -9.5q19 0 33.5 -6t23 -18t11 -27t-1.5 -33q-4 -16 -12 -30 t-20 -25t-27 -19t-31 -10q-72 -10 -121 -1.5t-79 31t-45 56t-18 74z" />
<glyph unicode="&#xe54;" horiz-adv-x="962" d="M138 251q0 37 8 73l17 78q18 84 59.5 146t103 103t141 60.5t171.5 19.5h176q27 0 44 13q16 14 28 36q11 21 27.5 36.5t36 23.5t41 9t43.5 -7q19 -7 30.5 -21t15.5 -32.5t1 -39.5t-15 -41q-18 -32 -43 -60.5t-59 -49.5t-79 -33t-102 -12h-197q-42 0 -78 -8.5t-64 -25 t-47 -41t-25 -56.5l-20 -92q-7 -32 -3.5 -60t18.5 -49t43 -33t70 -12q-11 20 -16 43q-6 23 0 51q2 11 8 27.5t16 35.5t27 38t42 35t59 28t81 16q18 2 32.5 -2t25.5 -13t17 -23t6 -32t-7 -34t-19.5 -28.5t-29 -21.5t-34.5 -13q-16 -4 -22 -12.5t-9 -20.5q-4 -16 -1.5 -30 t10.5 -23.5t21 -15t30 -5.5h142q18 0 32 -7t22.5 -19t11.5 -28t-1 -34t-14 -34t-23 -28t-30 -19t-35 -7h-392q-70 0 -120 14t-84 39t-53 57t-28 68t-7 73z" />
<glyph unicode="&#xe55;" horiz-adv-x="962" d="M138 251q0 37 8 73l17 78q14 64 41.5 115t67.5 90t91 65t111 40l3 11q7 33 27 63t48 52t62 35.5t68 13.5q36 0 64 -12.5t46 -34t26 -50t2 -59.5q24 2 40 15q16 12 26 34q11 21 28.5 36.5t37.5 23.5t41 9t41 -7q18 -8 30 -22t16 -32t1 -39t-15 -41q-18 -32 -43 -60.5 t-59 -49.5t-79 -33t-102 -12h-197q-42 0 -78 -8.5t-64 -25t-47 -41t-25 -56.5l-20 -92q-7 -32 -3.5 -60t18.5 -49t43 -33t70 -12q-11 20 -16 43q-6 23 0 51q2 11 8 27.5t16 35.5t27 38t42 35t59 28t81 16q18 2 32.5 -2t25.5 -13t17 -23t6 -32t-7 -34t-19.5 -28.5t-29 -21.5 t-34.5 -13q-16 -4 -22 -12.5t-9 -20.5q-4 -16 -1.5 -30t10.5 -23.5t21 -15t30 -5.5h142q18 0 32 -7t22.5 -19t11.5 -28t-1 -34t-14 -34t-23 -28t-30 -19t-35 -7h-392q-70 0 -120 14t-84 39t-53 57t-28 68t-7 73zM592 705q2 -10 8 -17.5t15 -11.5t21 -4t23 4t20 11.5t15 17 t9 20.5q2 12 0 21.5t-8 17.5t-15.5 12t-20.5 4q-12 0 -22.5 -4t-19.5 -12t-16 -17.5t-9 -21.5q-2 -10 0 -20z" />
<glyph unicode="&#xe56;" horiz-adv-x="979" d="M196 246q12 55 39 95.5t67 66.5t91.5 38.5t111.5 12.5q17 0 31 -6.5t22.5 -17.5t12 -26t-0.5 -32t-13 -32t-21 -26t-27.5 -17.5t-32.5 -6.5q-20 0 -34 -4t-23 -11.5t-14 -17.5q-5 -8 -8 -20q-4 -16 4 -30t25.5 -24.5t43.5 -17t60 -6.5q38 -1 76 10t71 33t56.5 55t32.5 76 l10 47q20 94 -14.5 137t-123.5 43q-30 0 -61 -2.5t-63 -8.5t-66 -17q-36 -11 -72 -26q-42 -19 -75 -11t-48 40l-47 112q-8 16 -7 34.5t8 36t21 33.5t32 26t37 13.5t36 0t30.5 -13.5t20.5 -27l30 -67q54 25 119 37.5t135 16.5q76 2 131 -11t94 -36.5t61.5 -57t32.5 -73.5 t8.5 -84.5t-11.5 -90.5l-12 -51q-14 -47 -36 -91.5t-53 -84.5t-72 -72t-90.5 -55t-108.5 -35t-127 -10q-76 2 -135.5 22t-97.5 54t-53 80t-3 100z" />
<glyph unicode="&#xe57;" horiz-adv-x="1161" d="M131 157.5q-3 40.5 3 86.5t15 92l11 53q30 143 111 228.5t205 116.5q7 2 17.5 3t22.5 0t24 -5t22 -15l44 -45l69 46q14 10 25.5 14t20.5 5t16 0t11 -2q66 -14 104 -44t54.5 -73.5t14.5 -99.5t-16 -122l-13 -60q-8 -32 -20 -71t-34 -79q22 8 41 26t35 42t28 52t18 56 l53 252q10 46 29 83.5t45.5 65t60.5 45.5t72 26q20 4 39 2t33 -11t23 -23t9 -34q0 -16 -5 -32.5t-15.5 -31t-25 -26t-32.5 -18.5q-19 -8 -28.5 -25.5t-15.5 -44.5l-46 -215q-16 -77 -58 -145t-104.5 -120t-143.5 -83t-176 -33q-20 0 -36 7t-26.5 20t-15 31t-0.5 36 q6 26 24 48q20 24 33 50t22 52t14 50t10 46l16 74q6 32 8 56t-0.5 42t-8.5 31t-14 20l-144 -98l-97 102q-12 -8 -25.5 -21t-25.5 -32.5t-22.5 -45.5t-17.5 -58l-14 -66q-9 -44 -14.5 -76.5t-1.5 -54t23 -32t57 -9.5q19 0 33.5 -6t23 -18t11 -27t-1.5 -33q-4 -16 -12 -30 t-20 -25t-27 -19t-31 -10q-72 -10 -121 -1.5t-79 31t-45 56t-18 74z" />
<glyph unicode="&#xe58;" horiz-adv-x="942" d="M132 186q-6 42 4 90l26 124q16 78 53 139t93.5 104t131 65.5t168.5 22.5h178q26 0 43 14t29 38q11 21 27.5 36t36 23.5t41 9t43.5 -6.5q19 -7 30.5 -21t16 -32.5t1.5 -39.5q-4 -22 -15 -42q-18 -33 -43.5 -62.5t-60.5 -51.5t-80 -34.5t-101 -12.5h-199q-42 0 -73.5 -11 t-54.5 -28.5t-36.5 -40.5t-18.5 -47l-31 -146q-4 -18 -1.5 -34t9.5 -29.5t18 -23t23 -13.5l146 104l109 -106q14 2 26 7t22.5 15.5t18.5 27t14 40.5q2 10 3 20.5t-1 19t-8 14.5q-4 6 -16 6q-20 0 -33 6.5t-20 17.5t-9 25.5t2 29.5q4 18 14 34.5t24 27.5t32 18t38 7 q47 0 79.5 -10t54.5 -26t33 -38t15 -47t2 -52t-8 -53q-11 -52 -32.5 -95t-54.5 -77t-76 -57.5t-96 -34.5q-12 -2 -27.5 -5.5t-32.5 -4t-33.5 3.5t-29.5 17l-54 53l-70 -52q-15 -12 -30.5 -16t-30.5 -4t-28 3t-22 5q-54 14 -92 41.5t-59.5 64t-27.5 80.5z" />
<glyph unicode="&#xe59;" horiz-adv-x="973" d="M134 157.5q-4 40.5 0.5 86.5t14.5 92l11 49q18 88 47 154.5t72 111.5t103 68t142 23q14 0 31.5 -0.5t34.5 -2t33 -5.5q17 -3 29 -9q16 -8 29 -19.5t23 -25.5l45 41q7 6 20 13.5t29 7.5h62q26 0 41 12t25 37q8 20 23 34t33 21.5t38 7.5t40 -7q17 -6 27.5 -18.5t14.5 -28.5 t1 -35t-13 -39q-16 -31 -38 -57.5t-54 -46t-76 -30t-104 -10.5q-5 0 -10 -2q-4 0 -6 -2l-37 -31l117 -417q5 -18 1.5 -37.5t-13.5 -37t-25.5 -32t-35.5 -23.5q-20 -8 -39.5 -9t-35.5 5t-28 19t-16 31l-122 433q-13 40 -32 63q-20 23 -52 23q-18 0 -34 -8.5t-31.5 -28 t-29 -53t-23.5 -84.5l-12 -53q-9 -44 -13.5 -77t2.5 -54.5t27 -31t60 -4.5q20 2 33.5 -4.5t22 -18.5t10.5 -28q4 -16 0 -33q-4 -16 -13 -31t-21 -27t-27 -20.5t-31 -10.5q-72 -10 -121.5 -1.5t-81 31t-47.5 56t-20 74z" />
<glyph unicode="&#xe5a;" horiz-adv-x="1218" d="M202 471q-12 53 2 117q10 48 31 85t48 65t60 47t68.5 31t71.5 18t70 6h80q18 0 31.5 -7t21.5 -19t11 -27t-1 -33t-13 -34t-22.5 -27.5t-30 -18t-34.5 -6.5h-80q-42 0 -66 -22q-25 -22 -33 -60q-4 -18 -1.5 -37t15.5 -34t37 -24t64 -9q92 0 148 32q56 30 71 100l29 137 q4 22 16 39.5t29 30.5t37 21t42 8t39 -8t28.5 -21t16 -31t-0.5 -39l-141 -663q-4 -22 -16 -39.5t-29 -31t-37 -20.5t-42 -7t-39 7t-28.5 20.5t-16.5 31.5q-4 17 1 39l55 258q-43 -20 -92.5 -31.5t-101.5 -11.5q-88 0 -150.5 20.5t-99 57.5t-48.5 90zM950 49q-4 17 0 39 l140 663q4 22 16.5 39.5t29 30.5t37.5 21t42 8q22 0 39 -8t28.5 -21t15.5 -31t0 -39l-142 -663q-4 -22 -16 -39.5t-29 -31t-37 -20.5t-42 -7t-39 7t-28 20.5t-15 31.5z" />
<glyph unicode="&#xe5b;" horiz-adv-x="1949" d="M163 322q-1 56 11 112q10 50 32 101t53.5 99t72 90.5t89.5 74t105 49.5t119 18q74 0 126 -23t83.5 -62t43 -92t5.5 -111q-2 -20 -11 -38t-23 -33t-32.5 -25t-38.5 -12q-20 -3 -37 1.5t-29 15.5t-19 27t-5 36q2 58 -20 87t-71 33q-48 -1 -88 -21t-70.5 -53.5t-50.5 -77.5 q-22 -44 -32 -94q-10 -49 -2 -94.5t33.5 -79.5t67 -55t96.5 -21q52 0 99.5 17t88.5 46.5t76.5 71t64 90.5t50.5 105t36 114q4 20 16 37t28.5 30t36 21t38.5 7q21 0 38 -9q17 -8 27 -24q26 -39 47 -76.5t35 -69.5q12 14 27 31l30 34t30 35t30 34q9 10 19.5 14.5t20.5 4.5 t18.5 -4.5t12.5 -14.5q19 -38 35.5 -73t26.5 -61l36 40q17 18 33 34h319q20 0 37 -7.5t28 -21t15 -31.5t-1 -39q-4 -20 -15.5 -38.5t-28.5 -32t-37 -20.5q-20 -8 -40 -8h-244q-12 -14 -27 -30.5t-32 -37t-38 -46.5t-45 -59q-6 -9 -15 -14t-18 -4.5t-16 5.5q-7 6 -10 16 q-14 48 -28.5 87t-26.5 71q-26 -32 -58 -78q-32 -44 -70 -106q-10 -16 -22 -25t-23.5 -9t-21 8.5t-12.5 26.5q-11 54 -22 94t-21 68q-25 -60 -61.5 -112.5t-80.5 -97.5t-95.5 -81t-107 -61t-113.5 -38q-60 -13 -118 -13q-72 0 -129 18t-99.5 51t-71 77t-43.5 95t-16 107z " />
<glyph unicode="&#x2000;" horiz-adv-x="850" />
<glyph unicode="&#x2001;" horiz-adv-x="1700" />
<glyph unicode="&#x2002;" horiz-adv-x="850" />
<glyph unicode="&#x2003;" horiz-adv-x="1700" />
<glyph unicode="&#x2004;" horiz-adv-x="566" />
<glyph unicode="&#x2005;" horiz-adv-x="425" />
<glyph unicode="&#x2006;" horiz-adv-x="283" />
<glyph unicode="&#x2007;" horiz-adv-x="283" />
<glyph unicode="&#x2008;" horiz-adv-x="212" />
<glyph unicode="&#x2009;" horiz-adv-x="340" />
<glyph unicode="&#x200a;" horiz-adv-x="94" />
<glyph unicode="&#x200b;" />
<glyph unicode="&#x2010;" horiz-adv-x="669" d="M124 359q-4 15 0 37t15 37.5t25.5 25t32 13.5t37.5 4h402q19 0 35.5 -4t26.5 -13.5t14 -25t0 -37.5t-15 -37t-25.5 -25t-32 -14t-37.5 -4h-402q-20 0 -36 4t-26 14t-14 25z" />
<glyph unicode="&#x2011;" horiz-adv-x="669" d="M124 359q-4 15 0 37t15 37.5t25.5 25t32 13.5t37.5 4h402q19 0 35.5 -4t26.5 -13.5t14 -25t0 -37.5t-15 -37t-25.5 -25t-32 -14t-37.5 -4h-402q-20 0 -36 4t-26 14t-14 25z" />
<glyph unicode="&#x2012;" horiz-adv-x="669" d="M124 359q-4 15 0 37t15 37.5t25.5 25t32 13.5t37.5 4h402q19 0 35.5 -4t26.5 -13.5t14 -25t0 -37.5t-15 -37t-25.5 -25t-32 -14t-37.5 -4h-402q-20 0 -36 4t-26 14t-14 25z" />
<glyph unicode="&#x2013;" horiz-adv-x="866" d="M82 359q-2 15 2 37t14.5 37t24.5 25t31 14.5t35 4.5h691q18 0 33 -4.5t25 -14.5t14 -25t-1 -37q-4 -22 -14.5 -37t-24.5 -25t-31 -14t-35 -4h-691q-18 0 -33.5 4t-25.5 14t-14 25z" />
<glyph unicode="&#x2014;" horiz-adv-x="1597" d="M82 359q-2 15 2 37t14.5 37t24.5 25t31 14.5t35 4.5h1421q18 0 33 -4.5t25 -14.5t14 -25t0 -37t-15 -37t-25 -25t-31 -14t-35 -4h-1421q-18 0 -33.5 4t-25.5 14t-14 25z" />
<glyph unicode="&#x2018;" horiz-adv-x="426" d="M251 713q-1 31 6 65q12 59 40.5 105.5t68.5 84.5q13 12 31 25t37 24t37.5 18t34.5 7q22 0 32 -12.5t6 -28.5q-3 -14 -14.5 -24t-28 -19.5t-36.5 -20.5t-39.5 -27t-36.5 -40q-17 -22 -27 -56q10 6 22 9t26 3q24 0 40 -9t25.5 -23.5t12 -33.5t-1.5 -39q-5 -23 -18 -43 t-31.5 -35.5t-40.5 -24t-45 -8.5q-33 0 -55 13t-33 36t-12 54z" />
<glyph unicode="&#x2019;" horiz-adv-x="426" d="M231 650q3 14 15 24t28 20t36 21t39.5 27t36.5 39t28 57q-10 -6 -22 -9t-27 -3q-24 0 -40 8.5t-25.5 23t-11.5 33.5t2 39q5 23 17.5 43.5t31.5 35.5t41 24t44 9q33 0 55 -13.5t33 -36.5t12.5 -53.5t-6.5 -65.5q-13 -59 -40.5 -106t-68.5 -84q-13 -12 -31 -25t-37 -23.5 t-38 -17.5t-34 -7q-22 0 -31.5 12t-6.5 28z" />
<glyph unicode="&#x201c;" horiz-adv-x="719" d="M251 713q-1 31 6 65q12 59 40.5 105.5t68.5 84.5q13 12 31 25t37 24t37.5 18t34.5 7q22 0 32 -12.5t6 -28.5q-3 -14 -14.5 -24t-28 -19.5t-36.5 -20.5t-39.5 -27t-36.5 -40q-17 -22 -27 -56q10 6 22 9t26 3q24 0 40 -9t25.5 -23.5t12 -33.5t-1.5 -39q-5 -23 -18 -43 t-31.5 -35.5t-40.5 -24t-45 -8.5q-33 0 -55 13t-33 36t-12 54zM546 713q-2 31 6 65q12 59 41 105.5t69 84.5q13 12 30.5 25t36.5 24t38 18t35 7q22 0 32 -12.5t6 -28.5q-3 -14 -14.5 -24t-28.5 -19.5t-37 -20.5t-39 -27t-36 -40q-17 -22 -28 -56q10 6 22 9q13 3 27 3 q24 0 40 -9t25 -23.5t12 -33.5t-1 -39q-5 -23 -18.5 -43t-31.5 -35.5t-40 -24t-46 -8.5q-33 0 -54.5 13t-32.5 36t-13 54z" />
<glyph unicode="&#x201d;" horiz-adv-x="719" d="M231 650q3 14 15 24t28 20t36 21t39.5 27t36.5 39t28 57q-10 -6 -22 -9t-27 -3q-24 0 -40 8.5t-25.5 23t-11.5 33.5t2 39q5 23 17.5 43.5t31.5 35.5t41 24t44 9q33 0 55 -13.5t33 -36.5t12.5 -53.5t-6.5 -65.5q-13 -59 -40.5 -106t-68.5 -84q-13 -12 -31 -25t-37 -23.5 t-38 -17.5t-34 -7q-22 0 -31.5 12t-6.5 28zM525 650q3 14 15 24t28 20t36 21t39.5 27t36.5 39t28 57q-10 -6 -22 -9t-27 -3q-24 0 -40 8.5t-25.5 23t-11.5 33.5t2 39q5 23 17.5 43.5t31.5 35.5t41 24t44 9q33 0 55 -13.5t33 -36.5t12.5 -53.5t-6.5 -65.5q-13 -59 -40.5 -106 t-68.5 -84q-13 -12 -31 -25t-37 -23.5t-38 -17.5t-34 -7q-22 0 -31.5 12t-6.5 28z" />
<glyph unicode="&#x2022;" horiz-adv-x="585" d="M127.5 333q-10.5 45 0.5 97q7 32 22.5 63t38 58t50.5 49.5t59.5 39t66 25.5t69.5 9q53 0 95.5 -20t70.5 -54t39 -78t1 -92q-11 -52 -41 -97t-72.5 -78t-93.5 -53t-103 -20t-94.5 20t-70 53t-38 78z" />
<glyph unicode="&#x202f;" horiz-adv-x="340" />
<glyph unicode="&#x205f;" horiz-adv-x="425" />
<glyph unicode="&#x20ac;" horiz-adv-x="1091" d="M130 377q-4 11 0 29q4 19 16 30.5t28.5 17.5t34.5 8q19 1 35 1q2 10 3 19t3 19t5 20t5 20h-30q-14 0 -26.5 1.5t-21.5 7.5t-12.5 17t0.5 29q6 26 19 37.5t31 16t38 3.5t36 -1h6q36 80 89 148t123 118t155 78t183 28q65 0 118 -12t93.5 -32t68.5 -47t45.5 -56t23 -58 t1.5 -55q-4 -24 -15 -43t-27 -32.5t-37 -20.5t-44 -7q-25 0 -41 7.5t-27 20.5t-19 29t-17 33t-21 33t-30 29t-45 20.5t-65 7.5q-40 0 -79.5 -12.5t-76 -36.5t-69.5 -59t-59 -81h210q15 0 28.5 -1t22.5 -6.5t13 -16t0 -29.5t-12 -30.5t-20 -17.5t-26 -8t-30 -2h-232l-4 -20 q-4 -10 -6 -20t-4 -19q0 -10 -2 -19h232q15 0 28.5 -1.5t23 -6.5t13.5 -16t0 -29q-4 -19 -12.5 -30.5t-20 -17.5t-26 -8t-30.5 -2h-212q4 -42 18 -77t40 -60t64 -39t91 -14q44 0 79 14t62.5 34t50.5 45t45 46t44 35t47 16q22 2 40 -4t29.5 -18t16.5 -28t3 -36 q-4 -36 -23 -71t-52 -67t-75.5 -59.5t-92 -47.5t-104 -31.5t-109.5 -11.5q-99 0 -175 24t-127.5 71t-77.5 117t-24 162h-39q-14 0 -27 1.5t-22.5 7t-13.5 16.5z" />
<glyph unicode="&#x2122;" horiz-adv-x="1376" d="M327 929q-1 9 1 17q2 9 7 18.5t13 17.5t20 13t28 5h290q16 0 26 -5t14.5 -13t5.5 -17t-1 -19q-2 -8 -6.5 -17t-12.5 -17t-20 -13t-28 -5h-76l-70 -332q-5 -24 -16.5 -38t-24.5 -23t-25 -12t-20 -3t-19.5 3t-21 12t-13.5 23q-5 14 0 38l70 332h-74q-16 0 -25.5 5t-15 13 t-6.5 17zM710 524q-4 14 0 38l72 339q6 32 20.5 52.5t31.5 32.5t35 16t33 4q46 0 72 -21t34 -69l35 -196l118 196q28 46 63 68t81 22q15 0 31 -4t28 -16t18 -33q4 -21 -2 -52l-72 -339q-5 -24 -16 -38t-24.5 -23t-25.5 -12t-20 -3t-19.5 3t-21 12t-13.5 23q-5 14 0 38 l50 238h-2l-140 -252q-18 -31 -38 -46.5t-45 -15.5q-24 0 -38 15.5t-19 46.5l-32 252h-2l-50 -238q-5 -24 -16.5 -38t-24.5 -23t-26 -12t-21 -3t-19 3t-20.5 12t-14.5 23z" />
<glyph unicode="&#x25cc;" horiz-adv-x="934" d="M302 404l89 38q-7 -18 -12 -38t-5 -40zM332 228l50 79q7 -17 17.5 -31t24.5 -24zM422 580l76 -29q-24 -11 -42 -23t-30 -28zM478 228q18 -5 34 -5q14 1 38 7l-51 -78zM547 572l58 80l21 -78q-19 4 -40.5 3t-38.5 -5zM614 250q19 10 34.5 23t29.5 28l6 -75zM676 553l96 27 l-52 -82q-7 17 -18.5 30.5t-25.5 24.5zM716 366q10 17 14 35.5t4 38.5l68 -38z" />
<glyph unicode="&#x25fc;" horiz-adv-x="740" d="M0 0v740h740v-740h-740z" />
<glyph unicode="&#xf700;" horiz-adv-x="823" d="M187 361.5q-3 15.5 1 33.5t13 33.5t22.5 27.5t30 19t34.5 7h134q18 0 29 -7t18 -19t10 -27.5t5 -33.5l19 -155q14 23 29.5 50.5t32 56t32 57t27.5 53.5t21 46t11 33q14 66 -12 104t-96 38q-46 0 -83 -22t-65 -65q-14 -20 -33.5 -32.5t-41 -17.5t-42.5 -3t-36 11 q-18 10 -27.5 25.5t-12 33.5t4 38t20.5 39q32 40 72 72t87 54.5t100 34.5t111 12q32 0 64 -4q33 -4 63 -14q14 5 26.5 16.5t22.5 25.5q14 20 34 33t41 18t41 2.5t37 -13.5q17 -10 26 -27t11 -37t-5 -41t-21 -39q-16 -18 -34 -32.5t-40 -24.5q13 -32 15.5 -73.5t-7.5 -94.5 q-9 -42 -31.5 -91.5t-55.5 -107.5t-74.5 -123t-89.5 -139q-14 -22 -34 -41t-43 -32.5t-48.5 -21t-51.5 -7.5q-27 0 -50 8t-40.5 23t-28.5 35t-15 44l-32 209h-31q-18 0 -31.5 6.5t-21.5 18.5t-11 27.5z" />
<glyph unicode="&#xf701;" d="M-720 1007q-2 15 1 31q4 16 12.5 31t20.5 26t27 17t31 6h454q16 0 29 -6t20 -17t10 -26t-1 -31t-12 -31t-20.5 -25.5t-27.5 -17.5q-16 -6 -32 -6h-454q-16 0 -28.5 6.5t-20 17t-9.5 25.5z" />
<glyph unicode="&#xf702;" d="M-720 1007q-2 15 1 31q4 16 12.5 31t20.5 26t27 17t31 6h315l9 44q4 20 16 38t28 30.5t36 19.5t40 7t37 -7t27.5 -19.5t15.5 -30.5q4 -18 -1 -38l-23 -109q-4 -20 -16 -37.5t-28 -30.5t-36 -20t-40 -7h-414q-16 0 -28.5 6.5t-20 17t-9.5 25.5z" />
<glyph unicode="&#xf703;" d="M-720 1007q-2 15 1 31q4 16 12.5 31t20.5 26t27 17t31 6h219l1 6q6 32 25 61t44.5 50t56 33t63.5 12q32 0 57.5 -12.5t42.5 -34t23 -50.5t-1 -61q-8 -36 -26.5 -65.5t-44.5 -51.5t-57 -34.5t-63 -12.5h-374q-16 0 -28.5 6.5t-20 17t-9.5 25.5zM-308 1103.5 q2 -9.5 8 -16.5t16 -11q8 -5 20 -5t23 4.5t20 11.5t15 17q8 10 10 20q2 12 0 22t-8 17.5t-16 12.5q-8 4 -20 4t-23 -4.5t-20 -12t-16 -17.5t-9 -22q-2 -11 0 -20.5z" />
<glyph unicode="&#xf704;" d="M-720 1007q-2 15 1 31q4 16 12.5 31t20.5 26t27 17t31 6h128l14 64q4 17 13 30.5t21 23.5t28 15.5t33 5.5t31 -5.5t22.5 -15.5t12 -24t-0.5 -30l-14 -64h66l14 64q4 17 12.5 30.5t21 23.5t28.5 15.5t33 5.5q34 0 52.5 -20.5t11.5 -54.5l-27 -129q-4 -20 -16 -37.5 t-28 -30.5t-36 -20t-40 -7h-414q-16 0 -28.5 6.5t-20 17t-9.5 25.5z" />
<glyph unicode="&#xf705;" d="M-368 1002q-4 18 0 38l27 128q4 21 16 38.5t28.5 30.5t36.5 20t40 7t37 -7t28 -20t15 -30t0 -39l-28 -128q-4 -21 -16 -38.5t-28 -30t-36 -19.5t-40 -7t-37 7t-28 19.5t-15 30.5z" />
<glyph unicode="&#xf706;" d="M-581.5 1138q-1.5 12 1.5 26t9.5 26t16.5 21.5t22 15t26 5.5h114q14 0 23 -5.5t15 -15t7.5 -21.5t-1.5 -26l-12 -58q26 2 49 9t43 19t36 27t26 32q10 16 24 26.5t29 16.5t30.5 5t28.5 -7q12 -7 20 -19.5t10 -27.5t-2 -31t-14 -32q-23 -34 -56 -64t-75.5 -52t-93.5 -34.5 t-111 -12.5h-67q-14 0 -23.5 5.5t-15.5 14.5t-7 21t2 26l15 68h-23q-14 0 -23.5 5.5t-15.5 15t-7.5 21.5z" />
<glyph unicode="&#xf707;" d="M-660.5 990q-1.5 12 0.5 25q10 48 29.5 83.5t43 58.5t49.5 35t52 12t45 -14t31 -36q22 22 47 36t53 14q17 0 32.5 -6t27 -17t19 -26.5t9.5 -35.5q11 12 22.5 30t19.5 39q6 14 17 25t24 18t26.5 9t26.5 -1q14 -4 22.5 -12.5t11.5 -20.5t1 -26q-3 -16 -9 -30 q-16 -34 -38 -65t-48 -57t-53 -44t-53 -24h-52q-18 0 -27 12.5t-7 31.5q2 13 3 25.5t-1 21.5t-6.5 15t-13.5 6q-14 0 -23 -10.5t-14 -27.5q-5 -19 -19 -31.5t-32 -12.5q-17 0 -25.5 13t-5.5 31q3 16 -1.5 27t-18.5 11q-19 0 -29 -16t-16 -41q-8 -33 -28 -49t-46 -16 q-14 0 -24 5t-15.5 14t-7 21z" />
<glyph unicode="&#xf708;" d="M-528 1106q-2 14 0 28q3 14 10.5 26.5t18.5 22t24 14.5t28 5h65l6 30q4 18 14 34t24.5 27t32 17t36.5 6t34 -6t25 -17t14 -27t0 -34l-6 -30h64q14 0 25 -5t18 -15t9 -22.5t-2 -26.5q-3 -14 -10.5 -27t-18 -22.5t-24 -15t-27.5 -5.5h-64l-6 -28q-4 -19 -15 -34.5t-25 -27 t-32 -17.5t-37 -6t-34 6t-24.5 17.5t-13 27t0.5 34.5l6 28h-65q-14 0 -25.5 5.5t-17.5 15.5t-8 22z" />
<glyph unicode="&#xf709;" d="M-457 1007q-3 17 1 36.5t17 37.5q22 33 51.5 61t66 48.5t80.5 34t94 17.5q36 2 56 -14t19 -46q0 -15 -6.5 -30t-17 -27t-24.5 -20.5t-30 -9.5q-26 -2 -46 -10t-35 -19.5t-26.5 -25.5t-19.5 -31q-10 -20 -25.5 -32.5t-34 -19.5t-37.5 -7q-20 0 -38 6q-19 7 -30.5 20.5 t-14.5 30.5z" />
<glyph unicode="&#xf70a;" d="M-57.5 1002q-4.5 18 0.5 38l31 144q4 21 15.5 38.5t28 30t36.5 19.5t40 7t37 -7t28 -19.5t15 -30.5t0 -38l-31 -144q-4 -21 -16 -38.5t-28.5 -30t-36.5 -19.5t-40 -7t-37 7t-27.5 19.5t-15 30.5z" />
<glyph unicode="&#xf70b;" d="M-352 1138q-2 12 0 26q3 14 10.5 26t17.5 21.5t23 15t27 5.5h121q14 0 24.5 -5.5t16.5 -15t8 -21.5t-1 -26l-12 -58q27 2 51.5 9t45.5 19t37.5 27t27.5 32q10 16 24.5 26.5t30.5 16.5t33 5t31 -7q14 -7 22 -19.5t10 -27.5t-2 -31t-14 -32q-24 -34 -59 -64t-79 -52 t-99 -34.5t-118 -12.5h-71q-14 0 -24.5 5.5t-16.5 14.5t-7.5 21t0.5 26l15 68h-24q-14 0 -24.5 5.5t-16.5 15t-8 21.5z" />
<glyph unicode="&#xf70c;" d="M-511.5 990q-2.5 12 0.5 25q10 48 31.5 83.5t49 58.5t59 34t61.5 11t54 -14t40 -35q25 22 54.5 35.5t64.5 13.5q20 0 38.5 -6t33.5 -16.5t24.5 -26t12.5 -35.5q13 12 25.5 30t22.5 39q8 14 20 25.5t27 18t32 8.5q17 3 32 -1q18 -4 28.5 -13t14.5 -21t2 -26t-9 -28 q-18 -34 -43.5 -65.5t-54.5 -57.5t-61 -43q-32 -18 -64 -24h-64q-21 0 -32.5 12.5t-9.5 31.5q2 13 2.5 25t-2 21.5t-7.5 15t-16 5.5q-14 0 -26.5 -9t-18.5 -33q-2 -10 -7.5 -17.5t-14 -13.5t-18.5 -9t-20 -3q-21 0 -33 12q-13 12 -9 31q4 23 -3 32.5t-22 9.5q-20 0 -32 -16 t-18 -40q-8 -33 -32 -49t-54 -16q-17 0 -29 5t-19.5 14t-10 21z" />
<glyph unicode="&#xf70d;" d="M-170 1111.5q-2 13.5 2 28.5q3 15 10.5 28.5t18.5 23t25 15t29 5.5h68l7 30q4 20 14.5 36.5t26 28t33.5 18.5t38 7t36 -7t26 -18.5t14 -28t0 -36.5l-7 -30h68q15 0 26.5 -5.5t18 -15t8.5 -23.5t0 -28q-3 -15 -11 -28.5t-19.5 -23.5t-25 -15.5t-28.5 -5.5h-68l-6 -30 q-4 -20 -15 -36.5t-27 -28t-34 -18t-38 -6.5t-35 6.5t-25.5 18t-14 28.5t0.5 36l6 30h-68q-15 0 -26.5 5.5t-18.5 15.5t-9 23.5z" />
<glyph unicode="&#xf70e;" d="M-156.5 1007q-3.5 17 0.5 37q6 19 18 37q22 33 51 61t66 48.5t80.5 34t93.5 17.5q36 2 56 -14t19 -46q0 -15 -6.5 -30t-17 -27t-24.5 -20.5t-30 -9.5q-26 -2 -46 -10t-35 -19.5t-26.5 -25.5t-19.5 -31q-9 -20 -25 -32.5t-34 -19.5t-38 -7t-38 6q-19 7 -30 20.5 t-14.5 30.5z" />
<glyph unicode="&#xf70f;" horiz-adv-x="1333" d="M114.5 49.5q-2.5 14.5 1.5 31.5l78 371q4 18 3 38t-13 38q-10 17 -16 28.5t-6 22.5t5 23t17 30q29 44 68.5 85t91.5 72.5t116 50t142 18.5q73 0 126.5 -14t90.5 -38t59 -58t31 -73t7 -83t-11 -90l-46 -216q-6 -32 -1 -55.5t18.5 -40t34.5 -24.5t45 -8t48 7t44 23t35 40 t22 58l99 463q4 22 16 40.5t29.5 31.5t38 21t42.5 8t40 -8t29 -21t15 -32t0 -40l-100 -475q-11 -50 -32.5 -92t-51.5 -74.5t-66 -57t-76.5 -40t-83 -23t-85.5 -7.5q-44 0 -83.5 8t-73.5 25t-60 41.5t-42 57t-20 73.5t6 89l52 242q6 28 3 56.5t-17.5 51t-43.5 36.5 q-28 15 -76 16q-34 0 -63 -7t-53 -18.5t-42 -26.5q-18 -14 -28 -28q21 -25 28 -62q6 -38 -4 -84l-61 -288h20q16 0 29 -6.5t20.5 -17.5t10.5 -25.5t-1 -31.5q-4 -16 -12.5 -31t-21 -26t-27.5 -17.5t-32 -6.5h-153q-16 0 -29 6.5t-20.5 17.5t-10 25.5z" />
<glyph unicode="&#xf710;" d="M-418 1010q-4 16 0 36l16 72q4 19 14.5 35t25.5 27.5t33.5 18t36.5 6.5q19 0 34.5 -6.5t25.5 -18t14 -27.5t0 -35h474q16 0 29 -6t20.5 -17t10 -26t-1.5 -31t-12 -31t-20.5 -25.5t-27.5 -17.5q-16 -6 -32 -6h-566q-19 0 -34.5 7t-25.5 18t-14 27z" />
<glyph unicode="&#xf711;" d="M-473 1044q-7 32 1 68q8 37 28.5 69t49 55.5t63.5 37.5t71 14q35 0 63.5 -14t48 -37.5t27 -55.5t-0.5 -69q-8 -36 -29 -68t-50 -55t-64 -37t-70 -14q-36 0 -65 14t-47.5 37t-25.5 55zM-362 1112q-2 -12 1 -23.5t10 -20.5t17 -14.5t22 -5.5q13 0 26.5 5.5t24.5 14.5t19 20 q8 12 10 24q3 13 0 25t-10.5 21t-18 14.5t-23.5 5.5q-12 0 -25 -5.5t-23.5 -14.5t-18.5 -21t-11 -25z" />
<glyph unicode="&#xf712;" d="M-669 1131q1 21 5 39q11 52 37.5 90t62.5 62.5t78.5 36t85.5 11.5h350q14 0 23.5 -5t15.5 -14t8 -21.5t-1 -26.5t-10 -26.5t-16.5 -21.5t-22.5 -14t-26 -5h-336q-26 0 -43.5 -7t-27 -17.5t-14 -22t-6.5 -19.5q-1 -6 -1.5 -15t2 -18t9 -15t18.5 -6q14 0 26 8t20 24 q10 23 30 34q22 12 44 12q24 0 39.5 -11t16.5 -35q0 -14 7 -23t20 -9q12 0 21.5 7t14.5 19q12 28 35 40q24 12 50 10q15 -2 27 -8t19.5 -16.5t8.5 -25.5q1 -14 -5 -34q-12 -35 -31 -59.5t-43 -39.5t-50 -22t-54 -7q-20 0 -36.5 5.5t-30 14t-23.5 19.5t-16 23 q-12 -12 -28 -23.5t-34 -20t-38 -13.5q-18 -5 -38 -5q-34 0 -59 9t-41 24t-26 35t-14 41t-3 42z" />
<glyph unicode="&#xf713;" d="M-246 1374q-4 18 0 38l24 114q4 20 15 37t27 29t35 19t39 7t36.5 -7t27 -19t14.5 -29t0 -37l-24 -114q-4 -20 -15.5 -37t-27 -30t-35 -19.5t-39.5 -6.5t-36.5 6.5t-26.5 19.5t-14 29z" />
<glyph unicode="&#xf714;" d="M-396 1506q-2 12 1 26t10 26t17 21.5t23 15t27 5.5h121q14 0 24.5 -5.5t16.5 -15t8 -21.5t0 -26l-13 -58q30 2 55 10t45.5 19t37 26t27.5 32q10 16 24 26.5t30 16.5t32 5t30 -7q14 -7 22 -19.5t10 -27.5t-2 -31t-14 -32q-24 -34 -59 -64t-79 -52t-99 -34.5t-118 -12.5 h-71q-14 0 -24.5 5.5t-16.5 14.5t-7.5 21t0.5 26l15 68h-24q-14 0 -24.5 5.5t-16.5 15t-8 21.5z" />
<glyph unicode="&#xf715;" d="M-486 1356.5q-2 11.5 1 25.5q10 48 30 83t45.5 58.5t54.5 35t55 11.5q28 0 49 -14t35 -36q23 22 50.5 36t58.5 14q18 0 34.5 -6t30 -17t22 -26t10.5 -35q12 12 23 29.5t21 38.5q7 14 18.5 25t25.5 18t29 9t28 -1q16 -4 25.5 -12.5t12.5 -20.5t1 -26t-8 -29 q-17 -34 -40.5 -65.5t-50.5 -57.5t-57 -44t-58 -22h-57q-19 0 -29 12t-8 31q2 13 2.5 25t-2 21.5t-7.5 15t-15 5.5q-16 0 -25 -10t-13 -27q-6 -21 -21 -32t-33 -11q-19 0 -29.5 11t-6.5 32q3 16 -2.5 26.5t-21.5 10.5q-18 0 -29.5 -16t-17.5 -40q-8 -33 -30 -48.5t-49 -15.5 q-15 0 -26 5t-17.5 13.5t-8.5 20z" />
<glyph unicode="&#xf716;" d="M-358 1480q-2 14 0 28q3 15 11 28.5t19.5 23.5t25 15.5t28.5 5.5h68l6 30q4 20 15 36.5t26 28t34 18t39 6.5t35 -6.5t25.5 -18t14 -28.5t-0.5 -36l-6 -30h68q15 0 26.5 -5.5t18.5 -15.5t9 -23.5t-2 -28.5t-11 -28.5t-18 -23t-25 -15t-29 -5.5h-67l-7 -30 q-4 -20 -15 -36.5t-26.5 -28t-33.5 -18.5t-38 -7t-36 7t-26 18.5t-14 28t0 36.5l7 30h-68q-15 0 -26.5 5.5t-18 15t-8.5 23.5z" />
<glyph unicode="&#xf717;" d="M-262.5 1279q-3.5 17 1.5 36.5t17 37.5q22 33 51.5 61t66 48.5t80.5 34t94 17.5q35 2 55.5 -14t18.5 -46q0 -15 -6 -30t-17 -27t-25 -20.5t-30 -9.5q-26 -2 -45 -10t-34.5 -19.5t-27 -25.5t-19.5 -31q-10 -20 -25.5 -32.5t-34 -19.5t-38.5 -7t-38 6q-19 7 -30 20.5 t-14.5 30.5z" />
<glyph unicode="&#xf718;" d="M-471.5 -466q-2.5 14 1.5 29q3 16 11 29.5t19.5 23.5t25.5 16t30 6h159q16 0 27.5 -6t18.5 -16t9 -24t0 -29l-44 -207q-4 -20 -15 -36t-27 -28t-35 -19t-38 -7q-20 0 -35.5 7t-26 19t-14.5 28t0 36l28 132h-39q-16 0 -27 6t-18.5 16t-10 24z" />
<glyph unicode="&#xf719;" d="M-751 -474.5q-3 14.5 1 31.5q4 16 12.5 31t21 26t27.5 17.5t31 6.5h130q16 0 29 -6.5t21 -17.5t10 -25.5t-1 -31.5l-11 -51q-7 -32 2.5 -48.5t37.5 -16.5q52 -1 67 65l9 47q4 20 16 37.5t27.5 30t34.5 19.5q18 8 38 8t36 -7.5t26 -20t14 -30.5t-1 -37l-9 -47 q-10 -47 -32 -88.5t-57 -72.5t-86 -49.5t-118 -18.5q-61 0 -102 14.5t-65 41t-32 63t-2 80.5h-16q-16 0 -29 6.5t-20 17.5t-10 25.5z" />
<glyph unicode="&#xf71a;" d="M-418 -482q6 27 21.5 51.5t37 42t47.5 28t54 10.5q26 0 47 -10.5t35 -28t19 -41.5t-1 -52q-6 -26 -21 -49t-36 -41t-47 -28t-52 -10q-27 0 -48.5 10t-35.5 28t-20 41t0 49z" />
<glyph unicode="&#xf71d;" horiz-adv-x="1097" d="M204 724q-1 22 6.5 42t22 36t34 28t42.5 17t43.5 2t36 -13t25.5 -26q9 -16 9 -38l-10 -436l184 316q8 15 20 27.5t25.5 21.5t29.5 14.5t32 5.5q34 0 54 -19.5t25 -49.5l53 -328l100 229q12 28 19 49.5t8 38t-7.5 28t-28.5 17.5q-12 4 -21.5 11t-15.5 18t-8 24t1 27 q4 16 12 30t19.5 25t25.5 18t30 10q42 7 73 24.5t52 47.5q9 13 21 24t25 18.5t28 12t31 4.5q22 0 39 -8t27.5 -22t14.5 -33q3 -19 -1 -40q-5 -24 -18.5 -43.5t-33 -34.5t-42.5 -27q-22 -12 -44 -22q28 -41 31 -89.5t-25 -101.5l-252 -497q-8 -16 -20.5 -29t-27.5 -23 t-32.5 -15t-35.5 -5q-36 0 -57.5 20t-26.5 52l-55 362l-205 -362q-8 -16 -20.5 -29t-27.5 -23t-32.5 -15t-35.5 -5q-36 0 -59 20t-25 52z" />
<glyph unicode="&#xf881;" horiz-adv-x="1364" d="M106 49.5q-2 14.5 1 31.5l79 371q4 18 2 38q-1 20 -12 38q-10 17 -16 28.5t-6 22.5t5 23t17 30q29 44 69.5 85t94.5 72.5t121 50t147 18.5q50 0 91 -7t74 -20t58 -30t43 -37q29 22 61.5 39t65.5 29t66 19t65 7q44 0 85 -8t75 -23.5t60 -39t42 -56t20 -73.5q2 -40 -8 -90 l-159 -751q-4 -22 -16.5 -40t-29.5 -31.5t-38 -20.5t-42 -7q-22 0 -39.5 7t-28.5 20.5t-15 32t0 39.5l154 723q8 36 3 62t-18.5 43t-35 25t-47.5 8q-23 0 -46.5 -8t-44.5 -24.5t-38 -41t-25 -57.5q-2 -11 -5 -23t-5 -22l-146 -685q-4 -22 -16.5 -40t-30 -31.5t-37.5 -20.5 t-42 -7t-39.5 7t-29 20.5t-15.5 32.5q-4 18 0 39l148 699q6 29 3 57.5t-20 51.5t-49.5 37.5t-85.5 15.5q-40 0 -73 -7.5t-58 -20t-42 -27.5t-25 -29q21 -24 26 -60q4 -38 -6 -84l-61 -288h21q16 0 29 -6.5t21 -17.5t10 -26q4 -14 0 -31q-4 -16 -13 -31t-21 -26t-28 -18 q-16 -6 -32 -6h-152q-16 0 -29 6.5t-21 17.5t-10 25.5z" />
<glyph unicode="&#xf882;" horiz-adv-x="1356" d="M46 49.5q-2 14.5 1 31.5q4 16 12.5 31t20.5 26t28 17.5t32 6.5h19l62 290q4 18 3 38q-2 20 -13 38q-10 17 -16 28.5t-6.5 22.5t5.5 23q4 12 16 30q29 44 70.5 85t94.5 72.5t120 50t148 18.5q48 0 87.5 -6t71.5 -16.5t58 -26t46 -33.5q54 40 115 61t123 21 q66 0 120.5 -17.5t89.5 -53t47.5 -90.5t-3.5 -129l-159 -751q-4 -22 -16.5 -40t-29.5 -31.5t-38 -20.5t-42 -7q-22 0 -39.5 7t-28.5 20.5t-15 32t0 39.5l154 723q16 72 -5 105t-73 33q-45 0 -79 -30t-55 -91q-2 -14 -3 -27.5t-5 -27.5l-145 -685q-4 -22 -16.5 -40t-30 -31.5 t-38 -20.5t-42.5 -7t-39 7t-29 20.5t-16 32t0 39.5l148 699q8 38 0 67.5t-28.5 50t-52 32t-70.5 12.5q-40 0 -73.5 -7.5t-58.5 -20t-41 -27.5q-18 -15 -26 -29q10 -12 17.5 -25t10 -29.5t1.5 -38t-7 -51.5l-79 -369q-4 -16 -12.5 -31t-21 -26t-28 -17.5t-31.5 -6.5h-150 q-16 0 -29 6.5t-21 17.5t-10 25.5z" />
<glyph d="M-536 1021.5q2 17.5 10 35.5q24 55 68.5 93.5t109.5 53.5q12 25 33 47t49 39.5t62 28.5t74 15q36 3 56 -14.5t19 -49.5q-1 -16 -8 -30.5t-18 -26.5t-25 -19.5t-30 -9.5q-20 -2 -34 -7t-23 -13.5t-14 -20t-8 -27.5q-3 -15 -10 -24.5t-15.5 -14.5t-18.5 -7q-9 -1 -19 -1 q-34 0 -55 -15.5t-33 -43.5q-8 -18 -21 -31t-29 -21t-34 -10t-38 2q-19 4 -30 15t-15.5 25t-2.5 31.5z" />
<glyph horiz-adv-x="725" d="M-473 1044q-7 32 1 68q8 37 28.5 69t49 55.5t63.5 37.5t71 14q35 0 63.5 -14t48 -37.5t27 -55.5t-0.5 -69q-8 -36 -29 -68t-50 -55t-64 -37t-70 -14q-36 0 -65 14t-47.5 37t-25.5 55zM-362 1112q-2 -12 1 -23.5t10 -20.5t17 -14.5t22 -5.5q13 0 26.5 5.5t24.5 14.5t19 20 q8 12 10 24q3 13 0 25t-10.5 21t-18 14.5t-23.5 5.5q-12 0 -25 -5.5t-23.5 -14.5t-18.5 -21t-11 -25zM159 629.5q-4 -21.5 0.5 -39.5t16.5 -33t31 -22q19 -8 40.5 -6.5t42 10.5t38.5 24t30 36q21 40 51.5 59.5t66.5 19.5q52 0 72 -32q20 -34 5 -106l-95 -450q-4 -22 0 -40 t15 -31.5t29 -20.5q16 -8 38 -8t43 7.5t38 21t29 31.5t16 40l102 478q16 74 3 129t-48 90.5t-89 53t-120 17.5q-48 0 -96 -12t-93 -35.5t-83.5 -58.5t-66.5 -81q-12 -20 -16 -41.5z" />
<glyph horiz-adv-x="725" d="M-473 1044q-7 32 1 68q8 37 28.5 69t49 55.5t63.5 37.5t71 14q35 0 63.5 -14t48 -37.5t27 -55.5t-0.5 -69q-8 -36 -29 -68t-50 -55t-64 -37t-70 -14q-36 0 -65 14t-47.5 37t-25.5 55zM-362 1112q-2 -12 1 -23.5t10 -20.5t17 -14.5t22 -5.5q13 0 26.5 5.5t24.5 14.5t19 20 q8 12 10 24q3 13 0 25t-10.5 21t-18 14.5t-23.5 5.5q-12 0 -25 -5.5t-23.5 -14.5t-18.5 -21t-11 -25zM159 629.5q-4 -21.5 0.5 -39.5t16.5 -33t31 -22q19 -8 40.5 -6.5t42 10.5t38.5 24t30 36q21 40 51.5 59.5t66.5 19.5q52 0 72 -32q20 -34 5 -106l-95 -450q-4 -22 0 -40 t15 -31.5t29 -20.5q16 -8 38 -8t43 7.5t38 21t29 31.5t16 40l102 478q16 74 3 129t-48 90.5t-89 53t-120 17.5q-48 0 -96 -12t-93 -35.5t-83.5 -58.5t-66.5 -81q-12 -20 -16 -41.5z" />
<glyph d="M-482 1007q-4 15 0 31t12.5 31t21 26t27.5 17t31 6h488q16 0 28.5 -6t20 -17t9.5 -26q4 -15 0 -31t-12.5 -31t-21 -25.5t-27.5 -17t-31 -6.5h-488q-16 0 -29 6.5t-20 17t-9 25.5z" />
<glyph d="M-482 1007q-4 15 0 31t12.5 31t21 26t27.5 17t31 6h350l9 44q4 20 15.5 38t27.5 30.5t36 19.5t40 7t37 -7t27.5 -19.5t15.5 -30.5q4 -18 -1 -38l-23 -109q-4 -20 -16 -37.5t-28 -30.5t-36 -20t-40 -7h-448q-16 0 -29 6.5t-20 17t-9 25.5z" />
<glyph d="M-482 1007q-4 15 0 31t12.5 31t21 26t27.5 17t31 6h258l1 6q6 32 24.5 61t44 50t56.5 33t63 12t57.5 -12.5t42.5 -34t23 -50.5t-1 -61q-8 -36 -26.5 -65.5t-44 -51.5t-56.5 -34.5t-63 -12.5h-413q-16 0 -29 6.5t-20 17t-9 25.5zM-31 1103.5q2 -9.5 8 -16.5t15 -11 q8 -5 20 -5t23 4.5t20 11.5t15 17q8 10 10 20q2 12 0 22t-8 17.5t-16 12.5q-8 4 -20 4t-23 -4.5t-20 -12t-15.5 -17.5t-8.5 -22q-2 -11 0 -20.5z" />
<glyph d="M-482 1007q-4 15 0 31t12.5 31t21 26t27.5 17t31 6h155l13 62q4 17 13 31.5t22.5 24.5t30 15.5t32.5 5.5q17 0 31 -5.5t23 -15.5t12.5 -24.5t-0.5 -31.5l-13 -62h65l13 62q4 17 13.5 31.5t22.5 24.5t29 15.5t34 5.5q17 0 30.5 -5.5t22.5 -15.5t12 -24.5t-1 -31.5 l-26 -127q-4 -20 -16 -37.5t-28 -30.5t-36 -20t-40 -7h-448q-16 0 -29 6.5t-20 17t-9 25.5z" />
<glyph d="M-853.5 1007q-2.5 15 1.5 31t12 31t20.5 26t27.5 17q16 6 32 6h611q16 0 28.5 -6t20 -17t10 -26t-1.5 -31t-12 -31t-20 -25.5t-27 -17t-32 -6.5h-611q-16 0 -29 6.5t-20.5 17t-10 25.5z" />
<glyph d="M-853.5 1007q-2.5 15 1.5 31t12 31t20.5 26t27.5 17q16 6 32 6h472l10 44q4 20 15.5 38t28 30.5t35.5 19.5t40 7q20 0 36.5 -7t27.5 -19.5t15 -30.5t0 -38l-24 -109q-4 -20 -15.5 -37.5t-27.5 -30.5t-35.5 -20t-39.5 -7h-572q-16 0 -29 6.5t-20.5 17t-10 25.5z" />
<glyph d="M-853.5 1007q-2.5 15 1.5 31t12 31t20.5 26t27.5 17q16 6 32 6h398l2 6q6 32 24 61t44 50t57 33t63 12t58 -12.5t42 -34t22 -50.5t0 -61q-8 -36 -26 -65.5t-44 -51.5t-57 -34.5t-63 -12.5h-554q-16 0 -29 6.5t-20.5 17t-10 25.5zM-260 1103.5q2 -9.5 8 -16.5t15 -11.5 t21 -4.5t22.5 4.5t19.5 11.5t15.5 17t8.5 20q2 12 0 22t-8 17.5t-15 12t-21 4.5t-22.5 -4.5t-19.5 -12t-15.5 -17.5t-8.5 -22q-2 -11 0 -20.5z" />
<glyph d="M-853.5 1007q-2.5 15 1.5 31t12 31t20.5 26t27.5 17q16 6 32 6h277l13 62q4 17 13 31.5t22.5 24.5t30 15.5t32.5 5.5q17 0 31 -5.5t23 -15.5t12.5 -24.5t-0.5 -31.5l-13 -62h65l14 62q4 17 13 31.5t22 24.5t29.5 15.5t33.5 5.5t30.5 -5.5t22.5 -15.5t12 -24.5t0 -31.5 l-27 -127q-4 -20 -16 -37.5t-28 -30.5t-35 -20t-40 -7h-571q-16 0 -29 6.5t-20.5 17t-10 25.5z" />
<glyph d="M-222 1374q-4 18 0 38l25 115q4 20 15.5 37t27.5 29.5t35 19.5t39 7t36 -7t27 -19.5t15 -29.5t0 -37l-25 -115q-4 -20 -15.5 -37t-27.5 -30t-35 -19.5t-39 -6.5t-36 6.5t-27 19.5t-15 29z" />
<glyph d="M-376 1506q-2 12 1 26t10 26t17 21.5t23 15t27 5.5h121q14 0 24.5 -5.5t16.5 -15t8 -21.5t0 -26l-13 -58q30 2 55 10t45.5 19t37 26t27.5 32q10 16 24 26.5t30 16.5t32 5t30 -7q14 -7 22 -19.5t10 -27.5t-2 -31t-14 -32q-24 -34 -59 -64t-79 -52t-99 -34.5t-118 -12.5 h-71q-14 0 -24.5 5.5t-16.5 14.5t-7.5 21t0.5 26l15 68h-24q-14 0 -24.5 5.5t-16.5 15t-8 21.5z" />
<glyph d="M-464 1356.5q-2 11.5 1 25.5q10 48 30 83t45.5 58.5t54.5 35t55 11.5q28 0 49 -14t35 -36q23 22 50.5 36t58.5 14q18 0 34.5 -6t29.5 -17t21.5 -26t10.5 -35q12 12 23.5 29.5t21.5 38.5q7 14 18.5 25t25.5 18t29 9t28 -1q16 -4 25.5 -12.5t12.5 -20.5t1 -26t-8 -29 q-17 -34 -40.5 -65.5t-50.5 -57.5t-57 -44t-58 -22h-57q-19 0 -29 12t-8 31q2 13 2.5 25t-2 21.5t-7.5 15t-15 5.5q-16 0 -25 -10t-13 -27q-6 -21 -21 -32t-33 -11q-19 0 -29.5 11t-6.5 32q3 16 -2.5 26.5t-21.5 10.5q-18 0 -29.5 -16t-17.5 -40q-8 -33 -30 -48.5t-49 -15.5 q-15 0 -26 5t-17.5 13.5t-8.5 20z" />
<glyph d="M-334 1480q-2 14 0 28q3 15 11 28.5t19.5 23.5t25 15.5t28.5 5.5h68l6 30q4 20 15 36.5t26 28t34 18t39 6.5t35 -6.5t25 -18t14 -28.5t0 -36l-6 -30h68q15 0 26.5 -5.5t18.5 -15.5t9 -23.5t-2 -28.5t-11 -28.5t-18 -23t-25 -15t-29 -5.5h-67l-7 -30q-4 -20 -15 -36.5 t-26.5 -28t-33.5 -18.5t-38 -7t-36 7t-26 18.5t-14 28t0 36.5l7 30h-68q-15 0 -26.5 5.5t-18 15t-8.5 23.5z" />
<glyph d="M-841.5 1007q-2.5 15 1.5 31t12 31t20.5 26t27.5 17q16 6 32 6h846q16 0 28.5 -6t20 -17t9.5 -26q4 -15 0 -31t-12.5 -31t-21 -25.5t-27.5 -17t-31 -6.5h-846q-16 0 -29 6.5t-20.5 17t-10 25.5z" />
<glyph d="M-841.5 1007q-2.5 15 1.5 31t12 31t20.5 26t27.5 17q16 6 32 6h708l9 44q4 20 15.5 38t27.5 30.5t36 19.5t40 7t37 -7t27.5 -19.5t15.5 -30.5q4 -18 -1 -38l-23 -109q-4 -20 -16 -37.5t-28 -30.5t-36 -20t-40 -7h-806q-16 0 -29 6.5t-20.5 17t-10 25.5z" />
<glyph d="M-841.5 1007q-2.5 15 1.5 31t12 31t20.5 26t27.5 17q16 6 32 6h618l1 6q6 32 24.5 61t44 50t56.5 33t63 12t57.5 -12.5t42.5 -34t23 -50.5t-1 -61q-8 -36 -26.5 -65.5t-44 -51.5t-56.5 -34.5t-63 -12.5h-773q-16 0 -29 6.5t-20.5 17t-10 25.5zM-29 1103.5q2 -9.5 8 -16.5 t15 -11q8 -5 20 -5t23 4.5t20 11.5t15 17q8 10 10 20q2 12 0 22t-8 17.5t-16 12.5q-8 4 -20 4t-23 -4.5t-20 -12t-15.5 -17.5t-8.5 -22q-2 -11 0 -20.5z" />
<glyph d="M-841.5 1007q-2.5 15 1.5 31t12 31t20.5 26t27.5 17q16 6 32 6h513l13 62q4 17 13 31.5t22.5 24.5t30 15.5t32.5 5.5q17 0 31 -5.5t23 -15.5t12.5 -24.5t-0.5 -31.5l-13 -62h65l13 62q4 17 13.5 31.5t22.5 24.5t29 15.5t34 5.5q17 0 30.5 -5.5t22.5 -15.5t12 -24.5 t-1 -31.5l-26 -127q-4 -20 -16 -37.5t-28 -30.5t-36 -20t-40 -7h-806q-16 0 -29 6.5t-20.5 17t-10 25.5z" />
<glyph d="M10 1291.5q-4 16.5 0 37.5l26 127q4 20 16 37t28 29.5t35 19t39 6.5t36 -6.5t27 -19t15 -29.5t-1 -37l-27 -127q-4 -20 -15 -37t-27 -29.5t-35 -19.5t-39 -7t-36.5 7t-27 19.5t-14.5 29z" />
<glyph d="M-201.5 1424q-1.5 12 1.5 26t10.5 26t17.5 21.5t22.5 15t26.5 5.5h121q14 0 24.5 -5.5t17 -15t8 -21.5t-1.5 -26l-12 -58q29 0 54 8t46 20t37.5 27t27.5 32q10 16 24.5 26.5t30 16.5t31 5t29.5 -7q14 -7 22.5 -19.5t11 -27.5t-1.5 -31t-15 -32q-24 -34 -58.5 -64 t-79.5 -52t-99 -34.5t-118 -12.5h-70q-14 0 -25 5.5t-17 14.5t-8 21t2 26l14 68h-24q-14 0 -24.5 5.5t-17 15t-8 21.5z" />
<glyph d="M-300 1274q-2 12 0 26q10 48 30 83t46 58t54.5 34.5t55.5 11.5q28 0 49 -13.5t35 -35.5q23 22 50 35.5t58 13.5q18 0 35 -5.5t30 -16.5t21 -26.5t10 -35.5q12 12 23.5 30t21.5 39q7 14 19 25t25.5 18t28.5 9q14 2 28 -2q16 -4 25.5 -12.5t13 -20.5t1.5 -26q-2 -15 -9 -29 q-17 -34 -40.5 -65t-51 -57t-56.5 -44t-58 -23h-57q-19 0 -29.5 12.5t-7.5 30.5q2 13 2.5 25.5t-1.5 21.5t-8 15t-16 6q-16 0 -24 -10q-8 -12 -13 -28q-6 -21 -20.5 -32t-33.5 -11t-29.5 11.5t-6.5 31.5q3 16 -2 27t-21 11q-18 0 -30 -16t-18 -40q-8 -33 -30 -49t-48 -16 q-15 0 -26.5 5t-17.5 13.5t-8 20.5z" />
<glyph d="M-104 1398q-2 14 1 28q3 15 11 28.5t19 23.5t25 15.5t28 5.5h68l6 30q4 20 15 36.5t26.5 28t34 18t38.5 6.5t35.5 -6.5t25.5 -18t14 -28.5q3 -17 -1 -36l-6 -30h68q15 0 26.5 -5.5t18.5 -15.5t9 -23.5t-1 -28.5q-4 -15 -11.5 -28.5t-18.5 -23t-25 -15t-28 -5.5h-68 l-7 -30q-4 -20 -15 -36.5t-26.5 -28t-33.5 -18.5t-38 -7t-36 7t-26 18.5t-14 28t0 36.5l7 30h-67q-15 0 -26.5 5.5t-18.5 15t-9 23.5z" />
<glyph d="M-260 1291.5q-4 16.5 0 37.5l27 127q4 20 15.5 37t27.5 29.5t35 19t39 6.5t36.5 -6.5t27 -19t14.5 -29.5t0 -37l-28 -127q-4 -20 -15 -37t-27 -29.5t-35 -19.5t-39 -7t-36 7t-27 19.5t-15 29z" />
<glyph d="M-414 1424q-2 12 1 26t10 26t17 21.5t23 15t27 5.5h122q14 0 24 -5.5t16.5 -15t8 -21.5t-0.5 -26l-13 -58q29 0 54 8t46 20t37.5 27t27.5 32q10 16 24.5 26.5t30 16.5t31.5 5t30 -7q14 -7 22 -19.5t10 -27.5t-2 -31t-14 -32q-24 -34 -58.5 -64t-79 -52t-98.5 -34 q-54 -13 -118 -13h-71q-14 0 -24.5 5.5t-17 14.5t-8 21t0.5 26l15 68h-24q-14 0 -24.5 5.5t-16.5 15t-8 21.5z" />
<glyph d="M-504 1274q-2 12 1 26q10 48 30 83t45.5 58t54.5 34.5t55 11.5q28 0 49 -13.5t35 -35.5q23 22 50.5 35.5t58.5 13.5q18 0 34.5 -5.5t29.5 -16.5t22 -26.5t11 -35.5q12 12 23 30t21 39q7 14 18.5 25t25.5 18t29 9t28 -2q16 -4 25.5 -12.5t12.5 -20.5t1 -26q-2 -15 -8 -29 q-17 -34 -40.5 -65t-50.5 -57t-57 -44t-58 -23h-57q-19 0 -29 12.5t-8 30.5q2 13 2.5 25.5t-2 21.5t-7.5 15t-15 6q-16 0 -25 -10q-9 -12 -13 -28q-6 -21 -21 -32t-33 -11q-19 0 -29.5 11.5t-6.5 31.5q3 16 -2.5 27t-21.5 11q-18 0 -29.5 -16t-17.5 -40q-8 -33 -30 -49 t-49 -16q-15 0 -26 5t-17.5 13.5t-8.5 20.5z" />
<glyph d="M-372 1398q-2 14 1 28q3 15 11 28.5t19 23.5t25 15.5t28 5.5h68l6 30q4 20 15.5 36.5t27 28t33.5 18.5q18 6 38 6t36 -6.5t26 -18t14 -28.5t-1 -36l-6 -30h67q15 0 26.5 -5.5t18.5 -15.5t9 -23.5t-1 -28.5q-4 -15 -11.5 -28.5t-18.5 -23t-25 -15t-28 -5.5h-68l-6 -30 q-4 -20 -15 -36.5t-27 -28t-34 -18.5t-38 -7t-35.5 7t-26 18.5t-14 28t0.5 36.5l7 30h-68q-15 0 -26.5 5.5t-18.5 15t-9 23.5z" />
<glyph d="M-562 -175q4 16 12 29.5t19.5 23.5t25.5 16q13 6 29 6h160q16 0 27 -6t18.5 -16t10 -24t-1.5 -29l-45 -211q-4 -20 -15 -37t-26.5 -29t-34.5 -18.5t-38 -6.5q-20 0 -35.5 6.5t-26.5 18.5t-15 29t0 37l30 136h-40q-16 0 -27 6t-18 16t-9 24t0 29z" />
<glyph d="M-728 -213q-2 15 1 31q4 16 12.5 31t20.5 26t28 17.5t32 6.5h130q16 0 29 -6.5t20.5 -17.5t10.5 -25q2 -16 -2 -32l-10 -50q-7 -32 2 -49t37 -17q54 0 67 66l10 46q4 20 15 37.5t27 30t35 20.5t39 8t35 -8t25.5 -20.5t14 -30t-0.5 -37.5l-10 -46q-10 -47 -31 -88.5 t-57 -73t-86 -50t-118 -18.5q-61 0 -102 15t-65 41t-31.5 63t-2.5 81h-15q-16 0 -29 6t-21 17t-10 26z" />
<glyph d="M-508.5 -244q-5.5 24 0.5 50q6 27 21 50.5t37 41.5t48 28t53 10q26 0 47.5 -10t35 -28t19 -42t-0.5 -50t-21 -50t-36.5 -41t-47 -28t-51.5 -11q-27 0 -48.5 11t-36 28t-20 41z" />
<glyph d="M-537.5 -204q-2.5 14 1.5 29q4 16 11.5 29.5t19 23.5t25.5 16t30 6h159q16 0 27.5 -6t18.5 -16t9 -24t-1 -29l-45 -211q-4 -20 -15 -37t-26.5 -29t-34 -18.5t-38.5 -6.5t-36 6.5t-26 18.5t-14 29t0 37l28 136h-38q-16 0 -27.5 6t-18.5 16t-9.5 24z" />
<glyph d="M-855 -213q-3 15 1 31t12.5 31t21 26t27.5 17.5t32 6.5h130q16 0 28.5 -6.5t20.5 -17.5t10 -25q2 -16 -1 -32l-11 -50q-7 -32 2.5 -49t37.5 -17q54 0 67 66l10 46q4 20 15.5 37.5t27 30t34.5 20.5q18 8 38 8t36 -8t26 -20.5t14 -30t0 -37.5l-10 -46q-10 -47 -32 -88.5 t-57 -73t-86 -50t-118 -18.5q-61 0 -102 15t-65 41t-32 63t-2 81h-16q-16 0 -29 6t-20 17t-10 26z" />
<glyph d="M-508.5 -244q-5.5 24 0.5 50q6 27 21 50.5t37 41.5t48 28t53 10q26 0 47.5 -10t35 -28t19 -42t-0.5 -50t-21 -50t-36.5 -41t-47 -28t-51.5 -11q-27 0 -48.5 11t-36 28t-20 41z" />
<glyph d="M-418 1010q-4 16 0 36l16 72q4 19 14.5 35t25.5 27.5t33.5 18t36.5 6.5q19 0 34.5 -6.5t25.5 -18t14 -27.5t0 -35h582q16 0 29 -6t20 -17t10 -26t-1 -31t-12.5 -31t-21 -25.5t-27.5 -17t-31 -6.5h-674q-19 0 -34.5 7t-25.5 18t-14 27z" />
<glyph d="M-242 1374q-4 18 0 38l24 116q4 20 16 37t27.5 29t35 19t39.5 7t36 -7t26.5 -19t15 -29t-0.5 -37l-25 -116q-4 -20 -15 -37t-27 -30t-35 -19.5t-39 -6.5t-36.5 6.5t-27 19.5t-14.5 29z" />
<glyph d="M-396.5 1506q-1.5 12 0.5 26q3 14 10.5 26t17.5 21.5t22.5 15t26.5 5.5h121q14 0 25 -5.5t17 -15t8 -21.5t-1 -26l-13 -58q28 0 54 8t48 20t38.5 27t27.5 32q10 16 24 26.5t29 16.5t30.5 5t29.5 -7q14 -7 22 -19.5t10.5 -27.5t-1.5 -31t-14 -32q-24 -34 -59 -64 t-79.5 -52t-99 -34.5t-118.5 -12.5h-70q-14 0 -25 5.5t-17 14.5t-7.5 21t1.5 26l14 68h-24q-14 0 -24 5.5t-16.5 15t-8 21.5z" />
<glyph d="M-486 1356.5q-2 11.5 1 25.5q10 48 30 83t45.5 58.5t54.5 35t55 11.5q28 0 49 -14t35 -36q23 22 50.5 36t58.5 14q18 0 34.5 -6t30 -17t22 -26t10.5 -35q12 12 23 29.5t21 38.5q7 14 18.5 25t25.5 18t29 9t28 -1q16 -4 25.5 -12.5t12.5 -20.5t1 -26t-8 -29 q-17 -34 -40.5 -65.5t-50.5 -57.5t-57 -44t-58 -22h-57q-19 0 -29 12t-8 31q2 13 2.5 25t-2 21.5t-7.5 15t-15 5.5q-16 0 -25 -10t-13 -27q-6 -21 -21 -32t-33 -11q-19 0 -29.5 11t-6.5 32q3 16 -2.5 26.5t-21.5 10.5q-18 0 -29.5 -16t-17.5 -40q-8 -33 -30 -48.5t-49 -15.5 q-15 0 -26 5t-17.5 13.5t-8.5 20z" />
<glyph d="M-354 1480q-2 14 0 28q3 15 11 28.5t19.5 23.5t25 15.5t28.5 5.5h68l6 30q4 20 15 36.5t26 28t34 18t39 6.5t35 -6.5t25 -18t14 -28.5t0 -36l-6 -30h68q15 0 26.5 -5.5t18.5 -15.5t9 -23.5t-2 -28.5t-11 -28.5t-18 -23t-25 -15t-29 -5.5h-67l-7 -30q-4 -20 -15 -36.5 t-26.5 -28t-33.5 -18.5t-38 -7t-36 7t-26 18.5t-14 28t0 36.5l7 30h-68q-15 0 -26.5 5.5t-18 15t-8.5 23.5z" />
<glyph d="M-418 1010q-4 16 0 36l16 72q4 19 14.5 35t25.5 27.5t33.5 18t36.5 6.5q19 0 34.5 -6.5t25.5 -18t14 -27.5t0 -35h474q16 0 29 -6t20.5 -17t10 -26t-1.5 -31t-12 -31t-20.5 -25.5t-27.5 -17.5q-16 -6 -32 -6h-566q-19 0 -34.5 7t-25.5 18t-14 27z" />
<glyph d="M-280 1490.5q-2 12.5 2 26.5q3 14 10 26.5t17 21.5t22.5 14t26.5 5h122q14 0 24.5 -5t17 -14t8 -21.5t-1.5 -26.5l-12 -57q29 2 54.5 9t46 19t36.5 26.5t27 31.5q10 16 24.5 27t30 16t31.5 5t30 -8q14 -7 22 -19t10.5 -26.5t-1.5 -31.5q-5 -17 -15 -32q-24 -34 -58 -64.5 t-79 -52t-99 -34t-118 -12.5h-70q-14 0 -25 5t-17 14.5t-8 22t2 26.5l14 68h-24q-14 0 -24.5 5t-17 14t-8.5 21.5z" />
<glyph d="M-319 1342q-2 12 1 25q10 48 30 83.5t45.5 58.5t54 34t55.5 11q28 0 49 -14q20 -13 34 -35q24 22 51 35.5t58 13.5q18 0 34.5 -5.5t30 -16t22 -26.5t10.5 -36q12 12 23 30t21 39q7 14 18.5 25.5t25.5 18t29 9t29 -1.5q16 -4 25 -13t13 -21t2 -26t-10 -28 q-17 -34 -40.5 -65.5t-50.5 -57.5t-56.5 -43.5t-58.5 -23.5h-57q-19 0 -29 12.5t-8 31.5q2 13 2.5 25t-2 21.5t-7.5 15t-15 5.5q-16 0 -24 -10.5t-14 -26.5q-6 -21 -20.5 -32.5t-33.5 -11.5t-29.5 12t-6.5 32q3 16 -2.5 26.5t-21.5 10.5q-18 0 -29 -15.5t-17 -40.5 q-8 -33 -30 -49t-50 -16q-15 0 -25.5 5t-17 14t-8.5 21z" />
<glyph d="M-552 1007q-2 15 1 31q4 16 12.5 31t20.5 26t27 17t31 6h553q16 0 28.5 -6t20 -17t10 -26t-1.5 -31t-12 -31t-20 -25.5t-27 -17t-32 -6.5h-553q-16 0 -28.5 6.5t-20 17t-9.5 25.5z" />
<glyph d="M-552 1007q-2 15 1 31q4 16 12.5 31t20.5 26t27 17t31 6h420l9 44q4 20 15.5 38t27.5 30.5t36 19.5t40 7t37 -7t27.5 -19.5t15.5 -30.5q4 -18 -1 -38l-23 -109q-4 -20 -16 -37.5t-28 -30.5t-36 -20t-40 -7h-518q-16 0 -28.5 6.5t-20 17t-9.5 25.5z" />
<glyph d="M-552 1007q-2 15 1 31q4 16 12.5 31t20.5 26t27 17t31 6h328l1 6q6 32 24.5 61t44 50t56.5 33t63 12t57.5 -12.5t42.5 -34t23 -50.5t-1 -61q-8 -36 -26.5 -65.5t-44 -51.5t-56.5 -34.5t-63 -12.5h-483q-16 0 -28.5 6.5t-20 17t-9.5 25.5zM-31 1103.5q2 -9.5 8 -16.5 t15 -11q8 -5 20 -5t23 4.5t20 11.5t15 17q8 10 10 20q2 12 0 22t-8 17.5t-16 12.5q-8 4 -20 4t-23 -4.5t-20 -12t-15.5 -17.5t-8.5 -22q-2 -11 0 -20.5z" />
<glyph d="M-552 1007q-2 15 1 31q4 16 12.5 31t20.5 26t27 17t31 6h225l13 62q4 17 13 31.5t22.5 24.5t30 15.5t32.5 5.5q17 0 31 -5.5t23 -15.5t12.5 -24.5t-0.5 -31.5l-13 -62h65l13 62q4 17 13.5 31.5t22.5 24.5t29 15.5t34 5.5q17 0 30.5 -5.5t22.5 -15.5t12 -24.5t-1 -31.5 l-26 -127q-4 -20 -16 -37.5t-28 -30.5t-36 -20t-40 -7h-518q-16 0 -28.5 6.5t-20 17t-9.5 25.5z" />
<glyph d="M-312 1374q-4 18 0 38l24 114q4 20 16 37t27.5 29t35 19t39.5 7t36 -7t26.5 -19t15 -29t-0.5 -37l-24 -114q-4 -20 -15.5 -37t-27.5 -30t-35 -19.5t-39 -6.5t-36 6.5t-27 19.5t-15 29z" />
<glyph d="M-424 1480q-2 14 2 28q3 15 10.5 28.5t18.5 23.5t25 15.5t29 5.5h68l6 30q4 20 15 36.5t26.5 28t33.5 18.5q18 6 38 6t36 -6.5t26 -18t14 -28.5t0 -36l-6 -30h68q15 0 26 -5.5t17.5 -15.5t8.5 -23.5t0 -28.5q-4 -15 -12 -28.5t-18.5 -23t-24 -15t-29.5 -5.5h-68l-6 -30 q-4 -20 -15 -36.5t-26.5 -28t-34 -18.5t-38.5 -7t-35 7t-25.5 18.5t-14 28t0.5 36.5l6 30h-68q-15 0 -26.5 5.5t-18.5 15t-9 23.5z" />
</font>
</defs>
</svg>
